<?xml version="1.0" encoding="UTF-8" standalone="no"?>
<!DOCTYPE svg PUBLIC "-//W3C//DTD SVG 1.1//EN"
 "http://www.w3.org/Graphics/SVG/1.1/DTD/svg11.dtd">
<!-- Generated by graphviz version 2.40.1 (20161225.0304)
 -->
<!-- Title: dependencies Pages: 1 -->
<svg width="504pt" height="211pt"
 viewBox="0.00 0.00 504.00 211.00" xmlns="http://www.w3.org/2000/svg" xmlns:xlink="http://www.w3.org/1999/xlink">
<g id="graph0" class="graph" transform="scale(1 1) rotate(0) translate(4 207)">
<title>dependencies</title>
<polygon fill="#ffffff" stroke="transparent" points="-4,4 -4,-207 500,-207 500,4 -4,4"/>
<text text-anchor="start" x="227.0091" y="-42.4" font-family="sans-serif" font-weight="bold" font-size="14.00" fill="#000000">Legend</text>
<polygon fill="#ffffb3" stroke="transparent" points="14,-10 14,-30 34,-30 34,-10 14,-10"/>
<text text-anchor="start" x="37.629" y="-15.4" font-family="sans-serif" font-size="14.00" fill="#000000"> &#160;Declarations</text>
<polygon fill="#8dd3c7" stroke="transparent" points="127,-10 127,-30 147,-30 147,-10 127,-10"/>
<text text-anchor="start" x="150.7251" y="-15.4" font-family="sans-serif" font-size="14.00" fill="#000000"> &#160;Module</text>
<polygon fill="#80b1d3" stroke="transparent" points="213,-10 213,-30 233,-30 233,-10 213,-10"/>
<text text-anchor="start" x="236.7812" y="-15.4" font-family="sans-serif" font-size="14.00" fill="#000000"> &#160;Bootstrap</text>
<polygon fill="#fdb462" stroke="transparent" points="310,-10 310,-30 330,-30 330,-10 310,-10"/>
<text text-anchor="start" x="333.6732" y="-15.4" font-family="sans-serif" font-size="14.00" fill="#000000"> &#160;Providers</text>
<polygon fill="#fb8072" stroke="transparent" points="406,-10 406,-30 426,-30 426,-10 406,-10"/>
<text text-anchor="start" x="429.7258" y="-15.4" font-family="sans-serif" font-size="14.00" fill="#000000"> &#160;Exports</text>
<g id="clust1" class="cluster">
<title>cluster_TableModule</title>
<polygon fill="none" stroke="#000000" stroke-dasharray="1,5" points="37,-70 37,-195 459,-195 459,-70 37,-70"/>
</g>
<g id="clust2" class="cluster">
<title>cluster_TableModule_declarations</title>
<polygon fill="none" stroke="#000000" points="321,-78 321,-130 451,-130 451,-78 321,-78"/>
</g>
<g id="clust4" class="cluster">
<title>cluster_TableModule_imports</title>
<polygon fill="none" stroke="#000000" points="45,-78 45,-130 313,-130 313,-78 45,-78"/>
</g>
<!-- TableComponent -->
<g id="node1" class="node">
<title>TableComponent</title>
<polygon fill="#ffffb3" stroke="#000000" points="442.705,-122 329.295,-122 329.295,-86 442.705,-86 442.705,-122"/>
<text text-anchor="middle" x="386" y="-99.8" font-family="Times,serif" font-size="14.00" fill="#000000">TableComponent</text>
</g>
<!-- TableModule -->
<g id="node2" class="node">
<title>TableModule</title>
<polygon fill="#8dd3c7" stroke="#000000" points="301.9232,-187 298.9232,-191 277.9232,-191 274.9232,-187 210.0768,-187 210.0768,-151 301.9232,-151 301.9232,-187"/>
<text text-anchor="middle" x="256" y="-164.8" font-family="Times,serif" font-size="14.00" fill="#000000">TableModule</text>
</g>
<!-- TableComponent&#45;&gt;TableModule -->
<g id="edge1" class="edge">
<title>TableComponent&#45;&gt;TableModule</title>
<path fill="none" stroke="#000000" d="M386,-122.1061C386,-141.3391 386,-169 386,-169 386,-169 311.8331,-169 311.8331,-169"/>
<polygon fill="#000000" stroke="#000000" points="311.8332,-165.5001 301.8331,-169 311.8331,-172.5001 311.8332,-165.5001"/>
</g>
<!-- SharedModule -->
<g id="node3" class="node">
<title>SharedModule</title>
<polygon fill="#8dd3c7" stroke="#000000" points="305.4231,-122 302.4231,-126 281.4231,-126 278.4231,-122 206.5769,-122 206.5769,-86 305.4231,-86 305.4231,-122"/>
<text text-anchor="middle" x="256" y="-99.8" font-family="Times,serif" font-size="14.00" fill="#000000">SharedModule</text>
</g>
<!-- SharedModule&#45;&gt;TableModule -->
<g id="edge2" class="edge">
<title>SharedModule&#45;&gt;TableModule</title>
<path fill="none" stroke="#000000" d="M256,-122.1061C256,-122.1061 256,-140.991 256,-140.991"/>
<polygon fill="#000000" stroke="#000000" points="252.5001,-140.9909 256,-150.991 259.5001,-140.991 252.5001,-140.9909"/>
</g>
<!-- TableRoutingModule -->
<g id="node4" class="node">
<title>TableRoutingModule</title>
<polygon fill="#8dd3c7" stroke="#000000" points="189.0408,-122 186.0408,-126 165.0408,-126 162.0408,-122 52.9592,-122 52.9592,-86 189.0408,-86 189.0408,-122"/>
<text text-anchor="middle" x="121" y="-99.8" font-family="Times,serif" font-size="14.00" fill="#000000">TableRoutingModule</text>
</g>
<!-- TableRoutingModule&#45;&gt;TableModule -->
<g id="edge3" class="edge">
<title>TableRoutingModule&#45;&gt;TableModule</title>
<path fill="none" stroke="#000000" d="M121,-122.1061C121,-141.3391 121,-169 121,-169 121,-169 199.9182,-169 199.9182,-169"/>
<polygon fill="#000000" stroke="#000000" points="199.9183,-172.5001 209.9182,-169 199.9182,-165.5001 199.9183,-172.5001"/>
</g>
</g>
</svg>
