<?xml version="1.0" encoding="UTF-8" standalone="no"?>
<!DOCTYPE svg PUBLIC "-//W3C//DTD SVG 1.1//EN"
 "http://www.w3.org/Graphics/SVG/1.1/DTD/svg11.dtd">
<!-- Generated by graphviz version 2.40.1 (20161225.0304)
 -->
<!-- Title: dependencies Pages: 1 -->
<svg width="1926pt" height="284pt"
 viewBox="0.00 0.00 1926.00 284.00" xmlns="http://www.w3.org/2000/svg" xmlns:xlink="http://www.w3.org/1999/xlink">
<g id="graph0" class="graph" transform="scale(1 1) rotate(0) translate(4 280)">
<title>dependencies</title>
<polygon fill="#ffffff" stroke="transparent" points="-4,4 -4,-280 1922,-280 1922,4 -4,4"/>
<text text-anchor="start" x="938.0091" y="-42.4" font-family="sans-serif" font-weight="bold" font-size="14.00" fill="#000000">Legend</text>
<polygon fill="#ffffb3" stroke="transparent" points="725,-10 725,-30 745,-30 745,-10 725,-10"/>
<text text-anchor="start" x="748.629" y="-15.4" font-family="sans-serif" font-size="14.00" fill="#000000"> &#160;Declarations</text>
<polygon fill="#8dd3c7" stroke="transparent" points="838,-10 838,-30 858,-30 858,-10 838,-10"/>
<text text-anchor="start" x="861.7251" y="-15.4" font-family="sans-serif" font-size="14.00" fill="#000000"> &#160;Module</text>
<polygon fill="#80b1d3" stroke="transparent" points="924,-10 924,-30 944,-30 944,-10 924,-10"/>
<text text-anchor="start" x="947.7812" y="-15.4" font-family="sans-serif" font-size="14.00" fill="#000000"> &#160;Bootstrap</text>
<polygon fill="#fdb462" stroke="transparent" points="1021,-10 1021,-30 1041,-30 1041,-10 1021,-10"/>
<text text-anchor="start" x="1044.6732" y="-15.4" font-family="sans-serif" font-size="14.00" fill="#000000"> &#160;Providers</text>
<polygon fill="#fb8072" stroke="transparent" points="1117,-10 1117,-30 1137,-30 1137,-10 1117,-10"/>
<text text-anchor="start" x="1140.7258" y="-15.4" font-family="sans-serif" font-size="14.00" fill="#000000"> &#160;Exports</text>
<g id="clust1" class="cluster">
<title>cluster_SharedModule</title>
<polygon fill="none" stroke="#000000" stroke-dasharray="1,5" points="8,-70 8,-268 1910,-268 1910,-70 8,-70"/>
</g>
<g id="clust2" class="cluster">
<title>cluster_SharedModule_declarations</title>
<polygon fill="none" stroke="#000000" points="146,-78 146,-130 1902,-130 1902,-78 146,-78"/>
</g>
<g id="clust13" class="cluster">
<title>cluster_SharedModule_imports</title>
<polygon fill="none" stroke="#000000" points="16,-78 16,-130 138,-130 138,-78 16,-78"/>
</g>
<g id="clust14" class="cluster">
<title>cluster_SharedModule_exports</title>
<polygon fill="none" stroke="#000000" points="515,-208 515,-260 1320,-260 1320,-208 515,-208"/>
</g>
<!-- ContactComponent -->
<g id="node1" class="node">
<title>ContactComponent</title>
<polygon fill="#ffffb3" stroke="#000000" points="1894.3795,-122 1769.6205,-122 1769.6205,-86 1894.3795,-86 1894.3795,-122"/>
<text text-anchor="middle" x="1832" y="-99.8" font-family="Times,serif" font-size="14.00" fill="#000000">ContactComponent</text>
</g>
<!-- SharedModule -->
<g id="node11" class="node">
<title>SharedModule</title>
<polygon fill="#8dd3c7" stroke="#000000" points="947.4231,-187 944.4231,-191 923.4231,-191 920.4231,-187 848.5769,-187 848.5769,-151 947.4231,-151 947.4231,-187"/>
<text text-anchor="middle" x="898" y="-164.8" font-family="Times,serif" font-size="14.00" fill="#000000">SharedModule</text>
</g>
<!-- ContactComponent&#45;&gt;SharedModule -->
<g id="edge1" class="edge">
<title>ContactComponent&#45;&gt;SharedModule</title>
<path fill="none" stroke="#000000" d="M1832,-122.0267C1832,-142.7672 1832,-174 1832,-174 1832,-174 957.2282,-174 957.2282,-174"/>
<polygon fill="#000000" stroke="#000000" points="957.2282,-170.5001 947.2282,-174 957.2281,-177.5001 957.2282,-170.5001"/>
</g>
<!-- ContactPersonComponent -->
<g id="node2" class="node">
<title>ContactPersonComponent</title>
<polygon fill="#ffffb3" stroke="#000000" points="1751.4818,-122 1588.5182,-122 1588.5182,-86 1751.4818,-86 1751.4818,-122"/>
<text text-anchor="middle" x="1670" y="-99.8" font-family="Times,serif" font-size="14.00" fill="#000000">ContactPersonComponent</text>
</g>
<!-- ContactPersonComponent&#45;&gt;SharedModule -->
<g id="edge2" class="edge">
<title>ContactPersonComponent&#45;&gt;SharedModule</title>
<path fill="none" stroke="#000000" d="M1670,-122.1061C1670,-141.3391 1670,-169 1670,-169 1670,-169 957.4665,-169 957.4665,-169"/>
<polygon fill="#000000" stroke="#000000" points="957.4665,-165.5001 947.4665,-169 957.4664,-172.5001 957.4665,-165.5001"/>
</g>
<!-- EditContactComponent -->
<g id="node3" class="node">
<title>EditContactComponent</title>
<polygon fill="#ffffb3" stroke="#000000" points="1570.2134,-122 1421.7866,-122 1421.7866,-86 1570.2134,-86 1570.2134,-122"/>
<text text-anchor="middle" x="1496" y="-99.8" font-family="Times,serif" font-size="14.00" fill="#000000">EditContactComponent</text>
</g>
<!-- EditContactComponent&#45;&gt;SharedModule -->
<g id="edge3" class="edge">
<title>EditContactComponent&#45;&gt;SharedModule</title>
<path fill="none" stroke="#000000" d="M1496,-122.302C1496,-140.2699 1496,-165 1496,-165 1496,-165 957.4456,-165 957.4456,-165"/>
<polygon fill="#000000" stroke="#000000" points="957.4456,-161.5001 947.4456,-165 957.4456,-168.5001 957.4456,-161.5001"/>
</g>
<!-- EditPitchContactDialogComponent -->
<g id="node4" class="node">
<title>EditPitchContactDialogComponent</title>
<polygon fill="#ffffb3" stroke="#000000" points="1403.594,-122 1188.406,-122 1188.406,-86 1403.594,-86 1403.594,-122"/>
<text text-anchor="middle" x="1296" y="-99.8" font-family="Times,serif" font-size="14.00" fill="#000000">EditPitchContactDialogComponent</text>
</g>
<!-- EditPitchContactDialogComponent&#45;&gt;SharedModule -->
<g id="edge4" class="edge">
<title>EditPitchContactDialogComponent&#45;&gt;SharedModule</title>
<path fill="none" stroke="#000000" d="M1250.347,-122.027C1250.347,-138.3976 1250.347,-160 1250.347,-160 1250.347,-160 957.3633,-160 957.3633,-160"/>
<polygon fill="#000000" stroke="#000000" points="957.3634,-156.5001 947.3633,-160 957.3633,-163.5001 957.3634,-156.5001"/>
</g>
<!-- EditmatchPitchComponent -->
<g id="node5" class="node">
<title>EditmatchPitchComponent</title>
<polygon fill="#ffffb3" stroke="#000000" points="1170.6554,-122 1003.3446,-122 1003.3446,-86 1170.6554,-86 1170.6554,-122"/>
<text text-anchor="middle" x="1087" y="-99.8" font-family="Times,serif" font-size="14.00" fill="#000000">EditmatchPitchComponent</text>
</g>
<!-- EditmatchPitchComponent&#45;&gt;SharedModule -->
<g id="edge5" class="edge">
<title>EditmatchPitchComponent&#45;&gt;SharedModule</title>
<path fill="none" stroke="#000000" d="M1065.5146,-122.1871C1065.5146,-137.1824 1065.5146,-156 1065.5146,-156 1065.5146,-156 957.3539,-156 957.3539,-156"/>
<polygon fill="#000000" stroke="#000000" points="957.3539,-152.5001 947.3539,-156 957.3538,-159.5001 957.3539,-152.5001"/>
</g>
<!-- EditmatchResultComponent -->
<g id="node6" class="node">
<title>EditmatchResultComponent</title>
<polygon fill="#ffffb3" stroke="#000000" points="985.1539,-122 810.8461,-122 810.8461,-86 985.1539,-86 985.1539,-122"/>
<text text-anchor="middle" x="898" y="-99.8" font-family="Times,serif" font-size="14.00" fill="#000000">EditmatchResultComponent</text>
</g>
<!-- EditmatchResultComponent&#45;&gt;SharedModule -->
<g id="edge6" class="edge">
<title>EditmatchResultComponent&#45;&gt;SharedModule</title>
<path fill="none" stroke="#000000" d="M898,-122.1061C898,-122.1061 898,-140.991 898,-140.991"/>
<polygon fill="#000000" stroke="#000000" points="894.5001,-140.9909 898,-150.991 901.5001,-140.991 894.5001,-140.9909"/>
</g>
<!-- EditmatchTimeComponent -->
<g id="node7" class="node">
<title>EditmatchTimeComponent</title>
<polygon fill="#ffffb3" stroke="#000000" points="792.4255,-122 623.5745,-122 623.5745,-86 792.4255,-86 792.4255,-122"/>
<text text-anchor="middle" x="708" y="-99.8" font-family="Times,serif" font-size="14.00" fill="#000000">EditmatchTimeComponent</text>
</g>
<!-- EditmatchTimeComponent&#45;&gt;SharedModule -->
<g id="edge7" class="edge">
<title>EditmatchTimeComponent&#45;&gt;SharedModule</title>
<path fill="none" stroke="#000000" d="M750.4886,-122.1871C750.4886,-137.1824 750.4886,-156 750.4886,-156 750.4886,-156 838.4705,-156 838.4705,-156"/>
<polygon fill="#000000" stroke="#000000" points="838.4705,-159.5001 848.4705,-156 838.4704,-152.5001 838.4705,-159.5001"/>
</g>
<!-- MatchComponent -->
<g id="node8" class="node">
<title>MatchComponent</title>
<polygon fill="#ffffb3" stroke="#000000" points="605.5968,-122 488.4032,-122 488.4032,-86 605.5968,-86 605.5968,-122"/>
<text text-anchor="middle" x="547" y="-99.8" font-family="Times,serif" font-size="14.00" fill="#000000">MatchComponent</text>
</g>
<!-- MatchComponent&#45;&gt;SharedModule -->
<g id="edge8" class="edge">
<title>MatchComponent&#45;&gt;SharedModule</title>
<path fill="none" stroke="#000000" d="M564.2684,-122.027C564.2684,-138.3976 564.2684,-160 564.2684,-160 564.2684,-160 838.7568,-160 838.7568,-160"/>
<polygon fill="#000000" stroke="#000000" points="838.7568,-163.5001 848.7568,-160 838.7567,-156.5001 838.7568,-163.5001"/>
</g>
<!-- SeasonchooserComponent -->
<g id="node9" class="node">
<title>SeasonchooserComponent</title>
<polygon fill="#ffffb3" stroke="#000000" points="470.0239,-122 305.9761,-122 305.9761,-86 470.0239,-86 470.0239,-122"/>
<text text-anchor="middle" x="388" y="-99.8" font-family="Times,serif" font-size="14.00" fill="#000000">SeasonchooserComponent</text>
</g>
<!-- SeasonchooserComponent&#45;&gt;SharedModule -->
<g id="edge9" class="edge">
<title>SeasonchooserComponent&#45;&gt;SharedModule</title>
<path fill="none" stroke="#000000" d="M388,-122.302C388,-140.2699 388,-165 388,-165 388,-165 838.6357,-165 838.6357,-165"/>
<polygon fill="#000000" stroke="#000000" points="838.6357,-168.5001 848.6357,-165 838.6356,-161.5001 838.6357,-168.5001"/>
</g>
<!-- SnackbarComponent -->
<g id="node10" class="node">
<title>SnackbarComponent</title>
<polygon fill="#ffffb3" stroke="#000000" points="287.9201,-122 154.0799,-122 154.0799,-86 287.9201,-86 287.9201,-122"/>
<text text-anchor="middle" x="221" y="-99.8" font-family="Times,serif" font-size="14.00" fill="#000000">SnackbarComponent</text>
</g>
<!-- SnackbarComponent&#45;&gt;SharedModule -->
<g id="edge10" class="edge">
<title>SnackbarComponent&#45;&gt;SharedModule</title>
<path fill="none" stroke="#000000" d="M221,-122.1061C221,-141.3391 221,-169 221,-169 221,-169 838.7665,-169 838.7665,-169"/>
<polygon fill="#000000" stroke="#000000" points="838.7665,-172.5001 848.7665,-169 838.7665,-165.5001 838.7665,-172.5001"/>
</g>
<!-- ContactPersonComponent  -->
<g id="node13" class="node">
<title>ContactPersonComponent </title>
<polygon fill="#fb8072" stroke="#000000" points="1312.4825,-252 1145.5175,-252 1145.5175,-216 1312.4825,-216 1312.4825,-252"/>
<text text-anchor="middle" x="1229" y="-229.8" font-family="Times,serif" font-size="14.00" fill="#000000">ContactPersonComponent </text>
</g>
<!-- SharedModule&#45;&gt;ContactPersonComponent  -->
<g id="edge12" class="edge">
<title>SharedModule&#45;&gt;ContactPersonComponent </title>
<path fill="none" stroke="#000000" stroke-dasharray="5,2" d="M947.2652,-178C1022.7269,-178 1158.2933,-178 1158.2933,-178 1158.2933,-178 1158.2933,-205.973 1158.2933,-205.973"/>
<polygon fill="#000000" stroke="#000000" points="1154.7934,-205.973 1158.2933,-215.973 1161.7934,-205.973 1154.7934,-205.973"/>
</g>
<!-- EditContactComponent  -->
<g id="node14" class="node">
<title>EditContactComponent </title>
<polygon fill="#fb8072" stroke="#000000" points="1127.7135,-252 976.2865,-252 976.2865,-216 1127.7135,-216 1127.7135,-252"/>
<text text-anchor="middle" x="1052" y="-229.8" font-family="Times,serif" font-size="14.00" fill="#000000">EditContactComponent </text>
</g>
<!-- SharedModule&#45;&gt;EditContactComponent  -->
<g id="edge13" class="edge">
<title>SharedModule&#45;&gt;EditContactComponent </title>
<path fill="none" stroke="#000000" stroke-dasharray="5,2" d="M947.5603,-183C965.1806,-183 980.7351,-183 980.7351,-183 980.7351,-183 980.7351,-205.8757 980.7351,-205.8757"/>
<polygon fill="#000000" stroke="#000000" points="977.2352,-205.8757 980.7351,-215.8757 984.2352,-205.8757 977.2352,-205.8757"/>
</g>
<!-- MatchComponent  -->
<g id="node15" class="node">
<title>MatchComponent </title>
<polygon fill="#fb8072" stroke="#000000" points="958.0975,-252 837.9025,-252 837.9025,-216 958.0975,-216 958.0975,-252"/>
<text text-anchor="middle" x="898" y="-229.8" font-family="Times,serif" font-size="14.00" fill="#000000">MatchComponent </text>
</g>
<!-- SharedModule&#45;&gt;MatchComponent  -->
<g id="edge14" class="edge">
<title>SharedModule&#45;&gt;MatchComponent </title>
<path fill="none" stroke="#000000" stroke-dasharray="5,2" d="M898,-187.1061C898,-187.1061 898,-205.991 898,-205.991"/>
<polygon fill="#000000" stroke="#000000" points="894.5001,-205.9909 898,-215.991 901.5001,-205.991 894.5001,-205.9909"/>
</g>
<!-- MaterialModule  -->
<g id="node16" class="node">
<title>MaterialModule </title>
<polygon fill="#fb8072" stroke="#000000" points="819.4716,-252 708.5284,-252 708.5284,-216 819.4716,-216 819.4716,-252"/>
<text text-anchor="middle" x="764" y="-229.8" font-family="Times,serif" font-size="14.00" fill="#000000">MaterialModule </text>
</g>
<!-- SharedModule&#45;&gt;MaterialModule  -->
<g id="edge15" class="edge">
<title>SharedModule&#45;&gt;MaterialModule </title>
<path fill="none" stroke="#000000" stroke-dasharray="5,2" d="M848.7321,-183C830.8497,-183 814.9543,-183 814.9543,-183 814.9543,-183 814.9543,-205.8757 814.9543,-205.8757"/>
<polygon fill="#000000" stroke="#000000" points="811.4543,-205.8757 814.9543,-215.8757 818.4543,-205.8757 811.4543,-205.8757"/>
</g>
<!-- SeasonchooserComponent  -->
<g id="node17" class="node">
<title>SeasonchooserComponent </title>
<polygon fill="#fb8072" stroke="#000000" points="691.0232,-252 522.9768,-252 522.9768,-216 691.0232,-216 691.0232,-252"/>
<text text-anchor="middle" x="607" y="-229.8" font-family="Times,serif" font-size="14.00" fill="#000000">SeasonchooserComponent </text>
</g>
<!-- SharedModule&#45;&gt;SeasonchooserComponent  -->
<g id="edge16" class="edge">
<title>SharedModule&#45;&gt;SeasonchooserComponent </title>
<path fill="none" stroke="#000000" stroke-dasharray="5,2" d="M848.7303,-178C778.3395,-178 657.3996,-178 657.3996,-178 657.3996,-178 657.3996,-205.973 657.3996,-205.973"/>
<polygon fill="#000000" stroke="#000000" points="653.8996,-205.973 657.3996,-215.973 660.8996,-205.973 653.8996,-205.973"/>
</g>
<!-- MaterialModule -->
<g id="node12" class="node">
<title>MaterialModule</title>
<polygon fill="#8dd3c7" stroke="#000000" points="130.4706,-122 127.4706,-126 106.4706,-126 103.4706,-122 23.5294,-122 23.5294,-86 130.4706,-86 130.4706,-122"/>
<text text-anchor="middle" x="77" y="-99.8" font-family="Times,serif" font-size="14.00" fill="#000000">MaterialModule</text>
</g>
<!-- MaterialModule&#45;&gt;SharedModule -->
<g id="edge11" class="edge">
<title>MaterialModule&#45;&gt;SharedModule</title>
<path fill="none" stroke="#000000" d="M77,-122.0267C77,-142.7672 77,-174 77,-174 77,-174 838.4917,-174 838.4917,-174"/>
<polygon fill="#000000" stroke="#000000" points="838.4917,-177.5001 848.4917,-174 838.4916,-170.5001 838.4917,-177.5001"/>
</g>
</g>
</svg>
