<?xml version="1.0" encoding="UTF-8" standalone="no"?>
<!DOCTYPE svg PUBLIC "-//W3C//DTD SVG 1.1//EN"
 "http://www.w3.org/Graphics/SVG/1.1/DTD/svg11.dtd">
<!-- Generated by graphviz version 2.40.1 (20161225.0304)
 -->
<!-- Title: dependencies Pages: 1 -->
<svg width="2128pt" height="284pt"
 viewBox="0.00 0.00 2128.00 284.00" xmlns="http://www.w3.org/2000/svg" xmlns:xlink="http://www.w3.org/1999/xlink">
<g id="graph0" class="graph" transform="scale(1 1) rotate(0) translate(4 280)">
<title>dependencies</title>
<polygon fill="#ffffff" stroke="transparent" points="-4,4 -4,-280 2124,-280 2124,4 -4,4"/>
<text text-anchor="start" x="1039.0091" y="-42.4" font-family="sans-serif" font-weight="bold" font-size="14.00" fill="#000000">Legend</text>
<polygon fill="#ffffb3" stroke="transparent" points="826,-10 826,-30 846,-30 846,-10 826,-10"/>
<text text-anchor="start" x="849.629" y="-15.4" font-family="sans-serif" font-size="14.00" fill="#000000"> &#160;Declarations</text>
<polygon fill="#8dd3c7" stroke="transparent" points="939,-10 939,-30 959,-30 959,-10 939,-10"/>
<text text-anchor="start" x="962.7251" y="-15.4" font-family="sans-serif" font-size="14.00" fill="#000000"> &#160;Module</text>
<polygon fill="#80b1d3" stroke="transparent" points="1025,-10 1025,-30 1045,-30 1045,-10 1025,-10"/>
<text text-anchor="start" x="1048.7812" y="-15.4" font-family="sans-serif" font-size="14.00" fill="#000000"> &#160;Bootstrap</text>
<polygon fill="#fdb462" stroke="transparent" points="1122,-10 1122,-30 1142,-30 1142,-10 1122,-10"/>
<text text-anchor="start" x="1145.6732" y="-15.4" font-family="sans-serif" font-size="14.00" fill="#000000"> &#160;Providers</text>
<polygon fill="#fb8072" stroke="transparent" points="1218,-10 1218,-30 1238,-30 1238,-10 1218,-10"/>
<text text-anchor="start" x="1241.7258" y="-15.4" font-family="sans-serif" font-size="14.00" fill="#000000"> &#160;Exports</text>
<g id="clust1" class="cluster">
<title>cluster_SharedModule</title>
<polygon fill="none" stroke="#000000" stroke-dasharray="1,5" points="8,-70 8,-268 2112,-268 2112,-70 8,-70"/>
</g>
<g id="clust2" class="cluster">
<title>cluster_SharedModule_declarations</title>
<polygon fill="none" stroke="#000000" points="146,-78 146,-130 2104,-130 2104,-78 146,-78"/>
</g>
<g id="clust14" class="cluster">
<title>cluster_SharedModule_imports</title>
<polygon fill="none" stroke="#000000" points="16,-78 16,-130 138,-130 138,-78 16,-78"/>
</g>
<g id="clust15" class="cluster">
<title>cluster_SharedModule_exports</title>
<polygon fill="none" stroke="#000000" points="609,-208 609,-260 1414,-260 1414,-208 609,-208"/>
</g>
<!-- ContactComponent -->
<g id="node1" class="node">
<title>ContactComponent</title>
<polygon fill="#ffffb3" stroke="#000000" points="2096.3795,-122 1971.6205,-122 1971.6205,-86 2096.3795,-86 2096.3795,-122"/>
<text text-anchor="middle" x="2034" y="-99.8" font-family="Times,serif" font-size="14.00" fill="#000000">ContactComponent</text>
</g>
<!-- SharedModule -->
<g id="node12" class="node">
<title>SharedModule</title>
<polygon fill="#8dd3c7" stroke="#000000" points="1041.4231,-187 1038.4231,-191 1017.4231,-191 1014.4231,-187 942.5769,-187 942.5769,-151 1041.4231,-151 1041.4231,-187"/>
<text text-anchor="middle" x="992" y="-164.8" font-family="Times,serif" font-size="14.00" fill="#000000">SharedModule</text>
</g>
<!-- ContactComponent&#45;&gt;SharedModule -->
<g id="edge1" class="edge">
<title>ContactComponent&#45;&gt;SharedModule</title>
<path fill="none" stroke="#000000" d="M2034,-122.0267C2034,-142.7672 2034,-174 2034,-174 2034,-174 1051.5568,-174 1051.5568,-174"/>
<polygon fill="#000000" stroke="#000000" points="1051.5569,-170.5001 1041.5568,-174 1051.5568,-177.5001 1051.5569,-170.5001"/>
</g>
<!-- ContactPersonComponent -->
<g id="node2" class="node">
<title>ContactPersonComponent</title>
<polygon fill="#ffffb3" stroke="#000000" points="1953.4818,-122 1790.5182,-122 1790.5182,-86 1953.4818,-86 1953.4818,-122"/>
<text text-anchor="middle" x="1872" y="-99.8" font-family="Times,serif" font-size="14.00" fill="#000000">ContactPersonComponent</text>
</g>
<!-- ContactPersonComponent&#45;&gt;SharedModule -->
<g id="edge2" class="edge">
<title>ContactPersonComponent&#45;&gt;SharedModule</title>
<path fill="none" stroke="#000000" d="M1872,-122.1061C1872,-141.3391 1872,-169 1872,-169 1872,-169 1051.5157,-169 1051.5157,-169"/>
<polygon fill="#000000" stroke="#000000" points="1051.5157,-165.5001 1041.5157,-169 1051.5156,-172.5001 1051.5157,-165.5001"/>
</g>
<!-- CreatePitchDialogComponent -->
<g id="node3" class="node">
<title>CreatePitchDialogComponent</title>
<polygon fill="#ffffb3" stroke="#000000" points="1772.245,-122 1587.755,-122 1587.755,-86 1772.245,-86 1772.245,-122"/>
<text text-anchor="middle" x="1680" y="-99.8" font-family="Times,serif" font-size="14.00" fill="#000000">CreatePitchDialogComponent</text>
</g>
<!-- CreatePitchDialogComponent&#45;&gt;SharedModule -->
<g id="edge3" class="edge">
<title>CreatePitchDialogComponent&#45;&gt;SharedModule</title>
<path fill="none" stroke="#000000" d="M1680,-122.302C1680,-140.2699 1680,-165 1680,-165 1680,-165 1051.4793,-165 1051.4793,-165"/>
<polygon fill="#000000" stroke="#000000" points="1051.4793,-161.5001 1041.4793,-165 1051.4792,-168.5001 1051.4793,-161.5001"/>
</g>
<!-- EditContactComponent -->
<g id="node4" class="node">
<title>EditContactComponent</title>
<polygon fill="#ffffb3" stroke="#000000" points="1570.2134,-122 1421.7866,-122 1421.7866,-86 1570.2134,-86 1570.2134,-122"/>
<text text-anchor="middle" x="1496" y="-99.8" font-family="Times,serif" font-size="14.00" fill="#000000">EditContactComponent</text>
</g>
<!-- EditContactComponent&#45;&gt;SharedModule -->
<g id="edge4" class="edge">
<title>EditContactComponent&#45;&gt;SharedModule</title>
<path fill="none" stroke="#000000" d="M1496,-122.027C1496,-138.3976 1496,-160 1496,-160 1496,-160 1051.2433,-160 1051.2433,-160"/>
<polygon fill="#000000" stroke="#000000" points="1051.2433,-156.5001 1041.2433,-160 1051.2433,-163.5001 1051.2433,-156.5001"/>
</g>
<!-- EditPitchContactDialogComponent -->
<g id="node5" class="node">
<title>EditPitchContactDialogComponent</title>
<polygon fill="#ffffb3" stroke="#000000" points="1403.594,-122 1188.406,-122 1188.406,-86 1403.594,-86 1403.594,-122"/>
<text text-anchor="middle" x="1296" y="-99.8" font-family="Times,serif" font-size="14.00" fill="#000000">EditPitchContactDialogComponent</text>
</g>
<!-- EditPitchContactDialogComponent&#45;&gt;SharedModule -->
<g id="edge5" class="edge">
<title>EditPitchContactDialogComponent&#45;&gt;SharedModule</title>
<path fill="none" stroke="#000000" d="M1205.1548,-122.1871C1205.1548,-137.1824 1205.1548,-156 1205.1548,-156 1205.1548,-156 1051.4378,-156 1051.4378,-156"/>
<polygon fill="#000000" stroke="#000000" points="1051.4378,-152.5001 1041.4378,-156 1051.4377,-159.5001 1051.4378,-152.5001"/>
</g>
<!-- EditmatchPitchComponent -->
<g id="node6" class="node">
<title>EditmatchPitchComponent</title>
<polygon fill="#ffffb3" stroke="#000000" points="1170.6554,-122 1003.3446,-122 1003.3446,-86 1170.6554,-86 1170.6554,-122"/>
<text text-anchor="middle" x="1087" y="-99.8" font-family="Times,serif" font-size="14.00" fill="#000000">EditmatchPitchComponent</text>
</g>
<!-- EditmatchPitchComponent&#45;&gt;SharedModule -->
<g id="edge6" class="edge">
<title>EditmatchPitchComponent&#45;&gt;SharedModule</title>
<path fill="none" stroke="#000000" d="M1022.1918,-122.1061C1022.1918,-122.1061 1022.1918,-140.991 1022.1918,-140.991"/>
<polygon fill="#000000" stroke="#000000" points="1018.6919,-140.9909 1022.1918,-150.991 1025.6919,-140.991 1018.6919,-140.9909"/>
</g>
<!-- EditmatchResultComponent -->
<g id="node7" class="node">
<title>EditmatchResultComponent</title>
<polygon fill="#ffffb3" stroke="#000000" points="985.1539,-122 810.8461,-122 810.8461,-86 985.1539,-86 985.1539,-122"/>
<text text-anchor="middle" x="898" y="-99.8" font-family="Times,serif" font-size="14.00" fill="#000000">EditmatchResultComponent</text>
</g>
<!-- EditmatchResultComponent&#45;&gt;SharedModule -->
<g id="edge7" class="edge">
<title>EditmatchResultComponent&#45;&gt;SharedModule</title>
<path fill="none" stroke="#000000" d="M964.0579,-122.1061C964.0579,-122.1061 964.0579,-140.991 964.0579,-140.991"/>
<polygon fill="#000000" stroke="#000000" points="960.5579,-140.9909 964.0579,-150.991 967.5579,-140.991 960.5579,-140.9909"/>
</g>
<!-- EditmatchTimeComponent -->
<g id="node8" class="node">
<title>EditmatchTimeComponent</title>
<polygon fill="#ffffb3" stroke="#000000" points="792.4255,-122 623.5745,-122 623.5745,-86 792.4255,-86 792.4255,-122"/>
<text text-anchor="middle" x="708" y="-99.8" font-family="Times,serif" font-size="14.00" fill="#000000">EditmatchTimeComponent</text>
</g>
<!-- EditmatchTimeComponent&#45;&gt;SharedModule -->
<g id="edge8" class="edge">
<title>EditmatchTimeComponent&#45;&gt;SharedModule</title>
<path fill="none" stroke="#000000" d="M788.6121,-122.1871C788.6121,-137.1824 788.6121,-156 788.6121,-156 788.6121,-156 932.7655,-156 932.7655,-156"/>
<polygon fill="#000000" stroke="#000000" points="932.7655,-159.5001 942.7655,-156 932.7654,-152.5001 932.7655,-159.5001"/>
</g>
<!-- MatchComponent -->
<g id="node9" class="node">
<title>MatchComponent</title>
<polygon fill="#ffffb3" stroke="#000000" points="605.5968,-122 488.4032,-122 488.4032,-86 605.5968,-86 605.5968,-122"/>
<text text-anchor="middle" x="547" y="-99.8" font-family="Times,serif" font-size="14.00" fill="#000000">MatchComponent</text>
</g>
<!-- MatchComponent&#45;&gt;SharedModule -->
<g id="edge9" class="edge">
<title>MatchComponent&#45;&gt;SharedModule</title>
<path fill="none" stroke="#000000" d="M547,-122.027C547,-138.3976 547,-160 547,-160 547,-160 932.677,-160 932.677,-160"/>
<polygon fill="#000000" stroke="#000000" points="932.677,-163.5001 942.677,-160 932.6769,-156.5001 932.677,-163.5001"/>
</g>
<!-- SeasonchooserComponent -->
<g id="node10" class="node">
<title>SeasonchooserComponent</title>
<polygon fill="#ffffb3" stroke="#000000" points="470.0239,-122 305.9761,-122 305.9761,-86 470.0239,-86 470.0239,-122"/>
<text text-anchor="middle" x="388" y="-99.8" font-family="Times,serif" font-size="14.00" fill="#000000">SeasonchooserComponent</text>
</g>
<!-- SeasonchooserComponent&#45;&gt;SharedModule -->
<g id="edge10" class="edge">
<title>SeasonchooserComponent&#45;&gt;SharedModule</title>
<path fill="none" stroke="#000000" d="M388,-122.302C388,-140.2699 388,-165 388,-165 388,-165 932.5721,-165 932.5721,-165"/>
<polygon fill="#000000" stroke="#000000" points="932.5722,-168.5001 942.5721,-165 932.5721,-161.5001 932.5722,-168.5001"/>
</g>
<!-- SnackbarComponent -->
<g id="node11" class="node">
<title>SnackbarComponent</title>
<polygon fill="#ffffb3" stroke="#000000" points="287.9201,-122 154.0799,-122 154.0799,-86 287.9201,-86 287.9201,-122"/>
<text text-anchor="middle" x="221" y="-99.8" font-family="Times,serif" font-size="14.00" fill="#000000">SnackbarComponent</text>
</g>
<!-- SnackbarComponent&#45;&gt;SharedModule -->
<g id="edge11" class="edge">
<title>SnackbarComponent&#45;&gt;SharedModule</title>
<path fill="none" stroke="#000000" d="M221,-122.1061C221,-141.3391 221,-169 221,-169 221,-169 932.5976,-169 932.5976,-169"/>
<polygon fill="#000000" stroke="#000000" points="932.5977,-172.5001 942.5976,-169 932.5976,-165.5001 932.5977,-172.5001"/>
</g>
<!-- ContactPersonComponent  -->
<g id="node14" class="node">
<title>ContactPersonComponent </title>
<polygon fill="#fb8072" stroke="#000000" points="1406.4825,-252 1239.5175,-252 1239.5175,-216 1406.4825,-216 1406.4825,-252"/>
<text text-anchor="middle" x="1323" y="-229.8" font-family="Times,serif" font-size="14.00" fill="#000000">ContactPersonComponent </text>
</g>
<!-- SharedModule&#45;&gt;ContactPersonComponent  -->
<g id="edge13" class="edge">
<title>SharedModule&#45;&gt;ContactPersonComponent </title>
<path fill="none" stroke="#000000" stroke-dasharray="5,2" d="M1041.3524,-178C1133.3146,-178 1321.653,-178 1321.653,-178 1321.653,-178 1321.653,-205.973 1321.653,-205.973"/>
<polygon fill="#000000" stroke="#000000" points="1318.1531,-205.973 1321.653,-215.973 1325.1531,-205.973 1318.1531,-205.973"/>
</g>
<!-- EditContactComponent  -->
<g id="node15" class="node">
<title>EditContactComponent </title>
<polygon fill="#fb8072" stroke="#000000" points="1221.7135,-252 1070.2865,-252 1070.2865,-216 1221.7135,-216 1221.7135,-252"/>
<text text-anchor="middle" x="1146" y="-229.8" font-family="Times,serif" font-size="14.00" fill="#000000">EditContactComponent </text>
</g>
<!-- SharedModule&#45;&gt;EditContactComponent  -->
<g id="edge14" class="edge">
<title>SharedModule&#45;&gt;EditContactComponent </title>
<path fill="none" stroke="#000000" stroke-dasharray="5,2" d="M1041.3084,-183C1077.5419,-183 1120.4855,-183 1120.4855,-183 1120.4855,-183 1120.4855,-205.8757 1120.4855,-205.8757"/>
<polygon fill="#000000" stroke="#000000" points="1116.9855,-205.8757 1120.4855,-215.8757 1123.9855,-205.8757 1116.9855,-205.8757"/>
</g>
<!-- MatchComponent  -->
<g id="node16" class="node">
<title>MatchComponent </title>
<polygon fill="#fb8072" stroke="#000000" points="1052.0975,-252 931.9025,-252 931.9025,-216 1052.0975,-216 1052.0975,-252"/>
<text text-anchor="middle" x="992" y="-229.8" font-family="Times,serif" font-size="14.00" fill="#000000">MatchComponent </text>
</g>
<!-- SharedModule&#45;&gt;MatchComponent  -->
<g id="edge15" class="edge">
<title>SharedModule&#45;&gt;MatchComponent </title>
<path fill="none" stroke="#000000" stroke-dasharray="5,2" d="M992,-187.1061C992,-187.1061 992,-205.991 992,-205.991"/>
<polygon fill="#000000" stroke="#000000" points="988.5001,-205.9909 992,-215.991 995.5001,-205.991 988.5001,-205.9909"/>
</g>
<!-- MaterialModule  -->
<g id="node17" class="node">
<title>MaterialModule </title>
<polygon fill="#fb8072" stroke="#000000" points="913.4716,-252 802.5284,-252 802.5284,-216 913.4716,-216 913.4716,-252"/>
<text text-anchor="middle" x="858" y="-229.8" font-family="Times,serif" font-size="14.00" fill="#000000">MaterialModule </text>
</g>
<!-- SharedModule&#45;&gt;MaterialModule  -->
<g id="edge16" class="edge">
<title>SharedModule&#45;&gt;MaterialModule </title>
<path fill="none" stroke="#000000" stroke-dasharray="5,2" d="M942.4643,-183C905.7134,-183 861.9543,-183 861.9543,-183 861.9543,-183 861.9543,-205.8757 861.9543,-205.8757"/>
<polygon fill="#000000" stroke="#000000" points="858.4543,-205.8757 861.9543,-215.8757 865.4543,-205.8757 858.4543,-205.8757"/>
</g>
<!-- SeasonchooserComponent  -->
<g id="node18" class="node">
<title>SeasonchooserComponent </title>
<polygon fill="#fb8072" stroke="#000000" points="785.0232,-252 616.9768,-252 616.9768,-216 785.0232,-216 785.0232,-252"/>
<text text-anchor="middle" x="701" y="-229.8" font-family="Times,serif" font-size="14.00" fill="#000000">SeasonchooserComponent </text>
</g>
<!-- SharedModule&#45;&gt;SeasonchooserComponent  -->
<g id="edge17" class="edge">
<title>SharedModule&#45;&gt;SeasonchooserComponent </title>
<path fill="none" stroke="#000000" stroke-dasharray="5,2" d="M942.5597,-178C860.3305,-178 704.3996,-178 704.3996,-178 704.3996,-178 704.3996,-205.973 704.3996,-205.973"/>
<polygon fill="#000000" stroke="#000000" points="700.8996,-205.973 704.3996,-215.973 707.8996,-205.973 700.8996,-205.973"/>
</g>
<!-- MaterialModule -->
<g id="node13" class="node">
<title>MaterialModule</title>
<polygon fill="#8dd3c7" stroke="#000000" points="130.4706,-122 127.4706,-126 106.4706,-126 103.4706,-122 23.5294,-122 23.5294,-86 130.4706,-86 130.4706,-122"/>
<text text-anchor="middle" x="77" y="-99.8" font-family="Times,serif" font-size="14.00" fill="#000000">MaterialModule</text>
</g>
<!-- MaterialModule&#45;&gt;SharedModule -->
<g id="edge12" class="edge">
<title>MaterialModule&#45;&gt;SharedModule</title>
<path fill="none" stroke="#000000" d="M77,-122.0267C77,-142.7672 77,-174 77,-174 77,-174 932.4812,-174 932.4812,-174"/>
<polygon fill="#000000" stroke="#000000" points="932.4812,-177.5001 942.4812,-174 932.4812,-170.5001 932.4812,-177.5001"/>
</g>
</g>
</svg>
