<?xml version="1.0" encoding="UTF-8" standalone="no"?>
<!DOCTYPE svg PUBLIC "-//W3C//DTD SVG 1.1//EN"
 "http://www.w3.org/Graphics/SVG/1.1/DTD/svg11.dtd">
<!-- Generated by graphviz version 2.40.1 (20161225.0304)
 -->
<!-- Title: dependencies Pages: 1 -->
<svg width="2340pt" height="284pt"
 viewBox="0.00 0.00 2340.00 284.00" xmlns="http://www.w3.org/2000/svg" xmlns:xlink="http://www.w3.org/1999/xlink">
<g id="graph0" class="graph" transform="scale(1 1) rotate(0) translate(4 280)">
<title>dependencies</title>
<polygon fill="#ffffff" stroke="transparent" points="-4,4 -4,-280 2336,-280 2336,4 -4,4"/>
<text text-anchor="start" x="1145.0091" y="-42.4" font-family="sans-serif" font-weight="bold" font-size="14.00" fill="#000000">Legend</text>
<polygon fill="#ffffb3" stroke="transparent" points="932,-10 932,-30 952,-30 952,-10 932,-10"/>
<text text-anchor="start" x="955.629" y="-15.4" font-family="sans-serif" font-size="14.00" fill="#000000"> &#160;Declarations</text>
<polygon fill="#8dd3c7" stroke="transparent" points="1045,-10 1045,-30 1065,-30 1065,-10 1045,-10"/>
<text text-anchor="start" x="1068.7251" y="-15.4" font-family="sans-serif" font-size="14.00" fill="#000000"> &#160;Module</text>
<polygon fill="#80b1d3" stroke="transparent" points="1131,-10 1131,-30 1151,-30 1151,-10 1131,-10"/>
<text text-anchor="start" x="1154.7812" y="-15.4" font-family="sans-serif" font-size="14.00" fill="#000000"> &#160;Bootstrap</text>
<polygon fill="#fdb462" stroke="transparent" points="1228,-10 1228,-30 1248,-30 1248,-10 1228,-10"/>
<text text-anchor="start" x="1251.6732" y="-15.4" font-family="sans-serif" font-size="14.00" fill="#000000"> &#160;Providers</text>
<polygon fill="#fb8072" stroke="transparent" points="1324,-10 1324,-30 1344,-30 1344,-10 1324,-10"/>
<text text-anchor="start" x="1347.7258" y="-15.4" font-family="sans-serif" font-size="14.00" fill="#000000"> &#160;Exports</text>
<g id="clust1" class="cluster">
<title>cluster_SharedModule</title>
<polygon fill="none" stroke="#000000" stroke-dasharray="1,5" points="8,-70 8,-268 2324,-268 2324,-70 8,-70"/>
</g>
<g id="clust2" class="cluster">
<title>cluster_SharedModule_declarations</title>
<polygon fill="none" stroke="#000000" points="146,-78 146,-130 2316,-130 2316,-78 146,-78"/>
</g>
<g id="clust15" class="cluster">
<title>cluster_SharedModule_imports</title>
<polygon fill="none" stroke="#000000" points="16,-78 16,-130 138,-130 138,-78 16,-78"/>
</g>
<g id="clust16" class="cluster">
<title>cluster_SharedModule_exports</title>
<polygon fill="none" stroke="#000000" points="627,-208 627,-260 1648,-260 1648,-208 627,-208"/>
</g>
<!-- CancelMatchDialogComponent -->
<g id="node1" class="node">
<title>CancelMatchDialogComponent</title>
<polygon fill="#ffffb3" stroke="#000000" points="2308.0702,-122 2113.9298,-122 2113.9298,-86 2308.0702,-86 2308.0702,-122"/>
<text text-anchor="middle" x="2211" y="-99.8" font-family="Times,serif" font-size="14.00" fill="#000000">CancelMatchDialogComponent</text>
</g>
<!-- SharedModule -->
<g id="node13" class="node">
<title>SharedModule</title>
<polygon fill="#8dd3c7" stroke="#000000" points="1136.4231,-187 1133.4231,-191 1112.4231,-191 1109.4231,-187 1037.5769,-187 1037.5769,-151 1136.4231,-151 1136.4231,-187"/>
<text text-anchor="middle" x="1087" y="-164.8" font-family="Times,serif" font-size="14.00" fill="#000000">SharedModule</text>
</g>
<!-- CancelMatchDialogComponent&#45;&gt;SharedModule -->
<g id="edge1" class="edge">
<title>CancelMatchDialogComponent&#45;&gt;SharedModule</title>
<path fill="none" stroke="#000000" d="M2211,-122.2843C2211,-143.3211 2211,-175 2211,-175 2211,-175 1146.3828,-175 1146.3828,-175"/>
<polygon fill="#000000" stroke="#000000" points="1146.3828,-171.5001 1136.3828,-175 1146.3828,-178.5001 1146.3828,-171.5001"/>
</g>
<!-- ContactComponent -->
<g id="node2" class="node">
<title>ContactComponent</title>
<polygon fill="#ffffb3" stroke="#000000" points="2096.3795,-122 1971.6205,-122 1971.6205,-86 2096.3795,-86 2096.3795,-122"/>
<text text-anchor="middle" x="2034" y="-99.8" font-family="Times,serif" font-size="14.00" fill="#000000">ContactComponent</text>
</g>
<!-- ContactComponent&#45;&gt;SharedModule -->
<g id="edge2" class="edge">
<title>ContactComponent&#45;&gt;SharedModule</title>
<path fill="none" stroke="#000000" d="M2034,-122.308C2034,-142.1455 2034,-171 2034,-171 2034,-171 1146.2506,-171 1146.2506,-171"/>
<polygon fill="#000000" stroke="#000000" points="1146.2506,-167.5001 1136.2506,-171 1146.2506,-174.5001 1146.2506,-167.5001"/>
</g>
<!-- ContactPersonComponent -->
<g id="node3" class="node">
<title>ContactPersonComponent</title>
<polygon fill="#ffffb3" stroke="#000000" points="1953.4818,-122 1790.5182,-122 1790.5182,-86 1953.4818,-86 1953.4818,-122"/>
<text text-anchor="middle" x="1872" y="-99.8" font-family="Times,serif" font-size="14.00" fill="#000000">ContactPersonComponent</text>
</g>
<!-- ContactPersonComponent&#45;&gt;SharedModule -->
<g id="edge3" class="edge">
<title>ContactPersonComponent&#45;&gt;SharedModule</title>
<path fill="none" stroke="#000000" d="M1872,-122.2222C1872,-140.8285 1872,-167 1872,-167 1872,-167 1146.4026,-167 1146.4026,-167"/>
<polygon fill="#000000" stroke="#000000" points="1146.4027,-163.5001 1136.4026,-167 1146.4026,-170.5001 1146.4027,-163.5001"/>
</g>
<!-- CreatePitchDialogComponent -->
<g id="node4" class="node">
<title>CreatePitchDialogComponent</title>
<polygon fill="#ffffb3" stroke="#000000" points="1772.245,-122 1587.755,-122 1587.755,-86 1772.245,-86 1772.245,-122"/>
<text text-anchor="middle" x="1680" y="-99.8" font-family="Times,serif" font-size="14.00" fill="#000000">CreatePitchDialogComponent</text>
</g>
<!-- CreatePitchDialogComponent&#45;&gt;SharedModule -->
<g id="edge4" class="edge">
<title>CreatePitchDialogComponent&#45;&gt;SharedModule</title>
<path fill="none" stroke="#000000" d="M1613.7064,-122.0225C1613.7064,-139.3734 1613.7064,-163 1613.7064,-163 1613.7064,-163 1146.5513,-163 1146.5513,-163"/>
<polygon fill="#000000" stroke="#000000" points="1146.5513,-159.5001 1136.5513,-163 1146.5512,-166.5001 1146.5513,-159.5001"/>
</g>
<!-- EditContactComponent -->
<g id="node5" class="node">
<title>EditContactComponent</title>
<polygon fill="#ffffb3" stroke="#000000" points="1570.2134,-122 1421.7866,-122 1421.7866,-86 1570.2134,-86 1570.2134,-122"/>
<text text-anchor="middle" x="1496" y="-99.8" font-family="Times,serif" font-size="14.00" fill="#000000">EditContactComponent</text>
</g>
<!-- EditContactComponent&#45;&gt;SharedModule -->
<g id="edge5" class="edge">
<title>EditContactComponent&#45;&gt;SharedModule</title>
<path fill="none" stroke="#000000" d="M1433.2279,-122.0091C1433.2279,-138.0494 1433.2279,-159 1433.2279,-159 1433.2279,-159 1146.2383,-159 1146.2383,-159"/>
<polygon fill="#000000" stroke="#000000" points="1146.2384,-155.5001 1136.2383,-159 1146.2383,-162.5001 1146.2384,-155.5001"/>
</g>
<!-- EditPitchContactDialogComponent -->
<g id="node6" class="node">
<title>EditPitchContactDialogComponent</title>
<polygon fill="#ffffb3" stroke="#000000" points="1403.594,-122 1188.406,-122 1188.406,-86 1403.594,-86 1403.594,-122"/>
<text text-anchor="middle" x="1296" y="-99.8" font-family="Times,serif" font-size="14.00" fill="#000000">EditPitchContactDialogComponent</text>
</g>
<!-- EditPitchContactDialogComponent&#45;&gt;SharedModule -->
<g id="edge6" class="edge">
<title>EditPitchContactDialogComponent&#45;&gt;SharedModule</title>
<path fill="none" stroke="#000000" d="M1214.1548,-122.1243C1214.1548,-136.7832 1214.1548,-155 1214.1548,-155 1214.1548,-155 1146.5255,-155 1146.5255,-155"/>
<polygon fill="#000000" stroke="#000000" points="1146.5255,-151.5001 1136.5255,-155 1146.5254,-158.5001 1146.5255,-151.5001"/>
</g>
<!-- EditmatchPitchComponent -->
<g id="node7" class="node">
<title>EditmatchPitchComponent</title>
<polygon fill="#ffffb3" stroke="#000000" points="1170.6554,-122 1003.3446,-122 1003.3446,-86 1170.6554,-86 1170.6554,-122"/>
<text text-anchor="middle" x="1087" y="-99.8" font-family="Times,serif" font-size="14.00" fill="#000000">EditmatchPitchComponent</text>
</g>
<!-- EditmatchPitchComponent&#45;&gt;SharedModule -->
<g id="edge7" class="edge">
<title>EditmatchPitchComponent&#45;&gt;SharedModule</title>
<path fill="none" stroke="#000000" d="M1087,-122.1061C1087,-122.1061 1087,-140.991 1087,-140.991"/>
<polygon fill="#000000" stroke="#000000" points="1083.5001,-140.9909 1087,-150.991 1090.5001,-140.991 1083.5001,-140.9909"/>
</g>
<!-- EditmatchResultComponent -->
<g id="node8" class="node">
<title>EditmatchResultComponent</title>
<polygon fill="#ffffb3" stroke="#000000" points="985.1539,-122 810.8461,-122 810.8461,-86 985.1539,-86 985.1539,-122"/>
<text text-anchor="middle" x="898" y="-99.8" font-family="Times,serif" font-size="14.00" fill="#000000">EditmatchResultComponent</text>
</g>
<!-- EditmatchResultComponent&#45;&gt;SharedModule -->
<g id="edge8" class="edge">
<title>EditmatchResultComponent&#45;&gt;SharedModule</title>
<path fill="none" stroke="#000000" d="M967.5142,-122.1243C967.5142,-136.7832 967.5142,-155 967.5142,-155 967.5142,-155 1027.7107,-155 1027.7107,-155"/>
<polygon fill="#000000" stroke="#000000" points="1027.7107,-158.5001 1037.7107,-155 1027.7107,-151.5001 1027.7107,-158.5001"/>
</g>
<!-- EditmatchTimeComponent -->
<g id="node9" class="node">
<title>EditmatchTimeComponent</title>
<polygon fill="#ffffb3" stroke="#000000" points="792.4255,-122 623.5745,-122 623.5745,-86 792.4255,-86 792.4255,-122"/>
<text text-anchor="middle" x="708" y="-99.8" font-family="Times,serif" font-size="14.00" fill="#000000">EditmatchTimeComponent</text>
</g>
<!-- EditmatchTimeComponent&#45;&gt;SharedModule -->
<g id="edge9" class="edge">
<title>EditmatchTimeComponent&#45;&gt;SharedModule</title>
<path fill="none" stroke="#000000" d="M713.6004,-122.0091C713.6004,-138.0494 713.6004,-159 713.6004,-159 713.6004,-159 1027.4154,-159 1027.4154,-159"/>
<polygon fill="#000000" stroke="#000000" points="1027.4155,-162.5001 1037.4154,-159 1027.4154,-155.5001 1027.4155,-162.5001"/>
</g>
<!-- MatchComponent -->
<g id="node10" class="node">
<title>MatchComponent</title>
<polygon fill="#ffffb3" stroke="#000000" points="605.5968,-122 488.4032,-122 488.4032,-86 605.5968,-86 605.5968,-122"/>
<text text-anchor="middle" x="547" y="-99.8" font-family="Times,serif" font-size="14.00" fill="#000000">MatchComponent</text>
</g>
<!-- MatchComponent&#45;&gt;SharedModule -->
<g id="edge10" class="edge">
<title>MatchComponent&#45;&gt;SharedModule</title>
<path fill="none" stroke="#000000" d="M547,-122.0225C547,-139.3734 547,-163 547,-163 547,-163 1027.6471,-163 1027.6471,-163"/>
<polygon fill="#000000" stroke="#000000" points="1027.6471,-166.5001 1037.6471,-163 1027.647,-159.5001 1027.6471,-166.5001"/>
</g>
<!-- SeasonchooserComponent -->
<g id="node11" class="node">
<title>SeasonchooserComponent</title>
<polygon fill="#ffffb3" stroke="#000000" points="470.0239,-122 305.9761,-122 305.9761,-86 470.0239,-86 470.0239,-122"/>
<text text-anchor="middle" x="388" y="-99.8" font-family="Times,serif" font-size="14.00" fill="#000000">SeasonchooserComponent</text>
</g>
<!-- SeasonchooserComponent&#45;&gt;SharedModule -->
<g id="edge11" class="edge">
<title>SeasonchooserComponent&#45;&gt;SharedModule</title>
<path fill="none" stroke="#000000" d="M388,-122.2222C388,-140.8285 388,-167 388,-167 388,-167 1027.5692,-167 1027.5692,-167"/>
<polygon fill="#000000" stroke="#000000" points="1027.5692,-170.5001 1037.5692,-167 1027.5691,-163.5001 1027.5692,-170.5001"/>
</g>
<!-- SnackbarComponent -->
<g id="node12" class="node">
<title>SnackbarComponent</title>
<polygon fill="#ffffb3" stroke="#000000" points="287.9201,-122 154.0799,-122 154.0799,-86 287.9201,-86 287.9201,-122"/>
<text text-anchor="middle" x="221" y="-99.8" font-family="Times,serif" font-size="14.00" fill="#000000">SnackbarComponent</text>
</g>
<!-- SnackbarComponent&#45;&gt;SharedModule -->
<g id="edge12" class="edge">
<title>SnackbarComponent&#45;&gt;SharedModule</title>
<path fill="none" stroke="#000000" d="M221,-122.308C221,-142.1455 221,-171 221,-171 221,-171 1027.6447,-171 1027.6447,-171"/>
<polygon fill="#000000" stroke="#000000" points="1027.6447,-174.5001 1037.6447,-171 1027.6447,-167.5001 1027.6447,-174.5001"/>
</g>
<!-- CancelMatchDialogComponent  -->
<g id="node15" class="node">
<title>CancelMatchDialogComponent </title>
<polygon fill="#fb8072" stroke="#000000" points="1639.5707,-252 1442.4293,-252 1442.4293,-216 1639.5707,-216 1639.5707,-252"/>
<text text-anchor="middle" x="1541" y="-229.8" font-family="Times,serif" font-size="14.00" fill="#000000">CancelMatchDialogComponent </text>
</g>
<!-- SharedModule&#45;&gt;CancelMatchDialogComponent  -->
<g id="edge14" class="edge">
<title>SharedModule&#45;&gt;CancelMatchDialogComponent </title>
<path fill="none" stroke="#000000" stroke-dasharray="5,2" d="M1136.3156,-179C1247.1174,-179 1506.1608,-179 1506.1608,-179 1506.1608,-179 1506.1608,-205.9909 1506.1608,-205.9909"/>
<polygon fill="#000000" stroke="#000000" points="1502.6608,-205.9909 1506.1608,-215.9909 1509.6608,-205.991 1502.6608,-205.9909"/>
</g>
<!-- ContactPersonComponent  -->
<g id="node16" class="node">
<title>ContactPersonComponent </title>
<polygon fill="#fb8072" stroke="#000000" points="1424.4825,-252 1257.5175,-252 1257.5175,-216 1424.4825,-216 1424.4825,-252"/>
<text text-anchor="middle" x="1341" y="-229.8" font-family="Times,serif" font-size="14.00" fill="#000000">ContactPersonComponent </text>
</g>
<!-- SharedModule&#45;&gt;ContactPersonComponent  -->
<g id="edge15" class="edge">
<title>SharedModule&#45;&gt;ContactPersonComponent </title>
<path fill="none" stroke="#000000" stroke-dasharray="5,2" d="M1136.3068,-183C1207.503,-183 1330.653,-183 1330.653,-183 1330.653,-183 1330.653,-205.8757 1330.653,-205.8757"/>
<polygon fill="#000000" stroke="#000000" points="1327.1531,-205.8757 1330.653,-215.8757 1334.1531,-205.8757 1327.1531,-205.8757"/>
</g>
<!-- EditContactComponent  -->
<g id="node17" class="node">
<title>EditContactComponent </title>
<polygon fill="#fb8072" stroke="#000000" points="1239.7135,-252 1088.2865,-252 1088.2865,-216 1239.7135,-216 1239.7135,-252"/>
<text text-anchor="middle" x="1164" y="-229.8" font-family="Times,serif" font-size="14.00" fill="#000000">EditContactComponent </text>
</g>
<!-- SharedModule&#45;&gt;EditContactComponent  -->
<g id="edge16" class="edge">
<title>SharedModule&#45;&gt;EditContactComponent </title>
<path fill="none" stroke="#000000" stroke-dasharray="5,2" d="M1112.1773,-187.1061C1112.1773,-187.1061 1112.1773,-205.991 1112.1773,-205.991"/>
<polygon fill="#000000" stroke="#000000" points="1108.6773,-205.9909 1112.1773,-215.991 1115.6773,-205.991 1108.6773,-205.9909"/>
</g>
<!-- MatchComponent  -->
<g id="node18" class="node">
<title>MatchComponent </title>
<polygon fill="#fb8072" stroke="#000000" points="1070.0975,-252 949.9025,-252 949.9025,-216 1070.0975,-216 1070.0975,-252"/>
<text text-anchor="middle" x="1010" y="-229.8" font-family="Times,serif" font-size="14.00" fill="#000000">MatchComponent </text>
</g>
<!-- SharedModule&#45;&gt;MatchComponent  -->
<g id="edge17" class="edge">
<title>SharedModule&#45;&gt;MatchComponent </title>
<path fill="none" stroke="#000000" stroke-dasharray="5,2" d="M1054.0437,-187.1061C1054.0437,-187.1061 1054.0437,-205.991 1054.0437,-205.991"/>
<polygon fill="#000000" stroke="#000000" points="1050.5437,-205.9909 1054.0437,-215.991 1057.5437,-205.991 1050.5437,-205.9909"/>
</g>
<!-- MaterialModule  -->
<g id="node19" class="node">
<title>MaterialModule </title>
<polygon fill="#fb8072" stroke="#000000" points="931.4716,-252 820.5284,-252 820.5284,-216 931.4716,-216 931.4716,-252"/>
<text text-anchor="middle" x="876" y="-229.8" font-family="Times,serif" font-size="14.00" fill="#000000">MaterialModule </text>
</g>
<!-- SharedModule&#45;&gt;MaterialModule  -->
<g id="edge18" class="edge">
<title>SharedModule&#45;&gt;MaterialModule </title>
<path fill="none" stroke="#000000" stroke-dasharray="5,2" d="M1037.5299,-183C975.1646,-183 876,-183 876,-183 876,-183 876,-205.8757 876,-205.8757"/>
<polygon fill="#000000" stroke="#000000" points="872.5001,-205.8757 876,-215.8757 879.5001,-205.8757 872.5001,-205.8757"/>
</g>
<!-- SeasonchooserComponent  -->
<g id="node20" class="node">
<title>SeasonchooserComponent </title>
<polygon fill="#fb8072" stroke="#000000" points="803.0232,-252 634.9768,-252 634.9768,-216 803.0232,-216 803.0232,-252"/>
<text text-anchor="middle" x="719" y="-229.8" font-family="Times,serif" font-size="14.00" fill="#000000">SeasonchooserComponent </text>
</g>
<!-- SharedModule&#45;&gt;SeasonchooserComponent  -->
<g id="edge19" class="edge">
<title>SharedModule&#45;&gt;SeasonchooserComponent </title>
<path fill="none" stroke="#000000" stroke-dasharray="5,2" d="M1037.5813,-179C954.9286,-179 797.6121,-179 797.6121,-179 797.6121,-179 797.6121,-205.9909 797.6121,-205.9909"/>
<polygon fill="#000000" stroke="#000000" points="794.1121,-205.9909 797.6121,-215.9909 801.1121,-205.991 794.1121,-205.9909"/>
</g>
<!-- MaterialModule -->
<g id="node14" class="node">
<title>MaterialModule</title>
<polygon fill="#8dd3c7" stroke="#000000" points="130.4706,-122 127.4706,-126 106.4706,-126 103.4706,-122 23.5294,-122 23.5294,-86 130.4706,-86 130.4706,-122"/>
<text text-anchor="middle" x="77" y="-99.8" font-family="Times,serif" font-size="14.00" fill="#000000">MaterialModule</text>
</g>
<!-- MaterialModule&#45;&gt;SharedModule -->
<g id="edge13" class="edge">
<title>MaterialModule&#45;&gt;SharedModule</title>
<path fill="none" stroke="#000000" d="M77,-122.2843C77,-143.3211 77,-175 77,-175 77,-175 1027.6019,-175 1027.6019,-175"/>
<polygon fill="#000000" stroke="#000000" points="1027.6019,-178.5001 1037.6019,-175 1027.6019,-171.5001 1027.6019,-178.5001"/>
</g>
</g>
</svg>
