<?xml version="1.0" encoding="UTF-8" standalone="no"?>
<!DOCTYPE svg PUBLIC "-//W3C//DTD SVG 1.1//EN"
 "http://www.w3.org/Graphics/SVG/1.1/DTD/svg11.dtd">
<!-- Generated by graphviz version 2.40.1 (20161225.0304)
 -->
<!-- Title: dependencies Pages: 1 -->
<svg width="2525pt" height="284pt"
 viewBox="0.00 0.00 2525.00 284.00" xmlns="http://www.w3.org/2000/svg" xmlns:xlink="http://www.w3.org/1999/xlink">
<g id="graph0" class="graph" transform="scale(1 1) rotate(0) translate(4 280)">
<title>dependencies</title>
<polygon fill="#ffffff" stroke="transparent" points="-4,4 -4,-280 2521,-280 2521,4 -4,4"/>
<text text-anchor="start" x="1237.5091" y="-42.4" font-family="sans-serif" font-weight="bold" font-size="14.00" fill="#000000">Legend</text>
<polygon fill="#ffffb3" stroke="transparent" points="1024.5,-10 1024.5,-30 1044.5,-30 1044.5,-10 1024.5,-10"/>
<text text-anchor="start" x="1048.129" y="-15.4" font-family="sans-serif" font-size="14.00" fill="#000000"> &#160;Declarations</text>
<polygon fill="#8dd3c7" stroke="transparent" points="1137.5,-10 1137.5,-30 1157.5,-30 1157.5,-10 1137.5,-10"/>
<text text-anchor="start" x="1161.2251" y="-15.4" font-family="sans-serif" font-size="14.00" fill="#000000"> &#160;Module</text>
<polygon fill="#80b1d3" stroke="transparent" points="1223.5,-10 1223.5,-30 1243.5,-30 1243.5,-10 1223.5,-10"/>
<text text-anchor="start" x="1247.2812" y="-15.4" font-family="sans-serif" font-size="14.00" fill="#000000"> &#160;Bootstrap</text>
<polygon fill="#fdb462" stroke="transparent" points="1320.5,-10 1320.5,-30 1340.5,-30 1340.5,-10 1320.5,-10"/>
<text text-anchor="start" x="1344.1732" y="-15.4" font-family="sans-serif" font-size="14.00" fill="#000000"> &#160;Providers</text>
<polygon fill="#fb8072" stroke="transparent" points="1416.5,-10 1416.5,-30 1436.5,-30 1436.5,-10 1416.5,-10"/>
<text text-anchor="start" x="1440.2258" y="-15.4" font-family="sans-serif" font-size="14.00" fill="#000000"> &#160;Exports</text>
<g id="clust1" class="cluster">
<title>cluster_SharedModule</title>
<polygon fill="none" stroke="#000000" stroke-dasharray="1,5" points="8,-70 8,-268 2509,-268 2509,-70 8,-70"/>
</g>
<g id="clust2" class="cluster">
<title>cluster_SharedModule_declarations</title>
<polygon fill="none" stroke="#000000" points="146,-78 146,-130 2501,-130 2501,-78 146,-78"/>
</g>
<g id="clust16" class="cluster">
<title>cluster_SharedModule_imports</title>
<polygon fill="none" stroke="#000000" points="16,-78 16,-130 138,-130 138,-78 16,-78"/>
</g>
<g id="clust17" class="cluster">
<title>cluster_SharedModule_exports</title>
<polygon fill="none" stroke="#000000" points="731,-208 731,-260 1752,-260 1752,-208 731,-208"/>
</g>
<!-- CancelMatchDialogComponent -->
<g id="node1" class="node">
<title>CancelMatchDialogComponent</title>
<polygon fill="#ffffb3" stroke="#000000" points="2493.0702,-122 2298.9298,-122 2298.9298,-86 2493.0702,-86 2493.0702,-122"/>
<text text-anchor="middle" x="2396" y="-99.8" font-family="Times,serif" font-size="14.00" fill="#000000">CancelMatchDialogComponent</text>
</g>
<!-- SharedModule -->
<g id="node14" class="node">
<title>SharedModule</title>
<polygon fill="#8dd3c7" stroke="#000000" points="1240.4231,-187 1237.4231,-191 1216.4231,-191 1213.4231,-187 1141.5769,-187 1141.5769,-151 1240.4231,-151 1240.4231,-187"/>
<text text-anchor="middle" x="1191" y="-164.8" font-family="Times,serif" font-size="14.00" fill="#000000">SharedModule</text>
</g>
<!-- CancelMatchDialogComponent&#45;&gt;SharedModule -->
<g id="edge1" class="edge">
<title>CancelMatchDialogComponent&#45;&gt;SharedModule</title>
<path fill="none" stroke="#000000" d="M2396,-122.2843C2396,-143.3211 2396,-175 2396,-175 2396,-175 1250.4839,-175 1250.4839,-175"/>
<polygon fill="#000000" stroke="#000000" points="1250.484,-171.5001 1240.4839,-175 1250.4839,-178.5001 1250.484,-171.5001"/>
</g>
<!-- ConfirmDialogComponent -->
<g id="node2" class="node">
<title>ConfirmDialogComponent</title>
<polygon fill="#ffffb3" stroke="#000000" points="2281.3738,-122 2114.6262,-122 2114.6262,-86 2281.3738,-86 2281.3738,-122"/>
<text text-anchor="middle" x="2198" y="-99.8" font-family="Times,serif" font-size="14.00" fill="#000000">ConfirmDialogComponent</text>
</g>
<!-- ConfirmDialogComponent&#45;&gt;SharedModule -->
<g id="edge2" class="edge">
<title>ConfirmDialogComponent&#45;&gt;SharedModule</title>
<path fill="none" stroke="#000000" d="M2198,-122.308C2198,-142.1455 2198,-171 2198,-171 2198,-171 1250.2514,-171 1250.2514,-171"/>
<polygon fill="#000000" stroke="#000000" points="1250.2514,-167.5001 1240.2514,-171 1250.2513,-174.5001 1250.2514,-167.5001"/>
</g>
<!-- ContactComponent -->
<g id="node3" class="node">
<title>ContactComponent</title>
<polygon fill="#ffffb3" stroke="#000000" points="2096.3795,-122 1971.6205,-122 1971.6205,-86 2096.3795,-86 2096.3795,-122"/>
<text text-anchor="middle" x="2034" y="-99.8" font-family="Times,serif" font-size="14.00" fill="#000000">ContactComponent</text>
</g>
<!-- ContactComponent&#45;&gt;SharedModule -->
<g id="edge3" class="edge">
<title>ContactComponent&#45;&gt;SharedModule</title>
<path fill="none" stroke="#000000" d="M2034,-122.2222C2034,-140.8285 2034,-167 2034,-167 2034,-167 1250.2762,-167 1250.2762,-167"/>
<polygon fill="#000000" stroke="#000000" points="1250.2762,-163.5001 1240.2762,-167 1250.2762,-170.5001 1250.2762,-163.5001"/>
</g>
<!-- ContactPersonComponent -->
<g id="node4" class="node">
<title>ContactPersonComponent</title>
<polygon fill="#ffffb3" stroke="#000000" points="1953.4818,-122 1790.5182,-122 1790.5182,-86 1953.4818,-86 1953.4818,-122"/>
<text text-anchor="middle" x="1872" y="-99.8" font-family="Times,serif" font-size="14.00" fill="#000000">ContactPersonComponent</text>
</g>
<!-- ContactPersonComponent&#45;&gt;SharedModule -->
<g id="edge4" class="edge">
<title>ContactPersonComponent&#45;&gt;SharedModule</title>
<path fill="none" stroke="#000000" d="M1872,-122.0225C1872,-139.3734 1872,-163 1872,-163 1872,-163 1250.2498,-163 1250.2498,-163"/>
<polygon fill="#000000" stroke="#000000" points="1250.2498,-159.5001 1240.2498,-163 1250.2498,-166.5001 1250.2498,-159.5001"/>
</g>
<!-- CreatePitchDialogComponent -->
<g id="node5" class="node">
<title>CreatePitchDialogComponent</title>
<polygon fill="#ffffb3" stroke="#000000" points="1772.245,-122 1587.755,-122 1587.755,-86 1772.245,-86 1772.245,-122"/>
<text text-anchor="middle" x="1680" y="-99.8" font-family="Times,serif" font-size="14.00" fill="#000000">CreatePitchDialogComponent</text>
</g>
<!-- CreatePitchDialogComponent&#45;&gt;SharedModule -->
<g id="edge5" class="edge">
<title>CreatePitchDialogComponent&#45;&gt;SharedModule</title>
<path fill="none" stroke="#000000" d="M1665.7064,-122.0091C1665.7064,-138.0494 1665.7064,-159 1665.7064,-159 1665.7064,-159 1250.4585,-159 1250.4585,-159"/>
<polygon fill="#000000" stroke="#000000" points="1250.4585,-155.5001 1240.4585,-159 1250.4585,-162.5001 1250.4585,-155.5001"/>
</g>
<!-- EditContactComponent -->
<g id="node6" class="node">
<title>EditContactComponent</title>
<polygon fill="#ffffb3" stroke="#000000" points="1570.2134,-122 1421.7866,-122 1421.7866,-86 1570.2134,-86 1570.2134,-122"/>
<text text-anchor="middle" x="1496" y="-99.8" font-family="Times,serif" font-size="14.00" fill="#000000">EditContactComponent</text>
</g>
<!-- EditContactComponent&#45;&gt;SharedModule -->
<g id="edge6" class="edge">
<title>EditContactComponent&#45;&gt;SharedModule</title>
<path fill="none" stroke="#000000" d="M1475.0671,-122.1243C1475.0671,-136.7832 1475.0671,-155 1475.0671,-155 1475.0671,-155 1250.4807,-155 1250.4807,-155"/>
<polygon fill="#000000" stroke="#000000" points="1250.4808,-151.5001 1240.4807,-155 1250.4807,-158.5001 1250.4808,-151.5001"/>
</g>
<!-- EditPitchContactDialogComponent -->
<g id="node7" class="node">
<title>EditPitchContactDialogComponent</title>
<polygon fill="#ffffb3" stroke="#000000" points="1403.594,-122 1188.406,-122 1188.406,-86 1403.594,-86 1403.594,-122"/>
<text text-anchor="middle" x="1296" y="-99.8" font-family="Times,serif" font-size="14.00" fill="#000000">EditPitchContactDialogComponent</text>
</g>
<!-- EditPitchContactDialogComponent&#45;&gt;SharedModule -->
<g id="edge7" class="edge">
<title>EditPitchContactDialogComponent&#45;&gt;SharedModule</title>
<path fill="none" stroke="#000000" d="M1214.3321,-122.1061C1214.3321,-122.1061 1214.3321,-140.991 1214.3321,-140.991"/>
<polygon fill="#000000" stroke="#000000" points="1210.8321,-140.9909 1214.3321,-150.991 1217.8321,-140.991 1210.8321,-140.9909"/>
</g>
<!-- EditmatchPitchComponent -->
<g id="node8" class="node">
<title>EditmatchPitchComponent</title>
<polygon fill="#ffffb3" stroke="#000000" points="1170.6554,-122 1003.3446,-122 1003.3446,-86 1170.6554,-86 1170.6554,-122"/>
<text text-anchor="middle" x="1087" y="-99.8" font-family="Times,serif" font-size="14.00" fill="#000000">EditmatchPitchComponent</text>
</g>
<!-- EditmatchPitchComponent&#45;&gt;SharedModule -->
<g id="edge8" class="edge">
<title>EditmatchPitchComponent&#45;&gt;SharedModule</title>
<path fill="none" stroke="#000000" d="M1156.3082,-122.1061C1156.3082,-122.1061 1156.3082,-140.991 1156.3082,-140.991"/>
<polygon fill="#000000" stroke="#000000" points="1152.8083,-140.9909 1156.3082,-150.991 1159.8083,-140.991 1152.8083,-140.9909"/>
</g>
<!-- EditmatchResultComponent -->
<g id="node9" class="node">
<title>EditmatchResultComponent</title>
<polygon fill="#ffffb3" stroke="#000000" points="985.1539,-122 810.8461,-122 810.8461,-86 985.1539,-86 985.1539,-122"/>
<text text-anchor="middle" x="898" y="-99.8" font-family="Times,serif" font-size="14.00" fill="#000000">EditmatchResultComponent</text>
</g>
<!-- EditmatchResultComponent&#45;&gt;SharedModule -->
<g id="edge9" class="edge">
<title>EditmatchResultComponent&#45;&gt;SharedModule</title>
<path fill="none" stroke="#000000" d="M955.0458,-122.1243C955.0458,-136.7832 955.0458,-155 955.0458,-155 955.0458,-155 1131.5363,-155 1131.5363,-155"/>
<polygon fill="#000000" stroke="#000000" points="1131.5363,-158.5001 1141.5363,-155 1131.5362,-151.5001 1131.5363,-158.5001"/>
</g>
<!-- EditmatchTimeComponent -->
<g id="node10" class="node">
<title>EditmatchTimeComponent</title>
<polygon fill="#ffffb3" stroke="#000000" points="792.4255,-122 623.5745,-122 623.5745,-86 792.4255,-86 792.4255,-122"/>
<text text-anchor="middle" x="708" y="-99.8" font-family="Times,serif" font-size="14.00" fill="#000000">EditmatchTimeComponent</text>
</g>
<!-- EditmatchTimeComponent&#45;&gt;SharedModule -->
<g id="edge10" class="edge">
<title>EditmatchTimeComponent&#45;&gt;SharedModule</title>
<path fill="none" stroke="#000000" d="M765.6004,-122.0091C765.6004,-138.0494 765.6004,-159 765.6004,-159 765.6004,-159 1131.7857,-159 1131.7857,-159"/>
<polygon fill="#000000" stroke="#000000" points="1131.7857,-162.5001 1141.7857,-159 1131.7857,-155.5001 1131.7857,-162.5001"/>
</g>
<!-- MatchComponent -->
<g id="node11" class="node">
<title>MatchComponent</title>
<polygon fill="#ffffb3" stroke="#000000" points="605.5968,-122 488.4032,-122 488.4032,-86 605.5968,-86 605.5968,-122"/>
<text text-anchor="middle" x="547" y="-99.8" font-family="Times,serif" font-size="14.00" fill="#000000">MatchComponent</text>
</g>
<!-- MatchComponent&#45;&gt;SharedModule -->
<g id="edge11" class="edge">
<title>MatchComponent&#45;&gt;SharedModule</title>
<path fill="none" stroke="#000000" d="M547,-122.0225C547,-139.3734 547,-163 547,-163 547,-163 1131.5357,-163 1131.5357,-163"/>
<polygon fill="#000000" stroke="#000000" points="1131.5358,-166.5001 1141.5357,-163 1131.5357,-159.5001 1131.5358,-166.5001"/>
</g>
<!-- SeasonchooserComponent -->
<g id="node12" class="node">
<title>SeasonchooserComponent</title>
<polygon fill="#ffffb3" stroke="#000000" points="470.0239,-122 305.9761,-122 305.9761,-86 470.0239,-86 470.0239,-122"/>
<text text-anchor="middle" x="388" y="-99.8" font-family="Times,serif" font-size="14.00" fill="#000000">SeasonchooserComponent</text>
</g>
<!-- SeasonchooserComponent&#45;&gt;SharedModule -->
<g id="edge12" class="edge">
<title>SeasonchooserComponent&#45;&gt;SharedModule</title>
<path fill="none" stroke="#000000" d="M388,-122.2222C388,-140.8285 388,-167 388,-167 388,-167 1131.6765,-167 1131.6765,-167"/>
<polygon fill="#000000" stroke="#000000" points="1131.6766,-170.5001 1141.6765,-167 1131.6765,-163.5001 1131.6766,-170.5001"/>
</g>
<!-- SnackbarComponent -->
<g id="node13" class="node">
<title>SnackbarComponent</title>
<polygon fill="#ffffb3" stroke="#000000" points="287.9201,-122 154.0799,-122 154.0799,-86 287.9201,-86 287.9201,-122"/>
<text text-anchor="middle" x="221" y="-99.8" font-family="Times,serif" font-size="14.00" fill="#000000">SnackbarComponent</text>
</g>
<!-- SnackbarComponent&#45;&gt;SharedModule -->
<g id="edge13" class="edge">
<title>SnackbarComponent&#45;&gt;SharedModule</title>
<path fill="none" stroke="#000000" d="M221,-122.308C221,-142.1455 221,-171 221,-171 221,-171 1131.564,-171 1131.564,-171"/>
<polygon fill="#000000" stroke="#000000" points="1131.564,-174.5001 1141.564,-171 1131.564,-167.5001 1131.564,-174.5001"/>
</g>
<!-- CancelMatchDialogComponent  -->
<g id="node16" class="node">
<title>CancelMatchDialogComponent </title>
<polygon fill="#fb8072" stroke="#000000" points="1743.5707,-252 1546.4293,-252 1546.4293,-216 1743.5707,-216 1743.5707,-252"/>
<text text-anchor="middle" x="1645" y="-229.8" font-family="Times,serif" font-size="14.00" fill="#000000">CancelMatchDialogComponent </text>
</g>
<!-- SharedModule&#45;&gt;CancelMatchDialogComponent  -->
<g id="edge15" class="edge">
<title>SharedModule&#45;&gt;CancelMatchDialogComponent </title>
<path fill="none" stroke="#000000" stroke-dasharray="5,2" d="M1240.5169,-179C1340.7361,-179 1558.1608,-179 1558.1608,-179 1558.1608,-179 1558.1608,-205.9909 1558.1608,-205.9909"/>
<polygon fill="#000000" stroke="#000000" points="1554.6608,-205.9909 1558.1608,-215.9909 1561.6608,-205.991 1554.6608,-205.9909"/>
</g>
<!-- ContactPersonComponent  -->
<g id="node17" class="node">
<title>ContactPersonComponent </title>
<polygon fill="#fb8072" stroke="#000000" points="1528.4825,-252 1361.5175,-252 1361.5175,-216 1528.4825,-216 1528.4825,-252"/>
<text text-anchor="middle" x="1445" y="-229.8" font-family="Times,serif" font-size="14.00" fill="#000000">ContactPersonComponent </text>
</g>
<!-- SharedModule&#45;&gt;ContactPersonComponent  -->
<g id="edge16" class="edge">
<title>SharedModule&#45;&gt;ContactPersonComponent </title>
<path fill="none" stroke="#000000" stroke-dasharray="5,2" d="M1240.3554,-183C1297.1409,-183 1382.653,-183 1382.653,-183 1382.653,-183 1382.653,-205.8757 1382.653,-205.8757"/>
<polygon fill="#000000" stroke="#000000" points="1379.1531,-205.8757 1382.653,-215.8757 1386.1531,-205.8757 1379.1531,-205.8757"/>
</g>
<!-- EditContactComponent  -->
<g id="node18" class="node">
<title>EditContactComponent </title>
<polygon fill="#fb8072" stroke="#000000" points="1343.7135,-252 1192.2865,-252 1192.2865,-216 1343.7135,-216 1343.7135,-252"/>
<text text-anchor="middle" x="1268" y="-229.8" font-family="Times,serif" font-size="14.00" fill="#000000">EditContactComponent </text>
</g>
<!-- SharedModule&#45;&gt;EditContactComponent  -->
<g id="edge17" class="edge">
<title>SharedModule&#45;&gt;EditContactComponent </title>
<path fill="none" stroke="#000000" stroke-dasharray="5,2" d="M1216.1773,-187.1061C1216.1773,-187.1061 1216.1773,-205.991 1216.1773,-205.991"/>
<polygon fill="#000000" stroke="#000000" points="1212.6773,-205.9909 1216.1773,-215.991 1219.6773,-205.991 1212.6773,-205.9909"/>
</g>
<!-- MatchComponent  -->
<g id="node19" class="node">
<title>MatchComponent </title>
<polygon fill="#fb8072" stroke="#000000" points="1174.0975,-252 1053.9025,-252 1053.9025,-216 1174.0975,-216 1174.0975,-252"/>
<text text-anchor="middle" x="1114" y="-229.8" font-family="Times,serif" font-size="14.00" fill="#000000">MatchComponent </text>
</g>
<!-- SharedModule&#45;&gt;MatchComponent  -->
<g id="edge18" class="edge">
<title>SharedModule&#45;&gt;MatchComponent </title>
<path fill="none" stroke="#000000" stroke-dasharray="5,2" d="M1158.0437,-187.1061C1158.0437,-187.1061 1158.0437,-205.991 1158.0437,-205.991"/>
<polygon fill="#000000" stroke="#000000" points="1154.5437,-205.9909 1158.0437,-215.991 1161.5437,-205.991 1154.5437,-205.9909"/>
</g>
<!-- MaterialModule  -->
<g id="node20" class="node">
<title>MaterialModule </title>
<polygon fill="#fb8072" stroke="#000000" points="1035.4716,-252 924.5284,-252 924.5284,-216 1035.4716,-216 1035.4716,-252"/>
<text text-anchor="middle" x="980" y="-229.8" font-family="Times,serif" font-size="14.00" fill="#000000">MaterialModule </text>
</g>
<!-- SharedModule&#45;&gt;MaterialModule  -->
<g id="edge19" class="edge">
<title>SharedModule&#45;&gt;MaterialModule </title>
<path fill="none" stroke="#000000" stroke-dasharray="5,2" d="M1141.7701,-183C1091.0047,-183 1019.2039,-183 1019.2039,-183 1019.2039,-183 1019.2039,-205.8757 1019.2039,-205.8757"/>
<polygon fill="#000000" stroke="#000000" points="1015.704,-205.8757 1019.2039,-215.8757 1022.704,-205.8757 1015.704,-205.8757"/>
</g>
<!-- SeasonchooserComponent  -->
<g id="node21" class="node">
<title>SeasonchooserComponent </title>
<polygon fill="#fb8072" stroke="#000000" points="907.0232,-252 738.9768,-252 738.9768,-216 907.0232,-216 907.0232,-252"/>
<text text-anchor="middle" x="823" y="-229.8" font-family="Times,serif" font-size="14.00" fill="#000000">SeasonchooserComponent </text>
</g>
<!-- SharedModule&#45;&gt;SeasonchooserComponent  -->
<g id="edge20" class="edge">
<title>SharedModule&#45;&gt;SeasonchooserComponent </title>
<path fill="none" stroke="#000000" stroke-dasharray="5,2" d="M1141.6313,-179C1049.1025,-179 858.8424,-179 858.8424,-179 858.8424,-179 858.8424,-205.9909 858.8424,-205.9909"/>
<polygon fill="#000000" stroke="#000000" points="855.3425,-205.9909 858.8424,-215.9909 862.3425,-205.991 855.3425,-205.9909"/>
</g>
<!-- MaterialModule -->
<g id="node15" class="node">
<title>MaterialModule</title>
<polygon fill="#8dd3c7" stroke="#000000" points="130.4706,-122 127.4706,-126 106.4706,-126 103.4706,-122 23.5294,-122 23.5294,-86 130.4706,-86 130.4706,-122"/>
<text text-anchor="middle" x="77" y="-99.8" font-family="Times,serif" font-size="14.00" fill="#000000">MaterialModule</text>
</g>
<!-- MaterialModule&#45;&gt;SharedModule -->
<g id="edge14" class="edge">
<title>MaterialModule&#45;&gt;SharedModule</title>
<path fill="none" stroke="#000000" d="M77,-122.2843C77,-143.3211 77,-175 77,-175 77,-175 1131.6954,-175 1131.6954,-175"/>
<polygon fill="#000000" stroke="#000000" points="1131.6954,-178.5001 1141.6954,-175 1131.6954,-171.5001 1131.6954,-178.5001"/>
</g>
</g>
</svg>
