<?xml version="1.0" encoding="UTF-8" standalone="no"?>
<!DOCTYPE svg PUBLIC "-//W3C//DTD SVG 1.1//EN"
 "http://www.w3.org/Graphics/SVG/1.1/DTD/svg11.dtd">
<!-- Generated by graphviz version 2.40.1 (20161225.0304)
 -->
<!-- Title: dependencies Pages: 1 -->
<svg width="504pt" height="211pt"
 viewBox="0.00 0.00 504.00 211.00" xmlns="http://www.w3.org/2000/svg" xmlns:xlink="http://www.w3.org/1999/xlink">
<g id="graph0" class="graph" transform="scale(1 1) rotate(0) translate(4 207)">
<title>dependencies</title>
<polygon fill="#ffffff" stroke="transparent" points="-4,4 -4,-207 500,-207 500,4 -4,4"/>
<text text-anchor="start" x="227.0091" y="-42.4" font-family="sans-serif" font-weight="bold" font-size="14.00" fill="#000000">Legend</text>
<polygon fill="#ffffb3" stroke="transparent" points="14,-10 14,-30 34,-30 34,-10 14,-10"/>
<text text-anchor="start" x="37.629" y="-15.4" font-family="sans-serif" font-size="14.00" fill="#000000"> &#160;Declarations</text>
<polygon fill="#8dd3c7" stroke="transparent" points="127,-10 127,-30 147,-30 147,-10 127,-10"/>
<text text-anchor="start" x="150.7251" y="-15.4" font-family="sans-serif" font-size="14.00" fill="#000000"> &#160;Module</text>
<polygon fill="#80b1d3" stroke="transparent" points="213,-10 213,-30 233,-30 233,-10 213,-10"/>
<text text-anchor="start" x="236.7812" y="-15.4" font-family="sans-serif" font-size="14.00" fill="#000000"> &#160;Bootstrap</text>
<polygon fill="#fdb462" stroke="transparent" points="310,-10 310,-30 330,-30 330,-10 310,-10"/>
<text text-anchor="start" x="333.6732" y="-15.4" font-family="sans-serif" font-size="14.00" fill="#000000"> &#160;Providers</text>
<polygon fill="#fb8072" stroke="transparent" points="406,-10 406,-30 426,-30 426,-10 406,-10"/>
<text text-anchor="start" x="429.7258" y="-15.4" font-family="sans-serif" font-size="14.00" fill="#000000"> &#160;Exports</text>
<g id="clust1" class="cluster">
<title>cluster_GraphQLModule</title>
<polygon fill="none" stroke="#000000" stroke-dasharray="1,5" points="31,-70 31,-195 465,-195 465,-70 31,-70"/>
</g>
<g id="clust6" class="cluster">
<title>cluster_GraphQLModule_providers</title>
<polygon fill="none" stroke="#000000" points="39,-78 39,-130 457,-130 457,-78 39,-78"/>
</g>
<!-- GraphqlService -->
<g id="node1" class="node">
<title>GraphqlService</title>
<ellipse fill="#fdb462" stroke="#000000" cx="377" cy="-104" rx="71.7679" ry="18"/>
<text text-anchor="middle" x="377" y="-99.8" font-family="Times,serif" font-size="14.00" fill="#000000">GraphqlService</text>
</g>
<!-- GraphQLModule -->
<g id="node3" class="node">
<title>GraphQLModule</title>
<polygon fill="#8dd3c7" stroke="#000000" points="328.691,-187 325.691,-191 304.691,-191 301.691,-187 215.309,-187 215.309,-151 328.691,-151 328.691,-187"/>
<text text-anchor="middle" x="272" y="-164.8" font-family="Times,serif" font-size="14.00" fill="#000000">GraphQLModule</text>
</g>
<!-- GraphqlService&#45;&gt;GraphQLModule -->
<g id="edge1" class="edge">
<title>GraphqlService&#45;&gt;GraphQLModule</title>
<path fill="none" stroke="#000000" d="M316.9808,-113.8721C316.9808,-113.8721 316.9808,-140.9074 316.9808,-140.9074"/>
<polygon fill="#000000" stroke="#000000" points="313.4809,-140.9073 316.9808,-150.9074 320.4809,-140.9074 313.4809,-140.9073"/>
</g>
<!-- GraphqlSubscriptionService -->
<g id="node2" class="node">
<title>GraphqlSubscriptionService</title>
<ellipse fill="#fdb462" stroke="#000000" cx="167" cy="-104" rx="120.4052" ry="18"/>
<text text-anchor="middle" x="167" y="-99.8" font-family="Times,serif" font-size="14.00" fill="#000000">GraphqlSubscriptionService</text>
</g>
<!-- GraphqlSubscriptionService&#45;&gt;GraphQLModule -->
<g id="edge2" class="edge">
<title>GraphqlSubscriptionService&#45;&gt;GraphQLModule</title>
<path fill="none" stroke="#000000" d="M251.4286,-116.8419C251.4286,-116.8419 251.4286,-140.5231 251.4286,-140.5231"/>
<polygon fill="#000000" stroke="#000000" points="247.9287,-140.523 251.4286,-150.5231 254.9287,-140.5231 247.9287,-140.523"/>
</g>
</g>
</svg>
