<?xml version="1.0" encoding="UTF-8" standalone="no"?>
<!DOCTYPE svg PUBLIC "-//W3C//DTD SVG 1.1//EN"
 "http://www.w3.org/Graphics/SVG/1.1/DTD/svg11.dtd">
<!-- Generated by graphviz version 2.40.1 (20161225.0304)
 -->
<!-- Title: dependencies Pages: 1 -->
<svg width="631pt" height="211pt"
 viewBox="0.00 0.00 631.00 211.00" xmlns="http://www.w3.org/2000/svg" xmlns:xlink="http://www.w3.org/1999/xlink">
<g id="graph0" class="graph" transform="scale(1 1) rotate(0) translate(4 207)">
<title>dependencies</title>
<polygon fill="#ffffff" stroke="transparent" points="-4,4 -4,-207 627,-207 627,4 -4,4"/>
<text text-anchor="start" x="290.5091" y="-42.4" font-family="sans-serif" font-weight="bold" font-size="14.00" fill="#000000">Legend</text>
<polygon fill="#ffffb3" stroke="transparent" points="77.5,-10 77.5,-30 97.5,-30 97.5,-10 77.5,-10"/>
<text text-anchor="start" x="101.129" y="-15.4" font-family="sans-serif" font-size="14.00" fill="#000000"> &#160;Declarations</text>
<polygon fill="#8dd3c7" stroke="transparent" points="190.5,-10 190.5,-30 210.5,-30 210.5,-10 190.5,-10"/>
<text text-anchor="start" x="214.2251" y="-15.4" font-family="sans-serif" font-size="14.00" fill="#000000"> &#160;Module</text>
<polygon fill="#80b1d3" stroke="transparent" points="276.5,-10 276.5,-30 296.5,-30 296.5,-10 276.5,-10"/>
<text text-anchor="start" x="300.2812" y="-15.4" font-family="sans-serif" font-size="14.00" fill="#000000"> &#160;Bootstrap</text>
<polygon fill="#fdb462" stroke="transparent" points="373.5,-10 373.5,-30 393.5,-30 393.5,-10 373.5,-10"/>
<text text-anchor="start" x="397.1732" y="-15.4" font-family="sans-serif" font-size="14.00" fill="#000000"> &#160;Providers</text>
<polygon fill="#fb8072" stroke="transparent" points="469.5,-10 469.5,-30 489.5,-30 489.5,-10 469.5,-10"/>
<text text-anchor="start" x="493.2258" y="-15.4" font-family="sans-serif" font-size="14.00" fill="#000000"> &#160;Exports</text>
<g id="clust1" class="cluster">
<title>cluster_MatchplanModule</title>
<polygon fill="none" stroke="#000000" stroke-dasharray="1,5" points="8,-70 8,-195 615,-195 615,-70 8,-70"/>
</g>
<g id="clust2" class="cluster">
<title>cluster_MatchplanModule_declarations</title>
<polygon fill="none" stroke="#000000" points="449,-78 449,-130 607,-130 607,-78 449,-78"/>
</g>
<g id="clust4" class="cluster">
<title>cluster_MatchplanModule_imports</title>
<polygon fill="none" stroke="#000000" points="16,-78 16,-130 441,-130 441,-78 16,-78"/>
</g>
<!-- MatchplanComponent -->
<g id="node1" class="node">
<title>MatchplanComponent</title>
<polygon fill="#ffffb3" stroke="#000000" points="598.7021,-122 457.2979,-122 457.2979,-86 598.7021,-86 598.7021,-122"/>
<text text-anchor="middle" x="528" y="-99.8" font-family="Times,serif" font-size="14.00" fill="#000000">MatchplanComponent</text>
</g>
<!-- MatchplanModule -->
<g id="node2" class="node">
<title>MatchplanModule</title>
<polygon fill="#8dd3c7" stroke="#000000" points="359.9201,-187 356.9201,-191 335.9201,-191 332.9201,-187 240.0799,-187 240.0799,-151 359.9201,-151 359.9201,-187"/>
<text text-anchor="middle" x="300" y="-164.8" font-family="Times,serif" font-size="14.00" fill="#000000">MatchplanModule</text>
</g>
<!-- MatchplanComponent&#45;&gt;MatchplanModule -->
<g id="edge1" class="edge">
<title>MatchplanComponent&#45;&gt;MatchplanModule</title>
<path fill="none" stroke="#000000" d="M528,-122.1061C528,-141.3391 528,-169 528,-169 528,-169 369.9043,-169 369.9043,-169"/>
<polygon fill="#000000" stroke="#000000" points="369.9044,-165.5001 359.9043,-169 369.9043,-172.5001 369.9044,-165.5001"/>
</g>
<!-- AppCoreModule -->
<g id="node3" class="node">
<title>AppCoreModule</title>
<polygon fill="#8dd3c7" stroke="#000000" points="433.3683,-122 430.3683,-126 409.3683,-126 406.3683,-122 322.6317,-122 322.6317,-86 433.3683,-86 433.3683,-122"/>
<text text-anchor="middle" x="378" y="-99.8" font-family="Times,serif" font-size="14.00" fill="#000000">AppCoreModule</text>
</g>
<!-- AppCoreModule&#45;&gt;MatchplanModule -->
<g id="edge2" class="edge">
<title>AppCoreModule&#45;&gt;MatchplanModule</title>
<path fill="none" stroke="#000000" d="M341.1378,-122.1061C341.1378,-122.1061 341.1378,-140.991 341.1378,-140.991"/>
<polygon fill="#000000" stroke="#000000" points="337.6379,-140.9909 341.1378,-150.991 344.6379,-140.991 337.6379,-140.9909"/>
</g>
<!-- MatchplanRoutingModule -->
<g id="node4" class="node">
<title>MatchplanRoutingModule</title>
<polygon fill="#8dd3c7" stroke="#000000" points="304.0378,-122 301.0378,-126 280.0378,-126 277.0378,-122 139.9622,-122 139.9622,-86 304.0378,-86 304.0378,-122"/>
<text text-anchor="middle" x="222" y="-99.8" font-family="Times,serif" font-size="14.00" fill="#000000">MatchplanRoutingModule</text>
</g>
<!-- MatchplanRoutingModule&#45;&gt;MatchplanModule -->
<g id="edge3" class="edge">
<title>MatchplanRoutingModule&#45;&gt;MatchplanModule</title>
<path fill="none" stroke="#000000" d="M272.2795,-122.1061C272.2795,-122.1061 272.2795,-140.991 272.2795,-140.991"/>
<polygon fill="#000000" stroke="#000000" points="268.7795,-140.9909 272.2795,-150.991 275.7795,-140.991 268.7795,-140.9909"/>
</g>
<!-- SharedModule -->
<g id="node5" class="node">
<title>SharedModule</title>
<polygon fill="#8dd3c7" stroke="#000000" points="122.4231,-122 119.4231,-126 98.4231,-126 95.4231,-122 23.5769,-122 23.5769,-86 122.4231,-86 122.4231,-122"/>
<text text-anchor="middle" x="73" y="-99.8" font-family="Times,serif" font-size="14.00" fill="#000000">SharedModule</text>
</g>
<!-- SharedModule&#45;&gt;MatchplanModule -->
<g id="edge4" class="edge">
<title>SharedModule&#45;&gt;MatchplanModule</title>
<path fill="none" stroke="#000000" d="M73,-122.1061C73,-141.3391 73,-169 73,-169 73,-169 230.0615,-169 230.0615,-169"/>
<polygon fill="#000000" stroke="#000000" points="230.0615,-172.5001 240.0615,-169 230.0615,-165.5001 230.0615,-172.5001"/>
</g>
</g>
</svg>
