<?xml version="1.0" encoding="UTF-8" standalone="no"?>
<!DOCTYPE svg PUBLIC "-//W3C//DTD SVG 1.1//EN"
 "http://www.w3.org/Graphics/SVG/1.1/DTD/svg11.dtd">
<!-- Generated by graphviz version 2.40.1 (20161225.0304)
 -->
<!-- Title: dependencies Pages: 1 -->
<svg width="5153pt" height="295pt"
 viewBox="0.00 0.00 5153.00 295.00" xmlns="http://www.w3.org/2000/svg" xmlns:xlink="http://www.w3.org/1999/xlink">
<g id="graph0" class="graph" transform="scale(1 1) rotate(0) translate(4 291)">
<title>dependencies</title>
<polygon fill="#ffffff" stroke="transparent" points="-4,4 -4,-291 5149,-291 5149,4 -4,4"/>
<text text-anchor="start" x="2551.5091" y="-42.4" font-family="sans-serif" font-weight="bold" font-size="14.00" fill="#000000">Legend</text>
<polygon fill="#ffffb3" stroke="transparent" points="2338.5,-10 2338.5,-30 2358.5,-30 2358.5,-10 2338.5,-10"/>
<text text-anchor="start" x="2362.129" y="-15.4" font-family="sans-serif" font-size="14.00" fill="#000000"> &#160;Declarations</text>
<polygon fill="#8dd3c7" stroke="transparent" points="2451.5,-10 2451.5,-30 2471.5,-30 2471.5,-10 2451.5,-10"/>
<text text-anchor="start" x="2475.2251" y="-15.4" font-family="sans-serif" font-size="14.00" fill="#000000"> &#160;Module</text>
<polygon fill="#80b1d3" stroke="transparent" points="2537.5,-10 2537.5,-30 2557.5,-30 2557.5,-10 2537.5,-10"/>
<text text-anchor="start" x="2561.2812" y="-15.4" font-family="sans-serif" font-size="14.00" fill="#000000"> &#160;Bootstrap</text>
<polygon fill="#fdb462" stroke="transparent" points="2634.5,-10 2634.5,-30 2654.5,-30 2654.5,-10 2634.5,-10"/>
<text text-anchor="start" x="2658.1732" y="-15.4" font-family="sans-serif" font-size="14.00" fill="#000000"> &#160;Providers</text>
<polygon fill="#fb8072" stroke="transparent" points="2730.5,-10 2730.5,-30 2750.5,-30 2750.5,-10 2730.5,-10"/>
<text text-anchor="start" x="2754.2258" y="-15.4" font-family="sans-serif" font-size="14.00" fill="#000000"> &#160;Exports</text>
<g id="clust1" class="cluster">
<title>cluster_AdminModule</title>
<polygon fill="none" stroke="#000000" stroke-dasharray="1,5" points="1576,-146 1576,-271 3144,-271 3144,-146 1576,-146"/>
</g>
<g id="clust2" class="cluster">
<title>cluster_AdminModule_declarations</title>
<polygon fill="none" stroke="#000000" points="1584,-154 1584,-206 2852,-206 2852,-154 1584,-154"/>
</g>
<g id="clust10" class="cluster">
<title>cluster_AdminModule_imports</title>
<polygon fill="none" stroke="#000000" points="2860,-154 2860,-206 3136,-206 3136,-154 2860,-154"/>
</g>
<g id="clust26" class="cluster">
<title>cluster_AppModule</title>
<polygon fill="none" stroke="#000000" stroke-dasharray="1,5" points="8,-70 8,-279 920,-279 920,-70 8,-70"/>
</g>
<g id="clust27" class="cluster">
<title>cluster_AppModule_declarations</title>
<polygon fill="none" stroke="#000000" points="186,-78 186,-130 635,-130 635,-78 186,-78"/>
</g>
<g id="clust31" class="cluster">
<title>cluster_AppModule_imports</title>
<polygon fill="none" stroke="#000000" points="643,-78 643,-130 912,-130 912,-78 643,-78"/>
</g>
<g id="clust33" class="cluster">
<title>cluster_AppModule_bootstrap</title>
<polygon fill="none" stroke="#000000" points="432,-219 432,-271 556,-271 556,-219 432,-219"/>
</g>
<g id="clust34" class="cluster">
<title>cluster_AppModule_providers</title>
<polygon fill="none" stroke="#000000" points="16,-78 16,-130 178,-130 178,-78 16,-78"/>
</g>
<g id="clust41" class="cluster">
<title>cluster_ContactlistModule</title>
<polygon fill="none" stroke="#000000" stroke-dasharray="1,5" points="928,-146 928,-271 1568,-271 1568,-146 928,-146"/>
</g>
<g id="clust42" class="cluster">
<title>cluster_ContactlistModule_declarations</title>
<polygon fill="none" stroke="#000000" points="1126,-154 1126,-206 1560,-206 1560,-154 1126,-154"/>
</g>
<g id="clust46" class="cluster">
<title>cluster_ContactlistModule_imports</title>
<polygon fill="none" stroke="#000000" points="936,-154 936,-206 1118,-206 1118,-154 936,-154"/>
</g>
<g id="clust56" class="cluster">
<title>cluster_MatchplanModule</title>
<polygon fill="none" stroke="#000000" stroke-dasharray="1,5" points="3152,-146 3152,-271 3643,-271 3643,-146 3152,-146"/>
</g>
<g id="clust57" class="cluster">
<title>cluster_MatchplanModule_declarations</title>
<polygon fill="none" stroke="#000000" points="3477,-154 3477,-206 3635,-206 3635,-154 3477,-154"/>
</g>
<g id="clust59" class="cluster">
<title>cluster_MatchplanModule_imports</title>
<polygon fill="none" stroke="#000000" points="3160,-154 3160,-206 3469,-206 3469,-154 3160,-154"/>
</g>
<g id="clust75" class="cluster">
<title>cluster_NewpasswordModule</title>
<polygon fill="none" stroke="#000000" stroke-dasharray="1,5" points="3651,-146 3651,-271 4051,-271 4051,-146 3651,-146"/>
</g>
<g id="clust76" class="cluster">
<title>cluster_NewpasswordModule_declarations</title>
<polygon fill="none" stroke="#000000" points="3867,-154 3867,-206 4043,-206 4043,-154 3867,-154"/>
</g>
<g id="clust78" class="cluster">
<title>cluster_NewpasswordModule_imports</title>
<polygon fill="none" stroke="#000000" points="3659,-154 3659,-206 3859,-206 3859,-154 3659,-154"/>
</g>
<g id="clust88" class="cluster">
<title>cluster_SharedModule</title>
<polygon fill="none" stroke="#000000" stroke-dasharray="1,5" points="2051,-70 2051,-138 4066,-138 4066,-70 2051,-70"/>
</g>
<g id="clust89" class="cluster">
<title>cluster_SharedModule_declarations</title>
<polygon fill="none" stroke="#000000" points="2703,-78 2703,-130 4058,-130 4058,-78 2703,-78"/>
</g>
<g id="clust99" class="cluster">
<title>cluster_SharedModule_exports</title>
<polygon fill="none" stroke="#000000" points="2059,-78 2059,-130 2695,-130 2695,-78 2059,-78"/>
</g>
<g id="clust102" class="cluster">
<title>cluster_TableModule</title>
<polygon fill="none" stroke="#000000" stroke-dasharray="1,5" points="4059,-146 4059,-271 4365,-271 4365,-146 4059,-146"/>
</g>
<g id="clust103" class="cluster">
<title>cluster_TableModule_declarations</title>
<polygon fill="none" stroke="#000000" points="4227,-154 4227,-206 4357,-206 4357,-154 4227,-154"/>
</g>
<g id="clust105" class="cluster">
<title>cluster_TableModule_imports</title>
<polygon fill="none" stroke="#000000" points="4067,-154 4067,-206 4219,-206 4219,-154 4067,-154"/>
</g>
<g id="clust115" class="cluster">
<title>cluster_TeamadminModule</title>
<polygon fill="none" stroke="#000000" stroke-dasharray="1,5" points="4373,-146 4373,-271 4749,-271 4749,-146 4373,-146"/>
</g>
<g id="clust116" class="cluster">
<title>cluster_TeamadminModule_declarations</title>
<polygon fill="none" stroke="#000000" points="4577,-154 4577,-206 4741,-206 4741,-154 4577,-154"/>
</g>
<g id="clust118" class="cluster">
<title>cluster_TeamadminModule_imports</title>
<polygon fill="none" stroke="#000000" points="4381,-154 4381,-206 4569,-206 4569,-154 4381,-154"/>
</g>
<g id="clust128" class="cluster">
<title>cluster_TournamentModule</title>
<polygon fill="none" stroke="#000000" stroke-dasharray="1,5" points="4757,-146 4757,-271 5137,-271 5137,-146 4757,-146"/>
</g>
<g id="clust129" class="cluster">
<title>cluster_TournamentModule_declarations</title>
<polygon fill="none" stroke="#000000" points="4963,-154 4963,-206 5129,-206 5129,-154 4963,-154"/>
</g>
<g id="clust131" class="cluster">
<title>cluster_TournamentModule_imports</title>
<polygon fill="none" stroke="#000000" points="4765,-154 4765,-206 4955,-206 4955,-154 4765,-154"/>
</g>
<!-- AddteamComponent -->
<g id="node1" class="node">
<title>AddteamComponent</title>
<polygon fill="#ffffb3" stroke="#000000" points="2646.1499,-198 2513.8501,-198 2513.8501,-162 2646.1499,-162 2646.1499,-198"/>
<text text-anchor="middle" x="2580" y="-175.8" font-family="Times,serif" font-size="14.00" fill="#000000">AddteamComponent</text>
</g>
<!-- AdminModule -->
<g id="node8" class="node">
<title>AdminModule</title>
<polygon fill="#8dd3c7" stroke="#000000" points="2444.4386,-263 2441.4386,-267 2420.4386,-267 2417.4386,-263 2345.5614,-263 2345.5614,-227 2444.4386,-227 2444.4386,-263"/>
<text text-anchor="middle" x="2395" y="-240.8" font-family="Times,serif" font-size="14.00" fill="#000000">AdminModule</text>
</g>
<!-- AddteamComponent&#45;&gt;AdminModule -->
<g id="edge1" class="edge">
<title>AddteamComponent&#45;&gt;AdminModule</title>
<path fill="none" stroke="#000000" d="M2580,-198.0225C2580,-215.3734 2580,-239 2580,-239 2580,-239 2454.5766,-239 2454.5766,-239"/>
<polygon fill="#000000" stroke="#000000" points="2454.5766,-235.5001 2444.5766,-239 2454.5766,-242.5001 2454.5766,-235.5001"/>
</g>
<!-- AddtournamentroundComponent -->
<g id="node2" class="node">
<title>AddtournamentroundComponent</title>
<polygon fill="#ffffb3" stroke="#000000" points="2495.8612,-198 2294.1388,-198 2294.1388,-162 2495.8612,-162 2495.8612,-198"/>
<text text-anchor="middle" x="2395" y="-175.8" font-family="Times,serif" font-size="14.00" fill="#000000">AddtournamentroundComponent</text>
</g>
<!-- AddtournamentroundComponent&#45;&gt;AdminModule -->
<g id="edge2" class="edge">
<title>AddtournamentroundComponent&#45;&gt;AdminModule</title>
<path fill="none" stroke="#000000" d="M2395,-198.1061C2395,-198.1061 2395,-216.991 2395,-216.991"/>
<polygon fill="#000000" stroke="#000000" points="2391.5001,-216.9909 2395,-226.991 2398.5001,-216.991 2391.5001,-216.9909"/>
</g>
<!-- AdminComponent -->
<g id="node3" class="node">
<title>AdminComponent</title>
<polygon fill="#ffffb3" stroke="#000000" points="2276.2204,-198 2155.7796,-198 2155.7796,-162 2276.2204,-162 2276.2204,-198"/>
<text text-anchor="middle" x="2216" y="-175.8" font-family="Times,serif" font-size="14.00" fill="#000000">AdminComponent</text>
</g>
<!-- AdminComponent&#45;&gt;AdminModule -->
<g id="edge3" class="edge">
<title>AdminComponent&#45;&gt;AdminModule</title>
<path fill="none" stroke="#000000" d="M2216,-198.2396C2216,-213.5706 2216,-233 2216,-233 2216,-233 2335.6136,-233 2335.6136,-233"/>
<polygon fill="#000000" stroke="#000000" points="2335.6137,-236.5001 2345.6136,-233 2335.6136,-229.5001 2335.6137,-236.5001"/>
</g>
<!-- ManageseasonComponent -->
<g id="node4" class="node">
<title>ManageseasonComponent</title>
<polygon fill="#ffffb3" stroke="#000000" points="2137.7394,-198 1974.2606,-198 1974.2606,-162 2137.7394,-162 2137.7394,-198"/>
<text text-anchor="middle" x="2056" y="-175.8" font-family="Times,serif" font-size="14.00" fill="#000000">ManageseasonComponent</text>
</g>
<!-- ManageseasonComponent&#45;&gt;AdminModule -->
<g id="edge4" class="edge">
<title>ManageseasonComponent&#45;&gt;AdminModule</title>
<path fill="none" stroke="#000000" d="M2056,-198.0225C2056,-215.3734 2056,-239 2056,-239 2056,-239 2335.7065,-239 2335.7065,-239"/>
<polygon fill="#000000" stroke="#000000" points="2335.7065,-242.5001 2345.7065,-239 2335.7065,-235.5001 2335.7065,-242.5001"/>
</g>
<!-- ManagetournamentComponent -->
<g id="node5" class="node">
<title>ManagetournamentComponent</title>
<polygon fill="#ffffb3" stroke="#000000" points="1956.1825,-198 1765.8175,-198 1765.8175,-162 1956.1825,-162 1956.1825,-198"/>
<text text-anchor="middle" x="1861" y="-175.8" font-family="Times,serif" font-size="14.00" fill="#000000">ManagetournamentComponent</text>
</g>
<!-- ManagetournamentComponent&#45;&gt;AdminModule -->
<g id="edge5" class="edge">
<title>ManagetournamentComponent&#45;&gt;AdminModule</title>
<path fill="none" stroke="#000000" d="M1861,-198.1061C1861,-217.3391 1861,-245 1861,-245 1861,-245 2335.7197,-245 2335.7197,-245"/>
<polygon fill="#000000" stroke="#000000" points="2335.7198,-248.5001 2345.7197,-245 2335.7197,-241.5001 2335.7198,-248.5001"/>
</g>
<!-- ManageusersComponent -->
<g id="node6" class="node">
<title>ManageusersComponent</title>
<polygon fill="#ffffb3" stroke="#000000" points="1747.6853,-198 1592.3147,-198 1592.3147,-162 1747.6853,-162 1747.6853,-198"/>
<text text-anchor="middle" x="1670" y="-175.8" font-family="Times,serif" font-size="14.00" fill="#000000">ManageusersComponent</text>
</g>
<!-- ManageusersComponent&#45;&gt;AdminModule -->
<g id="edge6" class="edge">
<title>ManageusersComponent&#45;&gt;AdminModule</title>
<path fill="none" stroke="#000000" d="M1670,-198.2843C1670,-219.3211 1670,-251 1670,-251 1670,-251 2335.7378,-251 2335.7378,-251"/>
<polygon fill="#000000" stroke="#000000" points="2335.7378,-254.5001 2345.7378,-251 2335.7378,-247.5001 2335.7378,-254.5001"/>
</g>
<!-- MatchSchedulingComponent -->
<g id="node7" class="node">
<title>MatchSchedulingComponent</title>
<polygon fill="#ffffb3" stroke="#000000" points="2844.0898,-198 2663.9102,-198 2663.9102,-162 2844.0898,-162 2844.0898,-198"/>
<text text-anchor="middle" x="2754" y="-175.8" font-family="Times,serif" font-size="14.00" fill="#000000">MatchSchedulingComponent</text>
</g>
<!-- MatchSchedulingComponent&#45;&gt;AdminModule -->
<g id="edge7" class="edge">
<title>MatchSchedulingComponent&#45;&gt;AdminModule</title>
<path fill="none" stroke="#000000" d="M2754,-198.1061C2754,-217.3391 2754,-245 2754,-245 2754,-245 2454.5405,-245 2454.5405,-245"/>
<polygon fill="#000000" stroke="#000000" points="2454.5405,-241.5001 2444.5405,-245 2454.5405,-248.5001 2454.5405,-241.5001"/>
</g>
<!-- AdminRoutingModule -->
<g id="node9" class="node">
<title>AdminRoutingModule</title>
<polygon fill="#8dd3c7" stroke="#000000" points="3011.5561,-198 3008.5561,-202 2987.5561,-202 2984.5561,-198 2868.4439,-198 2868.4439,-162 3011.5561,-162 3011.5561,-198"/>
<text text-anchor="middle" x="2940" y="-175.8" font-family="Times,serif" font-size="14.00" fill="#000000">AdminRoutingModule</text>
</g>
<!-- AdminRoutingModule&#45;&gt;AdminModule -->
<g id="edge8" class="edge">
<title>AdminRoutingModule&#45;&gt;AdminModule</title>
<path fill="none" stroke="#000000" d="M2940,-198.2843C2940,-219.3211 2940,-251 2940,-251 2940,-251 2454.3263,-251 2454.3263,-251"/>
<polygon fill="#000000" stroke="#000000" points="2454.3264,-247.5001 2444.3263,-251 2454.3263,-254.5001 2454.3264,-247.5001"/>
</g>
<!-- SharedModule -->
<g id="node10" class="node">
<title>SharedModule</title>
<polygon fill="#8dd3c7" stroke="#000000" points="3128.4231,-198 3125.4231,-202 3104.4231,-202 3101.4231,-198 3029.5769,-198 3029.5769,-162 3128.4231,-162 3128.4231,-198"/>
<text text-anchor="middle" x="3079" y="-175.8" font-family="Times,serif" font-size="14.00" fill="#000000">SharedModule</text>
</g>
<!-- SharedModule&#45;&gt;AdminModule -->
<g id="edge9" class="edge">
<title>SharedModule&#45;&gt;AdminModule</title>
<path fill="none" stroke="#000000" d="M3103.6056,-198.2479C3103.6056,-221.0179 3103.6056,-257 3103.6056,-257 3103.6056,-257 2454.2652,-257 2454.2652,-257"/>
<polygon fill="#000000" stroke="#000000" points="2454.2652,-253.5001 2444.2652,-257 2454.2651,-260.5001 2454.2652,-253.5001"/>
</g>
<!-- ContactlistModule -->
<g id="node22" class="node">
<title>ContactlistModule</title>
<polygon fill="#8dd3c7" stroke="#000000" points="1413.2134,-263 1410.2134,-267 1389.2134,-267 1386.2134,-263 1292.7866,-263 1292.7866,-227 1413.2134,-227 1413.2134,-263"/>
<text text-anchor="middle" x="1353" y="-240.8" font-family="Times,serif" font-size="14.00" fill="#000000">ContactlistModule</text>
</g>
<!-- SharedModule&#45;&gt;ContactlistModule -->
<g id="edge21" class="edge">
<title>SharedModule&#45;&gt;ContactlistModule</title>
<path fill="none" stroke="#000000" d="M3042.0917,-198.207C3042.0917,-203.5549 3042.0917,-208 3042.0917,-208 3042.0917,-208 1372.7749,-208 1372.7749,-208 1372.7749,-208 1372.7749,-216.9336 1372.7749,-216.9336"/>
<polygon fill="#000000" stroke="#000000" points="1369.275,-216.9335 1372.7749,-226.9336 1376.275,-216.9336 1369.275,-216.9335"/>
</g>
<!-- MatchplanModule -->
<g id="node25" class="node">
<title>MatchplanModule</title>
<polygon fill="#8dd3c7" stroke="#000000" points="3387.9201,-263 3384.9201,-267 3363.9201,-267 3360.9201,-263 3268.0799,-263 3268.0799,-227 3387.9201,-227 3387.9201,-263"/>
<text text-anchor="middle" x="3328" y="-240.8" font-family="Times,serif" font-size="14.00" fill="#000000">MatchplanModule</text>
</g>
<!-- SharedModule&#45;&gt;MatchplanModule -->
<g id="edge25" class="edge">
<title>SharedModule&#45;&gt;MatchplanModule</title>
<path fill="none" stroke="#000000" d="M3115.9083,-198.2396C3115.9083,-213.5706 3115.9083,-233 3115.9083,-233 3115.9083,-233 3258.0735,-233 3258.0735,-233"/>
<polygon fill="#000000" stroke="#000000" points="3258.0735,-236.5001 3268.0735,-233 3258.0734,-229.5001 3258.0735,-236.5001"/>
</g>
<!-- NewpasswordModule -->
<g id="node29" class="node">
<title>NewpasswordModule</title>
<polygon fill="#8dd3c7" stroke="#000000" points="3828.3487,-263 3825.3487,-267 3804.3487,-267 3801.3487,-263 3689.6513,-263 3689.6513,-227 3828.3487,-227 3828.3487,-263"/>
<text text-anchor="middle" x="3759" y="-240.8" font-family="Times,serif" font-size="14.00" fill="#000000">NewpasswordModule</text>
</g>
<!-- SharedModule&#45;&gt;NewpasswordModule -->
<g id="edge28" class="edge">
<title>SharedModule&#45;&gt;NewpasswordModule</title>
<path fill="none" stroke="#000000" d="M3054.3944,-198.4854C3054.3944,-210.1399 3054.3944,-223 3054.3944,-223 3054.3944,-223 3735.8586,-223 3735.8586,-223 3735.8586,-223 3735.8586,-223.3832 3735.8586,-223.3832"/>
<polygon fill="#000000" stroke="#000000" points="3732.3589,-216.832 3735.8586,-226.8321 3739.3589,-216.8322 3732.3589,-216.832"/>
</g>
<!-- ContactPersonComponent  -->
<g id="node39" class="node">
<title>ContactPersonComponent </title>
<polygon fill="#fb8072" stroke="#000000" points="2687.4825,-122 2520.5175,-122 2520.5175,-86 2687.4825,-86 2687.4825,-122"/>
<text text-anchor="middle" x="2604" y="-99.8" font-family="Times,serif" font-size="14.00" fill="#000000">ContactPersonComponent </text>
</g>
<!-- SharedModule&#45;&gt;ContactPersonComponent  -->
<g id="edge38" class="edge">
<title>SharedModule&#45;&gt;ContactPersonComponent </title>
<path fill="none" stroke="#000000" stroke-dasharray="5,2" d="M3055.438,-161.8757C3055.438,-147.2168 3055.438,-129 3055.438,-129 3055.438,-129 2675.598,-129 2675.598,-129 2675.598,-129 2675.598,-128.3169 2675.598,-128.3169"/>
<polygon fill="#000000" stroke="#000000" points="2679.0982,-132.1686 2675.598,-122.1686 2672.0982,-132.1687 2679.0982,-132.1686"/>
</g>
<!-- MatchComponent  -->
<g id="node40" class="node">
<title>MatchComponent </title>
<polygon fill="#fb8072" stroke="#000000" points="2502.0975,-122 2381.9025,-122 2381.9025,-86 2502.0975,-86 2502.0975,-122"/>
<text text-anchor="middle" x="2442" y="-99.8" font-family="Times,serif" font-size="14.00" fill="#000000">MatchComponent </text>
</g>
<!-- SharedModule&#45;&gt;MatchComponent  -->
<g id="edge39" class="edge">
<title>SharedModule&#45;&gt;MatchComponent </title>
<path fill="none" stroke="#000000" stroke-dasharray="5,2" d="M3050.3082,-161.8533C3050.3082,-148.2605 3050.3082,-132 3050.3082,-132 3050.3082,-132 2438.8161,-132 2438.8161,-132 2438.8161,-132 2438.8161,-131.0207 2438.8161,-131.0207"/>
<polygon fill="#000000" stroke="#000000" points="2442.3162,-132.2069 2438.8161,-122.207 2435.3162,-132.207 2442.3162,-132.2069"/>
</g>
<!-- MaterialModule  -->
<g id="node41" class="node">
<title>MaterialModule </title>
<polygon fill="#fb8072" stroke="#000000" points="2363.4716,-122 2252.5284,-122 2252.5284,-86 2363.4716,-86 2363.4716,-122"/>
<text text-anchor="middle" x="2308" y="-99.8" font-family="Times,serif" font-size="14.00" fill="#000000">MaterialModule </text>
</g>
<!-- SharedModule&#45;&gt;MaterialModule  -->
<g id="edge40" class="edge">
<title>SharedModule&#45;&gt;MaterialModule </title>
<path fill="none" stroke="#000000" stroke-dasharray="5,2" d="M3045.1784,-161.8495C3045.1784,-149.7292 3045.1784,-136 3045.1784,-136 3045.1784,-136 2328.6524,-136 2328.6524,-136 2328.6524,-136 2328.6524,-132.2434 2328.6524,-132.2434"/>
<polygon fill="#000000" stroke="#000000" points="2332.1524,-132.2434 2328.6524,-122.2434 2325.1524,-132.2434 2332.1524,-132.2434"/>
</g>
<!-- SeasonchooserComponent  -->
<g id="node42" class="node">
<title>SeasonchooserComponent </title>
<polygon fill="#fb8072" stroke="#000000" points="2235.0232,-122 2066.9768,-122 2066.9768,-86 2235.0232,-86 2235.0232,-122"/>
<text text-anchor="middle" x="2151" y="-99.8" font-family="Times,serif" font-size="14.00" fill="#000000">SeasonchooserComponent </text>
</g>
<!-- SharedModule&#45;&gt;SeasonchooserComponent  -->
<g id="edge41" class="edge">
<title>SharedModule&#45;&gt;SeasonchooserComponent </title>
<path fill="none" stroke="#000000" stroke-dasharray="5,2" d="M3040.0486,-161.8975C3040.0486,-150.9141 3040.0486,-139 3040.0486,-139 3040.0486,-139 2195.4508,-139 2195.4508,-139 2195.4508,-139 2195.4508,-132.32 2195.4508,-132.32"/>
<polygon fill="#000000" stroke="#000000" points="2198.9508,-132.32 2195.4508,-122.32 2191.9508,-132.3201 2198.9508,-132.32"/>
</g>
<!-- TableModule -->
<g id="node44" class="node">
<title>TableModule</title>
<polygon fill="#8dd3c7" stroke="#000000" points="4188.9232,-263 4185.9232,-267 4164.9232,-267 4161.9232,-263 4097.0768,-263 4097.0768,-227 4188.9232,-227 4188.9232,-263"/>
<text text-anchor="middle" x="4143" y="-240.8" font-family="Times,serif" font-size="14.00" fill="#000000">TableModule</text>
</g>
<!-- SharedModule&#45;&gt;TableModule -->
<g id="edge43" class="edge">
<title>SharedModule&#45;&gt;TableModule</title>
<path fill="none" stroke="#000000" d="M3066.6972,-198.1097C3066.6972,-207.897 3066.6972,-218 3066.6972,-218 3066.6972,-218 4127.763,-218 4127.763,-218 4127.763,-218 4127.763,-218.8841 4127.763,-218.8841"/>
<polygon fill="#000000" stroke="#000000" points="4124.2631,-216.8408 4127.763,-226.8408 4131.2631,-216.8409 4124.2631,-216.8408"/>
</g>
<!-- TeamadminModule -->
<g id="node47" class="node">
<title>TeamadminModule</title>
<polygon fill="#8dd3c7" stroke="#000000" points="4538.4187,-263 4535.4187,-267 4514.4187,-267 4511.4187,-263 4411.5813,-263 4411.5813,-227 4538.4187,-227 4538.4187,-263"/>
<text text-anchor="middle" x="4475" y="-240.8" font-family="Times,serif" font-size="14.00" fill="#000000">TeamadminModule</text>
</g>
<!-- SharedModule&#45;&gt;TeamadminModule -->
<g id="edge46" class="edge">
<title>SharedModule&#45;&gt;TeamadminModule</title>
<path fill="none" stroke="#000000" d="M3079,-198.0449C3079,-205.749 3079,-213 3079,-213 3079,-213 4453.9303,-213 4453.9303,-213 4453.9303,-213 4453.9303,-216.7566 4453.9303,-216.7566"/>
<polygon fill="#000000" stroke="#000000" points="4450.4304,-216.7566 4453.9303,-226.7566 4457.4304,-216.7566 4450.4304,-216.7566"/>
</g>
<!-- TournamentModule -->
<g id="node50" class="node">
<title>TournamentModule</title>
<polygon fill="#8dd3c7" stroke="#000000" points="4923.9734,-263 4920.9734,-267 4899.9734,-267 4896.9734,-263 4796.0266,-263 4796.0266,-227 4923.9734,-227 4923.9734,-263"/>
<text text-anchor="middle" x="4860" y="-240.8" font-family="Times,serif" font-size="14.00" fill="#000000">TournamentModule</text>
</g>
<!-- SharedModule&#45;&gt;TournamentModule -->
<g id="edge49" class="edge">
<title>SharedModule&#45;&gt;TournamentModule</title>
<path fill="none" stroke="#000000" d="M3091.3028,-198.1223C3091.3028,-200.9729 3091.3028,-203 3091.3028,-203 3091.3028,-203 4838.6711,-203 4838.6711,-203 4838.6711,-203 4838.6711,-216.9445 4838.6711,-216.9445"/>
<polygon fill="#000000" stroke="#000000" points="4835.1712,-216.9444 4838.6711,-226.9445 4842.1712,-216.9445 4835.1712,-216.9444"/>
</g>
<!-- AppComponent -->
<g id="node11" class="node">
<title>AppComponent</title>
<polygon fill="#ffffb3" stroke="#000000" points="626.9399,-122 521.0601,-122 521.0601,-86 626.9399,-86 626.9399,-122"/>
<text text-anchor="middle" x="574" y="-99.8" font-family="Times,serif" font-size="14.00" fill="#000000">AppComponent</text>
</g>
<!-- AppModule -->
<g id="node14" class="node">
<title>AppModule</title>
<polygon fill="#8dd3c7" stroke="#000000" points="535.6571,-198 532.6571,-202 511.6571,-202 508.6571,-198 452.3429,-198 452.3429,-162 535.6571,-162 535.6571,-198"/>
<text text-anchor="middle" x="494" y="-175.8" font-family="Times,serif" font-size="14.00" fill="#000000">AppModule</text>
</g>
<!-- AppComponent&#45;&gt;AppModule -->
<g id="edge10" class="edge">
<title>AppComponent&#45;&gt;AppModule</title>
<path fill="none" stroke="#000000" d="M528.5543,-122.0109C528.5543,-122.0109 528.5543,-151.855 528.5543,-151.855"/>
<polygon fill="#000000" stroke="#000000" points="525.0544,-151.8549 528.5543,-161.855 532.0544,-151.855 525.0544,-151.8549"/>
</g>
<!-- ChangepasswordComponent -->
<g id="node12" class="node">
<title>ChangepasswordComponent</title>
<polygon fill="#ffffb3" stroke="#000000" points="503.4692,-122 326.5308,-122 326.5308,-86 503.4692,-86 503.4692,-122"/>
<text text-anchor="middle" x="415" y="-99.8" font-family="Times,serif" font-size="14.00" fill="#000000">ChangepasswordComponent</text>
</g>
<!-- ChangepasswordComponent&#45;&gt;AppModule -->
<g id="edge11" class="edge">
<title>ChangepasswordComponent&#45;&gt;AppModule</title>
<path fill="none" stroke="#000000" d="M477.8282,-122.0109C477.8282,-122.0109 477.8282,-151.855 477.8282,-151.855"/>
<polygon fill="#000000" stroke="#000000" points="474.3283,-151.8549 477.8282,-161.855 481.3283,-151.855 474.3283,-151.8549"/>
</g>
<!-- LoginComponent -->
<g id="node13" class="node">
<title>LoginComponent</title>
<polygon fill="#ffffb3" stroke="#000000" points="308.2758,-122 193.7242,-122 193.7242,-86 308.2758,-86 308.2758,-122"/>
<text text-anchor="middle" x="251" y="-99.8" font-family="Times,serif" font-size="14.00" fill="#000000">LoginComponent</text>
</g>
<!-- LoginComponent&#45;&gt;AppModule -->
<g id="edge12" class="edge">
<title>LoginComponent&#45;&gt;AppModule</title>
<path fill="none" stroke="#000000" d="M251,-122.0267C251,-142.7672 251,-174 251,-174 251,-174 442.2268,-174 442.2268,-174"/>
<polygon fill="#000000" stroke="#000000" points="442.2268,-177.5001 452.2268,-174 442.2268,-170.5001 442.2268,-177.5001"/>
</g>
<!-- AppComponent  -->
<g id="node17" class="node">
<title>AppComponent </title>
<polygon fill="#80b1d3" stroke="#000000" points="548.439,-263 439.561,-263 439.561,-227 548.439,-227 548.439,-263"/>
<text text-anchor="middle" x="494" y="-240.8" font-family="Times,serif" font-size="14.00" fill="#000000">AppComponent </text>
</g>
<!-- AppModule&#45;&gt;AppComponent  -->
<g id="edge15" class="edge">
<title>AppModule&#45;&gt;AppComponent </title>
<path fill="none" stroke="#000000" stroke-dasharray="1,5" d="M494,-198.1061C494,-198.1061 494,-216.991 494,-216.991"/>
<polygon fill="#000000" stroke="#000000" points="490.5001,-216.9909 494,-226.991 497.5001,-216.991 490.5001,-216.9909"/>
</g>
<!-- AppRoutingModule -->
<g id="node15" class="node">
<title>AppRoutingModule</title>
<polygon fill="#8dd3c7" stroke="#000000" points="779.2744,-122 776.2744,-126 755.2744,-126 752.2744,-122 650.7256,-122 650.7256,-86 779.2744,-86 779.2744,-122"/>
<text text-anchor="middle" x="715" y="-99.8" font-family="Times,serif" font-size="14.00" fill="#000000">AppRoutingModule</text>
</g>
<!-- AppRoutingModule&#45;&gt;AppModule -->
<g id="edge13" class="edge">
<title>AppRoutingModule&#45;&gt;AppModule</title>
<path fill="none" stroke="#000000" d="M715,-122.0267C715,-142.7672 715,-174 715,-174 715,-174 545.8282,-174 545.8282,-174"/>
<polygon fill="#000000" stroke="#000000" points="545.8283,-170.5001 535.8282,-174 545.8282,-177.5001 545.8283,-170.5001"/>
</g>
<!-- MaterialModule -->
<g id="node16" class="node">
<title>MaterialModule</title>
<polygon fill="#8dd3c7" stroke="#000000" points="904.4706,-122 901.4706,-126 880.4706,-126 877.4706,-122 797.5294,-122 797.5294,-86 904.4706,-86 904.4706,-122"/>
<text text-anchor="middle" x="851" y="-99.8" font-family="Times,serif" font-size="14.00" fill="#000000">MaterialModule</text>
</g>
<!-- MaterialModule&#45;&gt;SharedModule -->
<g id="edge37" class="edge">
<title>MaterialModule&#45;&gt;SharedModule</title>
<path fill="none" stroke="#000000" d="M833.1716,-122.1097C833.1716,-131.897 833.1716,-142 833.1716,-142 833.1716,-142 3034.9187,-142 3034.9187,-142 3034.9187,-142 3034.9187,-151.8903 3034.9187,-151.8903"/>
<polygon fill="#000000" stroke="#000000" points="3031.4188,-151.8903 3034.9187,-161.8903 3038.4188,-151.8904 3031.4188,-151.8903"/>
</g>
<!-- MaterialModule&#45;&gt;AppModule -->
<g id="edge14" class="edge">
<title>MaterialModule&#45;&gt;AppModule</title>
<path fill="none" stroke="#000000" d="M868.8284,-122.1985C868.8284,-146.3563 868.8284,-186 868.8284,-186 868.8284,-186 545.9065,-186 545.9065,-186"/>
<polygon fill="#000000" stroke="#000000" points="545.9066,-182.5001 535.9065,-186 545.9065,-189.5001 545.9066,-182.5001"/>
</g>
<!-- AuthInterceptor -->
<g id="node18" class="node">
<title>AuthInterceptor</title>
<ellipse fill="#fdb462" stroke="#000000" cx="97" cy="-104" rx="72.9121" ry="18"/>
<text text-anchor="middle" x="97" y="-99.8" font-family="Times,serif" font-size="14.00" fill="#000000">AuthInterceptor</text>
</g>
<!-- AuthInterceptor&#45;&gt;AppModule -->
<g id="edge16" class="edge">
<title>AuthInterceptor&#45;&gt;AppModule</title>
<path fill="none" stroke="#000000" d="M97,-122.1985C97,-146.3563 97,-186 97,-186 97,-186 442.2644,-186 442.2644,-186"/>
<polygon fill="#000000" stroke="#000000" points="442.2644,-189.5001 452.2644,-186 442.2644,-182.5001 442.2644,-189.5001"/>
</g>
<!-- ContactlistComponent -->
<g id="node19" class="node">
<title>ContactlistComponent</title>
<polygon fill="#ffffb3" stroke="#000000" points="1275.9958,-198 1134.0042,-198 1134.0042,-162 1275.9958,-162 1275.9958,-198"/>
<text text-anchor="middle" x="1205" y="-175.8" font-family="Times,serif" font-size="14.00" fill="#000000">ContactlistComponent</text>
</g>
<!-- ContactlistComponent&#45;&gt;ContactlistModule -->
<g id="edge17" class="edge">
<title>ContactlistComponent&#45;&gt;ContactlistModule</title>
<path fill="none" stroke="#000000" d="M1205,-198.0225C1205,-215.3734 1205,-239 1205,-239 1205,-239 1282.8027,-239 1282.8027,-239"/>
<polygon fill="#000000" stroke="#000000" points="1282.8028,-242.5001 1292.8027,-239 1282.8027,-235.5001 1282.8028,-242.5001"/>
</g>
<!-- PitchesComponent -->
<g id="node20" class="node">
<title>PitchesComponent</title>
<polygon fill="#ffffb3" stroke="#000000" points="1551.7702,-198 1430.2298,-198 1430.2298,-162 1551.7702,-162 1551.7702,-198"/>
<text text-anchor="middle" x="1491" y="-175.8" font-family="Times,serif" font-size="14.00" fill="#000000">PitchesComponent</text>
</g>
<!-- PitchesComponent&#45;&gt;ContactlistModule -->
<g id="edge18" class="edge">
<title>PitchesComponent&#45;&gt;ContactlistModule</title>
<path fill="none" stroke="#000000" d="M1491,-198.2479C1491,-221.0179 1491,-257 1491,-257 1491,-257 1423.1274,-257 1423.1274,-257"/>
<polygon fill="#000000" stroke="#000000" points="1423.1274,-253.5001 1413.1274,-257 1423.1273,-260.5001 1423.1274,-253.5001"/>
</g>
<!-- TeamsComponent -->
<g id="node21" class="node">
<title>TeamsComponent</title>
<polygon fill="#ffffb3" stroke="#000000" points="1412.1499,-198 1293.8501,-198 1293.8501,-162 1412.1499,-162 1412.1499,-198"/>
<text text-anchor="middle" x="1353" y="-175.8" font-family="Times,serif" font-size="14.00" fill="#000000">TeamsComponent</text>
</g>
<!-- TeamsComponent&#45;&gt;ContactlistModule -->
<g id="edge19" class="edge">
<title>TeamsComponent&#45;&gt;ContactlistModule</title>
<path fill="none" stroke="#000000" d="M1333.2251,-198.1061C1333.2251,-198.1061 1333.2251,-216.991 1333.2251,-216.991"/>
<polygon fill="#000000" stroke="#000000" points="1329.7252,-216.9909 1333.2251,-226.991 1336.7252,-216.991 1329.7252,-216.9909"/>
</g>
<!-- ContactlistRoutingModule -->
<g id="node23" class="node">
<title>ContactlistRoutingModule</title>
<polygon fill="#8dd3c7" stroke="#000000" points="1109.8313,-198 1106.8313,-202 1085.8313,-202 1082.8313,-198 944.1687,-198 944.1687,-162 1109.8313,-162 1109.8313,-198"/>
<text text-anchor="middle" x="1027" y="-175.8" font-family="Times,serif" font-size="14.00" fill="#000000">ContactlistRoutingModule</text>
</g>
<!-- ContactlistRoutingModule&#45;&gt;ContactlistModule -->
<g id="edge20" class="edge">
<title>ContactlistRoutingModule&#45;&gt;ContactlistModule</title>
<path fill="none" stroke="#000000" d="M1027,-198.2843C1027,-219.3211 1027,-251 1027,-251 1027,-251 1282.8267,-251 1282.8267,-251"/>
<polygon fill="#000000" stroke="#000000" points="1282.8267,-254.5001 1292.8267,-251 1282.8266,-247.5001 1282.8267,-254.5001"/>
</g>
<!-- MatchplanComponent -->
<g id="node24" class="node">
<title>MatchplanComponent</title>
<polygon fill="#ffffb3" stroke="#000000" points="3626.7021,-198 3485.2979,-198 3485.2979,-162 3626.7021,-162 3626.7021,-198"/>
<text text-anchor="middle" x="3556" y="-175.8" font-family="Times,serif" font-size="14.00" fill="#000000">MatchplanComponent</text>
</g>
<!-- MatchplanComponent&#45;&gt;MatchplanModule -->
<g id="edge22" class="edge">
<title>MatchplanComponent&#45;&gt;MatchplanModule</title>
<path fill="none" stroke="#000000" d="M3556,-198.1061C3556,-217.3391 3556,-245 3556,-245 3556,-245 3397.9043,-245 3397.9043,-245"/>
<polygon fill="#000000" stroke="#000000" points="3397.9044,-241.5001 3387.9043,-245 3397.9043,-248.5001 3397.9044,-241.5001"/>
</g>
<!-- AppCoreModule -->
<g id="node26" class="node">
<title>AppCoreModule</title>
<polygon fill="#8dd3c7" stroke="#000000" points="3461.3683,-198 3458.3683,-202 3437.3683,-202 3434.3683,-198 3350.6317,-198 3350.6317,-162 3461.3683,-162 3461.3683,-198"/>
<text text-anchor="middle" x="3406" y="-175.8" font-family="Times,serif" font-size="14.00" fill="#000000">AppCoreModule</text>
</g>
<!-- AppCoreModule&#45;&gt;MatchplanModule -->
<g id="edge23" class="edge">
<title>AppCoreModule&#45;&gt;MatchplanModule</title>
<path fill="none" stroke="#000000" d="M3369.1378,-198.1061C3369.1378,-198.1061 3369.1378,-216.991 3369.1378,-216.991"/>
<polygon fill="#000000" stroke="#000000" points="3365.6379,-216.9909 3369.1378,-226.991 3372.6379,-216.991 3365.6379,-216.9909"/>
</g>
<!-- MatchplanRoutingModule -->
<g id="node27" class="node">
<title>MatchplanRoutingModule</title>
<polygon fill="#8dd3c7" stroke="#000000" points="3332.0378,-198 3329.0378,-202 3308.0378,-202 3305.0378,-198 3167.9622,-198 3167.9622,-162 3332.0378,-162 3332.0378,-198"/>
<text text-anchor="middle" x="3250" y="-175.8" font-family="Times,serif" font-size="14.00" fill="#000000">MatchplanRoutingModule</text>
</g>
<!-- MatchplanRoutingModule&#45;&gt;MatchplanModule -->
<g id="edge24" class="edge">
<title>MatchplanRoutingModule&#45;&gt;MatchplanModule</title>
<path fill="none" stroke="#000000" d="M3300.2795,-198.1061C3300.2795,-198.1061 3300.2795,-216.991 3300.2795,-216.991"/>
<polygon fill="#000000" stroke="#000000" points="3296.7795,-216.9909 3300.2795,-226.991 3303.7795,-216.991 3296.7795,-216.9909"/>
</g>
<!-- NewpasswordComponent -->
<g id="node28" class="node">
<title>NewpasswordComponent</title>
<polygon fill="#ffffb3" stroke="#000000" points="4035.1316,-198 3874.8684,-198 3874.8684,-162 4035.1316,-162 4035.1316,-198"/>
<text text-anchor="middle" x="3955" y="-175.8" font-family="Times,serif" font-size="14.00" fill="#000000">NewpasswordComponent</text>
</g>
<!-- NewpasswordComponent&#45;&gt;NewpasswordModule -->
<g id="edge26" class="edge">
<title>NewpasswordComponent&#45;&gt;NewpasswordModule</title>
<path fill="none" stroke="#000000" d="M3955,-198.1061C3955,-217.3391 3955,-245 3955,-245 3955,-245 3838.3781,-245 3838.3781,-245"/>
<polygon fill="#000000" stroke="#000000" points="3838.3781,-241.5001 3828.3781,-245 3838.3781,-248.5001 3838.3781,-241.5001"/>
</g>
<!-- NewpasswordRoutingModule -->
<g id="node30" class="node">
<title>NewpasswordRoutingModule</title>
<polygon fill="#8dd3c7" stroke="#000000" points="3850.9664,-198 3847.9664,-202 3826.9664,-202 3823.9664,-198 3667.0336,-198 3667.0336,-162 3850.9664,-162 3850.9664,-198"/>
<text text-anchor="middle" x="3759" y="-175.8" font-family="Times,serif" font-size="14.00" fill="#000000">NewpasswordRoutingModule</text>
</g>
<!-- NewpasswordRoutingModule&#45;&gt;NewpasswordModule -->
<g id="edge27" class="edge">
<title>NewpasswordRoutingModule&#45;&gt;NewpasswordModule</title>
<path fill="none" stroke="#000000" d="M3782.1414,-198.1061C3782.1414,-198.1061 3782.1414,-216.991 3782.1414,-216.991"/>
<polygon fill="#000000" stroke="#000000" points="3778.6415,-216.9909 3782.1414,-226.991 3785.6415,-216.991 3778.6415,-216.9909"/>
</g>
<!-- ContactComponent -->
<g id="node31" class="node">
<title>ContactComponent</title>
<polygon fill="#ffffb3" stroke="#000000" points="3394.3795,-122 3269.6205,-122 3269.6205,-86 3394.3795,-86 3394.3795,-122"/>
<text text-anchor="middle" x="3332" y="-99.8" font-family="Times,serif" font-size="14.00" fill="#000000">ContactComponent</text>
</g>
<!-- ContactComponent&#45;&gt;SharedModule -->
<g id="edge29" class="edge">
<title>ContactComponent&#45;&gt;SharedModule</title>
<path fill="none" stroke="#000000" d="M3300.9145,-122.0555C3300.9145,-133.439 3300.9145,-146 3300.9145,-146 3300.9145,-146 3099.8525,-146 3099.8525,-146 3099.8525,-146 3099.8525,-151.8056 3099.8525,-151.8056"/>
<polygon fill="#000000" stroke="#000000" points="3096.3526,-151.8055 3099.8525,-161.8056 3103.3526,-151.8056 3096.3526,-151.8055"/>
</g>
<!-- ContactPersonComponent -->
<g id="node32" class="node">
<title>ContactPersonComponent</title>
<polygon fill="#ffffb3" stroke="#000000" points="3251.4818,-122 3088.5182,-122 3088.5182,-86 3251.4818,-86 3251.4818,-122"/>
<text text-anchor="middle" x="3170" y="-99.8" font-family="Times,serif" font-size="14.00" fill="#000000">ContactPersonComponent</text>
</g>
<!-- ContactPersonComponent&#45;&gt;SharedModule -->
<g id="edge30" class="edge">
<title>ContactPersonComponent&#45;&gt;SharedModule</title>
<path fill="none" stroke="#000000" d="M3094.1808,-122.0109C3094.1808,-122.0109 3094.1808,-151.855 3094.1808,-151.855"/>
<polygon fill="#000000" stroke="#000000" points="3090.6809,-151.8549 3094.1808,-161.855 3097.6809,-151.855 3090.6809,-151.8549"/>
</g>
<!-- EditmatchPitchComponent -->
<g id="node33" class="node">
<title>EditmatchPitchComponent</title>
<polygon fill="#ffffb3" stroke="#000000" points="3070.6554,-122 2903.3446,-122 2903.3446,-86 3070.6554,-86 3070.6554,-122"/>
<text text-anchor="middle" x="2987" y="-99.8" font-family="Times,serif" font-size="14.00" fill="#000000">EditmatchPitchComponent</text>
</g>
<!-- EditmatchPitchComponent&#45;&gt;SharedModule -->
<g id="edge31" class="edge">
<title>EditmatchPitchComponent&#45;&gt;SharedModule</title>
<path fill="none" stroke="#000000" d="M3065.6977,-122.0109C3065.6977,-122.0109 3065.6977,-151.855 3065.6977,-151.855"/>
<polygon fill="#000000" stroke="#000000" points="3062.1978,-151.8549 3065.6977,-161.855 3069.1978,-151.855 3062.1978,-151.8549"/>
</g>
<!-- EditmatchResultComponent -->
<g id="node34" class="node">
<title>EditmatchResultComponent</title>
<polygon fill="#ffffb3" stroke="#000000" points="2885.1539,-122 2710.8461,-122 2710.8461,-86 2885.1539,-86 2885.1539,-122"/>
<text text-anchor="middle" x="2798" y="-99.8" font-family="Times,serif" font-size="14.00" fill="#000000">EditmatchResultComponent</text>
</g>
<!-- EditmatchResultComponent&#45;&gt;SharedModule -->
<g id="edge32" class="edge">
<title>EditmatchResultComponent&#45;&gt;SharedModule</title>
<path fill="none" stroke="#000000" d="M2876.7746,-122.1679C2876.7746,-124.4478 2876.7746,-126 2876.7746,-126 2876.7746,-126 3060.5679,-126 3060.5679,-126 3060.5679,-126 3060.5679,-151.7181 3060.5679,-151.7181"/>
<polygon fill="#000000" stroke="#000000" points="3057.0679,-151.718 3060.5679,-161.7181 3064.0679,-151.7181 3057.0679,-151.718"/>
</g>
<!-- EditmatchTimeComponent -->
<g id="node35" class="node">
<title>EditmatchTimeComponent</title>
<polygon fill="#ffffb3" stroke="#000000" points="4050.4255,-122 3881.5745,-122 3881.5745,-86 4050.4255,-86 4050.4255,-122"/>
<text text-anchor="middle" x="3966" y="-99.8" font-family="Times,serif" font-size="14.00" fill="#000000">EditmatchTimeComponent</text>
</g>
<!-- EditmatchTimeComponent&#45;&gt;SharedModule -->
<g id="edge33" class="edge">
<title>EditmatchTimeComponent&#45;&gt;SharedModule</title>
<path fill="none" stroke="#000000" d="M3958.5516,-122.0091C3958.5516,-138.0494 3958.5516,-159 3958.5516,-159 3958.5516,-159 3122.5394,-159 3122.5394,-159 3122.5394,-159 3122.5394,-159.292 3122.5394,-159.292"/>
<polygon fill="#000000" stroke="#000000" points="3119.0398,-151.9198 3122.5394,-161.92 3126.0398,-151.9201 3119.0398,-151.9198"/>
</g>
<!-- MatchComponent -->
<g id="node36" class="node">
<title>MatchComponent</title>
<polygon fill="#ffffb3" stroke="#000000" points="3863.5968,-122 3746.4032,-122 3746.4032,-86 3863.5968,-86 3863.5968,-122"/>
<text text-anchor="middle" x="3805" y="-99.8" font-family="Times,serif" font-size="14.00" fill="#000000">MatchComponent</text>
</g>
<!-- MatchComponent&#45;&gt;SharedModule -->
<g id="edge34" class="edge">
<title>MatchComponent&#45;&gt;SharedModule</title>
<path fill="none" stroke="#000000" d="M3798.7174,-122.1871C3798.7174,-137.1824 3798.7174,-156 3798.7174,-156 3798.7174,-156 3116.8677,-156 3116.8677,-156 3116.8677,-156 3116.8677,-156.581 3116.8677,-156.581"/>
<polygon fill="#000000" stroke="#000000" points="3113.3679,-151.8097 3116.8677,-161.8097 3120.3679,-151.8098 3113.3679,-151.8097"/>
</g>
<!-- SeasonchooserComponent -->
<g id="node37" class="node">
<title>SeasonchooserComponent</title>
<polygon fill="#ffffb3" stroke="#000000" points="3728.0239,-122 3563.9761,-122 3563.9761,-86 3728.0239,-86 3728.0239,-122"/>
<text text-anchor="middle" x="3646" y="-99.8" font-family="Times,serif" font-size="14.00" fill="#000000">SeasonchooserComponent</text>
</g>
<!-- SeasonchooserComponent&#45;&gt;SharedModule -->
<g id="edge35" class="edge">
<title>SeasonchooserComponent&#45;&gt;SharedModule</title>
<path fill="none" stroke="#000000" d="M3595.1697,-122.1467C3595.1697,-135.7395 3595.1697,-152 3595.1697,-152 3595.1697,-152 3111.196,-152 3111.196,-152 3111.196,-152 3111.196,-152.9793 3111.196,-152.9793"/>
<polygon fill="#000000" stroke="#000000" points="3107.6961,-151.793 3111.196,-161.793 3114.6961,-151.7931 3107.6961,-151.793"/>
</g>
<!-- SnackbarComponent -->
<g id="node38" class="node">
<title>SnackbarComponent</title>
<polygon fill="#ffffb3" stroke="#000000" points="3545.9201,-122 3412.0799,-122 3412.0799,-86 3545.9201,-86 3545.9201,-122"/>
<text text-anchor="middle" x="3479" y="-99.8" font-family="Times,serif" font-size="14.00" fill="#000000">SnackbarComponent</text>
</g>
<!-- SnackbarComponent&#45;&gt;SharedModule -->
<g id="edge36" class="edge">
<title>SnackbarComponent&#45;&gt;SharedModule</title>
<path fill="none" stroke="#000000" d="M3436.8622,-122.0439C3436.8622,-134.5633 3436.8622,-149 3436.8622,-149 3436.8622,-149 3105.5242,-149 3105.5242,-149 3105.5242,-149 3105.5242,-151.9672 3105.5242,-151.9672"/>
<polygon fill="#000000" stroke="#000000" points="3102.0243,-151.9671 3105.5242,-161.9672 3109.0243,-151.9672 3102.0243,-151.9671"/>
</g>
<!-- TableComponent -->
<g id="node43" class="node">
<title>TableComponent</title>
<polygon fill="#ffffb3" stroke="#000000" points="4348.705,-198 4235.295,-198 4235.295,-162 4348.705,-162 4348.705,-198"/>
<text text-anchor="middle" x="4292" y="-175.8" font-family="Times,serif" font-size="14.00" fill="#000000">TableComponent</text>
</g>
<!-- TableComponent&#45;&gt;TableModule -->
<g id="edge42" class="edge">
<title>TableComponent&#45;&gt;TableModule</title>
<path fill="none" stroke="#000000" d="M4292,-198.1061C4292,-217.3391 4292,-245 4292,-245 4292,-245 4198.9207,-245 4198.9207,-245"/>
<polygon fill="#000000" stroke="#000000" points="4198.9207,-241.5001 4188.9207,-245 4198.9207,-248.5001 4198.9207,-241.5001"/>
</g>
<!-- TableRoutingModule -->
<g id="node45" class="node">
<title>TableRoutingModule</title>
<polygon fill="#8dd3c7" stroke="#000000" points="4211.0408,-198 4208.0408,-202 4187.0408,-202 4184.0408,-198 4074.9592,-198 4074.9592,-162 4211.0408,-162 4211.0408,-198"/>
<text text-anchor="middle" x="4143" y="-175.8" font-family="Times,serif" font-size="14.00" fill="#000000">TableRoutingModule</text>
</g>
<!-- TableRoutingModule&#45;&gt;TableModule -->
<g id="edge44" class="edge">
<title>TableRoutingModule&#45;&gt;TableModule</title>
<path fill="none" stroke="#000000" d="M4158.237,-198.1061C4158.237,-198.1061 4158.237,-216.991 4158.237,-216.991"/>
<polygon fill="#000000" stroke="#000000" points="4154.7371,-216.9909 4158.237,-226.991 4161.7371,-216.991 4154.7371,-216.9909"/>
</g>
<!-- TeamadminComponent -->
<g id="node46" class="node">
<title>TeamadminComponent</title>
<polygon fill="#ffffb3" stroke="#000000" points="4733.2007,-198 4584.7993,-198 4584.7993,-162 4733.2007,-162 4733.2007,-198"/>
<text text-anchor="middle" x="4659" y="-175.8" font-family="Times,serif" font-size="14.00" fill="#000000">TeamadminComponent</text>
</g>
<!-- TeamadminComponent&#45;&gt;TeamadminModule -->
<g id="edge45" class="edge">
<title>TeamadminComponent&#45;&gt;TeamadminModule</title>
<path fill="none" stroke="#000000" d="M4659,-198.1061C4659,-217.3391 4659,-245 4659,-245 4659,-245 4548.3224,-245 4548.3224,-245"/>
<polygon fill="#000000" stroke="#000000" points="4548.3224,-241.5001 4538.3224,-245 4548.3223,-248.5001 4548.3224,-241.5001"/>
</g>
<!-- TeamadminRoutingModule -->
<g id="node48" class="node">
<title>TeamadminRoutingModule</title>
<polygon fill="#8dd3c7" stroke="#000000" points="4560.5364,-198 4557.5364,-202 4536.5364,-202 4533.5364,-198 4389.4636,-198 4389.4636,-162 4560.5364,-162 4560.5364,-198"/>
<text text-anchor="middle" x="4475" y="-175.8" font-family="Times,serif" font-size="14.00" fill="#000000">TeamadminRoutingModule</text>
</g>
<!-- TeamadminRoutingModule&#45;&gt;TeamadminModule -->
<g id="edge47" class="edge">
<title>TeamadminRoutingModule&#45;&gt;TeamadminModule</title>
<path fill="none" stroke="#000000" d="M4496.0697,-198.1061C4496.0697,-198.1061 4496.0697,-216.991 4496.0697,-216.991"/>
<polygon fill="#000000" stroke="#000000" points="4492.5698,-216.9909 4496.0697,-226.991 4499.5698,-216.991 4492.5698,-216.9909"/>
</g>
<!-- TournamentComponent -->
<g id="node49" class="node">
<title>TournamentComponent</title>
<polygon fill="#ffffb3" stroke="#000000" points="5120.7562,-198 4971.2438,-198 4971.2438,-162 5120.7562,-162 5120.7562,-198"/>
<text text-anchor="middle" x="5046" y="-175.8" font-family="Times,serif" font-size="14.00" fill="#000000">TournamentComponent</text>
</g>
<!-- TournamentComponent&#45;&gt;TournamentModule -->
<g id="edge48" class="edge">
<title>TournamentComponent&#45;&gt;TournamentModule</title>
<path fill="none" stroke="#000000" d="M5046,-198.1061C5046,-217.3391 5046,-245 5046,-245 5046,-245 4934.0106,-245 4934.0106,-245"/>
<polygon fill="#000000" stroke="#000000" points="4934.0107,-241.5001 4924.0106,-245 4934.0106,-248.5001 4934.0107,-241.5001"/>
</g>
<!-- TournamentRoutingModule -->
<g id="node51" class="node">
<title>TournamentRoutingModule</title>
<polygon fill="#8dd3c7" stroke="#000000" points="4946.5912,-198 4943.5912,-202 4922.5912,-202 4919.5912,-198 4773.4088,-198 4773.4088,-162 4946.5912,-162 4946.5912,-198"/>
<text text-anchor="middle" x="4860" y="-175.8" font-family="Times,serif" font-size="14.00" fill="#000000">TournamentRoutingModule</text>
</g>
<!-- TournamentRoutingModule&#45;&gt;TournamentModule -->
<g id="edge50" class="edge">
<title>TournamentRoutingModule&#45;&gt;TournamentModule</title>
<path fill="none" stroke="#000000" d="M4881.3289,-198.1061C4881.3289,-198.1061 4881.3289,-216.991 4881.3289,-216.991"/>
<polygon fill="#000000" stroke="#000000" points="4877.829,-216.9909 4881.3289,-226.991 4884.829,-216.991 4877.829,-216.9909"/>
</g>
</g>
</svg>
