<?xml version="1.0" encoding="UTF-8" standalone="no"?>
<!DOCTYPE svg PUBLIC "-//W3C//DTD SVG 1.1//EN"
 "http://www.w3.org/Graphics/SVG/1.1/DTD/svg11.dtd">
<!-- Generated by graphviz version 2.40.1 (20161225.0304)
 -->
<!-- Title: dependencies Pages: 1 -->
<svg width="780pt" height="211pt"
 viewBox="0.00 0.00 780.00 211.00" xmlns="http://www.w3.org/2000/svg" xmlns:xlink="http://www.w3.org/1999/xlink">
<g id="graph0" class="graph" transform="scale(1 1) rotate(0) translate(4 207)">
<title>dependencies</title>
<polygon fill="#ffffff" stroke="transparent" points="-4,4 -4,-207 776,-207 776,4 -4,4"/>
<text text-anchor="start" x="365.0091" y="-42.4" font-family="sans-serif" font-weight="bold" font-size="14.00" fill="#000000">Legend</text>
<polygon fill="#ffffb3" stroke="transparent" points="152,-10 152,-30 172,-30 172,-10 152,-10"/>
<text text-anchor="start" x="175.629" y="-15.4" font-family="sans-serif" font-size="14.00" fill="#000000"> &#160;Declarations</text>
<polygon fill="#8dd3c7" stroke="transparent" points="265,-10 265,-30 285,-30 285,-10 265,-10"/>
<text text-anchor="start" x="288.7251" y="-15.4" font-family="sans-serif" font-size="14.00" fill="#000000"> &#160;Module</text>
<polygon fill="#80b1d3" stroke="transparent" points="351,-10 351,-30 371,-30 371,-10 351,-10"/>
<text text-anchor="start" x="374.7812" y="-15.4" font-family="sans-serif" font-size="14.00" fill="#000000"> &#160;Bootstrap</text>
<polygon fill="#fdb462" stroke="transparent" points="448,-10 448,-30 468,-30 468,-10 448,-10"/>
<text text-anchor="start" x="471.6732" y="-15.4" font-family="sans-serif" font-size="14.00" fill="#000000"> &#160;Providers</text>
<polygon fill="#fb8072" stroke="transparent" points="544,-10 544,-30 564,-30 564,-10 544,-10"/>
<text text-anchor="start" x="567.7258" y="-15.4" font-family="sans-serif" font-size="14.00" fill="#000000"> &#160;Exports</text>
<g id="clust1" class="cluster">
<title>cluster_ContactlistModule</title>
<polygon fill="none" stroke="#000000" stroke-dasharray="1,5" points="8,-70 8,-195 764,-195 764,-70 8,-70"/>
</g>
<g id="clust2" class="cluster">
<title>cluster_ContactlistModule_declarations</title>
<polygon fill="none" stroke="#000000" points="322,-78 322,-130 756,-130 756,-78 322,-78"/>
</g>
<g id="clust6" class="cluster">
<title>cluster_ContactlistModule_imports</title>
<polygon fill="none" stroke="#000000" points="16,-78 16,-130 314,-130 314,-78 16,-78"/>
</g>
<!-- ContactlistComponent -->
<g id="node1" class="node">
<title>ContactlistComponent</title>
<polygon fill="#ffffb3" stroke="#000000" points="747.9958,-122 606.0042,-122 606.0042,-86 747.9958,-86 747.9958,-122"/>
<text text-anchor="middle" x="677" y="-99.8" font-family="Times,serif" font-size="14.00" fill="#000000">ContactlistComponent</text>
</g>
<!-- ContactlistModule -->
<g id="node4" class="node">
<title>ContactlistModule</title>
<polygon fill="#8dd3c7" stroke="#000000" points="449.2134,-187 446.2134,-191 425.2134,-191 422.2134,-187 328.7866,-187 328.7866,-151 449.2134,-151 449.2134,-187"/>
<text text-anchor="middle" x="389" y="-164.8" font-family="Times,serif" font-size="14.00" fill="#000000">ContactlistModule</text>
</g>
<!-- ContactlistComponent&#45;&gt;ContactlistModule -->
<g id="edge1" class="edge">
<title>ContactlistComponent&#45;&gt;ContactlistModule</title>
<path fill="none" stroke="#000000" d="M677,-122.2843C677,-143.3211 677,-175 677,-175 677,-175 459.3742,-175 459.3742,-175"/>
<polygon fill="#000000" stroke="#000000" points="459.3743,-171.5001 449.3742,-175 459.3742,-178.5001 459.3743,-171.5001"/>
</g>
<!-- PitchesComponent -->
<g id="node2" class="node">
<title>PitchesComponent</title>
<polygon fill="#ffffb3" stroke="#000000" points="587.7702,-122 466.2298,-122 466.2298,-86 587.7702,-86 587.7702,-122"/>
<text text-anchor="middle" x="527" y="-99.8" font-family="Times,serif" font-size="14.00" fill="#000000">PitchesComponent</text>
</g>
<!-- PitchesComponent&#45;&gt;ContactlistModule -->
<g id="edge2" class="edge">
<title>PitchesComponent&#45;&gt;ContactlistModule</title>
<path fill="none" stroke="#000000" d="M527,-122.0225C527,-139.3734 527,-163 527,-163 527,-163 459.1274,-163 459.1274,-163"/>
<polygon fill="#000000" stroke="#000000" points="459.1274,-159.5001 449.1274,-163 459.1273,-166.5001 459.1274,-159.5001"/>
</g>
<!-- TeamsComponent -->
<g id="node3" class="node">
<title>TeamsComponent</title>
<polygon fill="#ffffb3" stroke="#000000" points="448.1499,-122 329.8501,-122 329.8501,-86 448.1499,-86 448.1499,-122"/>
<text text-anchor="middle" x="389" y="-99.8" font-family="Times,serif" font-size="14.00" fill="#000000">TeamsComponent</text>
</g>
<!-- TeamsComponent&#45;&gt;ContactlistModule -->
<g id="edge3" class="edge">
<title>TeamsComponent&#45;&gt;ContactlistModule</title>
<path fill="none" stroke="#000000" d="M389,-122.1061C389,-122.1061 389,-140.991 389,-140.991"/>
<polygon fill="#000000" stroke="#000000" points="385.5001,-140.9909 389,-150.991 392.5001,-140.991 385.5001,-140.9909"/>
</g>
<!-- ContactlistRoutingModule -->
<g id="node5" class="node">
<title>ContactlistRoutingModule</title>
<polygon fill="#8dd3c7" stroke="#000000" points="305.8313,-122 302.8313,-126 281.8313,-126 278.8313,-122 140.1687,-122 140.1687,-86 305.8313,-86 305.8313,-122"/>
<text text-anchor="middle" x="223" y="-99.8" font-family="Times,serif" font-size="14.00" fill="#000000">ContactlistRoutingModule</text>
</g>
<!-- ContactlistRoutingModule&#45;&gt;ContactlistModule -->
<g id="edge4" class="edge">
<title>ContactlistRoutingModule&#45;&gt;ContactlistModule</title>
<path fill="none" stroke="#000000" d="M223,-122.0225C223,-139.3734 223,-163 223,-163 223,-163 318.6006,-163 318.6006,-163"/>
<polygon fill="#000000" stroke="#000000" points="318.6006,-166.5001 328.6006,-163 318.6006,-159.5001 318.6006,-166.5001"/>
</g>
<!-- SharedModule -->
<g id="node6" class="node">
<title>SharedModule</title>
<polygon fill="#8dd3c7" stroke="#000000" points="122.4231,-122 119.4231,-126 98.4231,-126 95.4231,-122 23.5769,-122 23.5769,-86 122.4231,-86 122.4231,-122"/>
<text text-anchor="middle" x="73" y="-99.8" font-family="Times,serif" font-size="14.00" fill="#000000">SharedModule</text>
</g>
<!-- SharedModule&#45;&gt;ContactlistModule -->
<g id="edge5" class="edge">
<title>SharedModule&#45;&gt;ContactlistModule</title>
<path fill="none" stroke="#000000" d="M73,-122.2843C73,-143.3211 73,-175 73,-175 73,-175 318.819,-175 318.819,-175"/>
<polygon fill="#000000" stroke="#000000" points="318.8191,-178.5001 328.819,-175 318.819,-171.5001 318.8191,-178.5001"/>
</g>
</g>
</svg>
