<?xml version="1.0" encoding="UTF-8" standalone="no"?>
<!DOCTYPE svg PUBLIC "-//W3C//DTD SVG 1.1//EN"
 "http://www.w3.org/Graphics/SVG/1.1/DTD/svg11.dtd">
<!-- Generated by graphviz version 2.40.1 (20161225.0304)
 -->
<!-- Title: dependencies Pages: 1 -->
<svg width="2394pt" height="211pt"
 viewBox="0.00 0.00 2394.00 211.00" xmlns="http://www.w3.org/2000/svg" xmlns:xlink="http://www.w3.org/1999/xlink">
<g id="graph0" class="graph" transform="scale(1 1) rotate(0) translate(4 207)">
<title>dependencies</title>
<polygon fill="#ffffff" stroke="transparent" points="-4,4 -4,-207 2390,-207 2390,4 -4,4"/>
<text text-anchor="start" x="1172.0091" y="-42.4" font-family="sans-serif" font-weight="bold" font-size="14.00" fill="#000000">Legend</text>
<polygon fill="#ffffb3" stroke="transparent" points="959,-10 959,-30 979,-30 979,-10 959,-10"/>
<text text-anchor="start" x="982.629" y="-15.4" font-family="sans-serif" font-size="14.00" fill="#000000"> &#160;Declarations</text>
<polygon fill="#8dd3c7" stroke="transparent" points="1072,-10 1072,-30 1092,-30 1092,-10 1072,-10"/>
<text text-anchor="start" x="1095.7251" y="-15.4" font-family="sans-serif" font-size="14.00" fill="#000000"> &#160;Module</text>
<polygon fill="#80b1d3" stroke="transparent" points="1158,-10 1158,-30 1178,-30 1178,-10 1158,-10"/>
<text text-anchor="start" x="1181.7812" y="-15.4" font-family="sans-serif" font-size="14.00" fill="#000000"> &#160;Bootstrap</text>
<polygon fill="#fdb462" stroke="transparent" points="1255,-10 1255,-30 1275,-30 1275,-10 1255,-10"/>
<text text-anchor="start" x="1278.6732" y="-15.4" font-family="sans-serif" font-size="14.00" fill="#000000"> &#160;Providers</text>
<polygon fill="#fb8072" stroke="transparent" points="1351,-10 1351,-30 1371,-30 1371,-10 1351,-10"/>
<text text-anchor="start" x="1374.7258" y="-15.4" font-family="sans-serif" font-size="14.00" fill="#000000"> &#160;Exports</text>
<g id="clust1" class="cluster">
<title>cluster_AdminModule</title>
<polygon fill="none" stroke="#000000" stroke-dasharray="1,5" points="8,-70 8,-195 2378,-195 2378,-70 8,-70"/>
</g>
<g id="clust2" class="cluster">
<title>cluster_AdminModule_declarations</title>
<polygon fill="none" stroke="#000000" points="416,-78 416,-130 2370,-130 2370,-78 416,-78"/>
</g>
<g id="clust14" class="cluster">
<title>cluster_AdminModule_imports</title>
<polygon fill="none" stroke="#000000" points="16,-78 16,-130 408,-130 408,-78 16,-78"/>
</g>
<!-- AddUserComponent -->
<g id="node1" class="node">
<title>AddUserComponent</title>
<polygon fill="#ffffb3" stroke="#000000" points="2361.8655,-122 2230.1345,-122 2230.1345,-86 2361.8655,-86 2361.8655,-122"/>
<text text-anchor="middle" x="2296" y="-99.8" font-family="Times,serif" font-size="14.00" fill="#000000">AddUserComponent</text>
</g>
<!-- AdminModule -->
<g id="node12" class="node">
<title>AdminModule</title>
<polygon fill="#8dd3c7" stroke="#000000" points="1169.4386,-187 1166.4386,-191 1145.4386,-191 1142.4386,-187 1070.5614,-187 1070.5614,-151 1169.4386,-151 1169.4386,-187"/>
<text text-anchor="middle" x="1120" y="-164.8" font-family="Times,serif" font-size="14.00" fill="#000000">AdminModule</text>
</g>
<!-- AddUserComponent&#45;&gt;AdminModule -->
<g id="edge1" class="edge">
<title>AddUserComponent&#45;&gt;AdminModule</title>
<path fill="none" stroke="#000000" d="M2296,-122.0908C2296,-145.1328 2296,-182 2296,-182 2296,-182 1179.4064,-182 1179.4064,-182"/>
<polygon fill="#000000" stroke="#000000" points="1179.4065,-178.5001 1169.4064,-182 1179.4064,-185.5001 1179.4065,-178.5001"/>
</g>
<!-- AddtournamentroundComponent -->
<g id="node2" class="node">
<title>AddtournamentroundComponent</title>
<polygon fill="#ffffb3" stroke="#000000" points="2211.8612,-122 2010.1388,-122 2010.1388,-86 2211.8612,-86 2211.8612,-122"/>
<text text-anchor="middle" x="2111" y="-99.8" font-family="Times,serif" font-size="14.00" fill="#000000">AddtournamentroundComponent</text>
</g>
<!-- AddtournamentroundComponent&#45;&gt;AdminModule -->
<g id="edge2" class="edge">
<title>AddtournamentroundComponent&#45;&gt;AdminModule</title>
<path fill="none" stroke="#000000" d="M2111,-122.0449C2111,-143.6623 2111,-177 2111,-177 2111,-177 1179.4829,-177 1179.4829,-177"/>
<polygon fill="#000000" stroke="#000000" points="1179.4829,-173.5001 1169.4829,-177 1179.4829,-180.5001 1179.4829,-173.5001"/>
</g>
<!-- AdminComponent -->
<g id="node3" class="node">
<title>AdminComponent</title>
<polygon fill="#ffffb3" stroke="#000000" points="1992.2204,-122 1871.7796,-122 1871.7796,-86 1992.2204,-86 1992.2204,-122"/>
<text text-anchor="middle" x="1932" y="-99.8" font-family="Times,serif" font-size="14.00" fill="#000000">AdminComponent</text>
</g>
<!-- AdminComponent&#45;&gt;AdminModule -->
<g id="edge3" class="edge">
<title>AdminComponent&#45;&gt;AdminModule</title>
<path fill="none" stroke="#000000" d="M1932,-122.2228C1932,-142.3652 1932,-172 1932,-172 1932,-172 1179.2684,-172 1179.2684,-172"/>
<polygon fill="#000000" stroke="#000000" points="1179.2684,-168.5001 1169.2684,-172 1179.2683,-175.5001 1179.2684,-168.5001"/>
</g>
<!-- ManagepitchesComponent -->
<g id="node4" class="node">
<title>ManagepitchesComponent</title>
<polygon fill="#ffffb3" stroke="#000000" points="1854.0758,-122 1687.9242,-122 1687.9242,-86 1854.0758,-86 1854.0758,-122"/>
<text text-anchor="middle" x="1771" y="-99.8" font-family="Times,serif" font-size="14.00" fill="#000000">ManagepitchesComponent</text>
</g>
<!-- ManagepitchesComponent&#45;&gt;AdminModule -->
<g id="edge4" class="edge">
<title>ManagepitchesComponent&#45;&gt;AdminModule</title>
<path fill="none" stroke="#000000" d="M1771,-122.2222C1771,-140.8285 1771,-167 1771,-167 1771,-167 1179.4651,-167 1179.4651,-167"/>
<polygon fill="#000000" stroke="#000000" points="1179.4652,-163.5001 1169.4651,-167 1179.4651,-170.5001 1179.4652,-163.5001"/>
</g>
<!-- ManageseasonComponent -->
<g id="node5" class="node">
<title>ManageseasonComponent</title>
<polygon fill="#ffffb3" stroke="#000000" points="1669.7394,-122 1506.2606,-122 1506.2606,-86 1669.7394,-86 1669.7394,-122"/>
<text text-anchor="middle" x="1588" y="-99.8" font-family="Times,serif" font-size="14.00" fill="#000000">ManageseasonComponent</text>
</g>
<!-- ManageseasonComponent&#45;&gt;AdminModule -->
<g id="edge5" class="edge">
<title>ManageseasonComponent&#45;&gt;AdminModule</title>
<path fill="none" stroke="#000000" d="M1588,-122.0336C1588,-139.0597 1588,-162 1588,-162 1588,-162 1179.6411,-162 1179.6411,-162"/>
<polygon fill="#000000" stroke="#000000" points="1179.6412,-158.5001 1169.6411,-162 1179.6411,-165.5001 1179.6412,-158.5001"/>
</g>
<!-- ManageteamsComponent -->
<g id="node6" class="node">
<title>ManageteamsComponent</title>
<polygon fill="#ffffb3" stroke="#000000" points="1488.5758,-122 1329.4242,-122 1329.4242,-86 1488.5758,-86 1488.5758,-122"/>
<text text-anchor="middle" x="1409" y="-99.8" font-family="Times,serif" font-size="14.00" fill="#000000">ManageteamsComponent</text>
</g>
<!-- ManageteamsComponent&#45;&gt;AdminModule -->
<g id="edge6" class="edge">
<title>ManageteamsComponent&#45;&gt;AdminModule</title>
<path fill="none" stroke="#000000" d="M1409,-122.2396C1409,-137.5706 1409,-157 1409,-157 1409,-157 1179.3525,-157 1179.3525,-157"/>
<polygon fill="#000000" stroke="#000000" points="1179.3525,-153.5001 1169.3525,-157 1179.3525,-160.5001 1179.3525,-153.5001"/>
</g>
<!-- ManagetournamentComponent -->
<g id="node7" class="node">
<title>ManagetournamentComponent</title>
<polygon fill="#ffffb3" stroke="#000000" points="1311.1825,-122 1120.8175,-122 1120.8175,-86 1311.1825,-86 1311.1825,-122"/>
<text text-anchor="middle" x="1216" y="-99.8" font-family="Times,serif" font-size="14.00" fill="#000000">ManagetournamentComponent</text>
</g>
<!-- ManagetournamentComponent&#45;&gt;AdminModule -->
<g id="edge7" class="edge">
<title>ManagetournamentComponent&#45;&gt;AdminModule</title>
<path fill="none" stroke="#000000" d="M1145.0638,-122.1061C1145.0638,-122.1061 1145.0638,-140.991 1145.0638,-140.991"/>
<polygon fill="#000000" stroke="#000000" points="1141.5639,-140.9909 1145.0638,-150.991 1148.5639,-140.991 1141.5639,-140.9909"/>
</g>
<!-- ManageusersComponent -->
<g id="node8" class="node">
<title>ManageusersComponent</title>
<polygon fill="#ffffb3" stroke="#000000" points="1102.6853,-122 947.3147,-122 947.3147,-86 1102.6853,-86 1102.6853,-122"/>
<text text-anchor="middle" x="1025" y="-99.8" font-family="Times,serif" font-size="14.00" fill="#000000">ManageusersComponent</text>
</g>
<!-- ManageusersComponent&#45;&gt;AdminModule -->
<g id="edge8" class="edge">
<title>ManageusersComponent&#45;&gt;AdminModule</title>
<path fill="none" stroke="#000000" d="M1086.6869,-122.1061C1086.6869,-122.1061 1086.6869,-140.991 1086.6869,-140.991"/>
<polygon fill="#000000" stroke="#000000" points="1083.187,-140.9909 1086.6869,-150.991 1090.187,-140.991 1083.187,-140.9909"/>
</g>
<!-- MatchSchedulingComponent -->
<g id="node9" class="node">
<title>MatchSchedulingComponent</title>
<polygon fill="#ffffb3" stroke="#000000" points="929.0898,-122 748.9102,-122 748.9102,-86 929.0898,-86 929.0898,-122"/>
<text text-anchor="middle" x="839" y="-99.8" font-family="Times,serif" font-size="14.00" fill="#000000">MatchSchedulingComponent</text>
</g>
<!-- MatchSchedulingComponent&#45;&gt;AdminModule -->
<g id="edge9" class="edge">
<title>MatchSchedulingComponent&#45;&gt;AdminModule</title>
<path fill="none" stroke="#000000" d="M839,-122.2396C839,-137.5706 839,-157 839,-157 839,-157 1060.732,-157 1060.732,-157"/>
<polygon fill="#000000" stroke="#000000" points="1060.732,-160.5001 1070.732,-157 1060.7319,-153.5001 1060.732,-160.5001"/>
</g>
<!-- RenameTeamComponent -->
<g id="node10" class="node">
<title>RenameTeamComponent</title>
<polygon fill="#ffffb3" stroke="#000000" points="730.5758,-122 571.4242,-122 571.4242,-86 730.5758,-86 730.5758,-122"/>
<text text-anchor="middle" x="651" y="-99.8" font-family="Times,serif" font-size="14.00" fill="#000000">RenameTeamComponent</text>
</g>
<!-- RenameTeamComponent&#45;&gt;AdminModule -->
<g id="edge10" class="edge">
<title>RenameTeamComponent&#45;&gt;AdminModule</title>
<path fill="none" stroke="#000000" d="M651,-122.0336C651,-139.0597 651,-162 651,-162 651,-162 1060.6952,-162 1060.6952,-162"/>
<polygon fill="#000000" stroke="#000000" points="1060.6953,-165.5001 1070.6952,-162 1060.6952,-158.5001 1060.6953,-165.5001"/>
</g>
<!-- UserListComponent -->
<g id="node11" class="node">
<title>UserListComponent</title>
<polygon fill="#ffffb3" stroke="#000000" points="553.538,-122 424.462,-122 424.462,-86 553.538,-86 553.538,-122"/>
<text text-anchor="middle" x="489" y="-99.8" font-family="Times,serif" font-size="14.00" fill="#000000">UserListComponent</text>
</g>
<!-- UserListComponent&#45;&gt;AdminModule -->
<g id="edge11" class="edge">
<title>UserListComponent&#45;&gt;AdminModule</title>
<path fill="none" stroke="#000000" d="M489,-122.2222C489,-140.8285 489,-167 489,-167 489,-167 1060.7493,-167 1060.7493,-167"/>
<polygon fill="#000000" stroke="#000000" points="1060.7494,-170.5001 1070.7493,-167 1060.7493,-163.5001 1060.7494,-170.5001"/>
</g>
<!-- AdminRoutingModule -->
<g id="node13" class="node">
<title>AdminRoutingModule</title>
<polygon fill="#8dd3c7" stroke="#000000" points="399.5561,-122 396.5561,-126 375.5561,-126 372.5561,-122 256.4439,-122 256.4439,-86 399.5561,-86 399.5561,-122"/>
<text text-anchor="middle" x="328" y="-99.8" font-family="Times,serif" font-size="14.00" fill="#000000">AdminRoutingModule</text>
</g>
<!-- AdminRoutingModule&#45;&gt;AdminModule -->
<g id="edge12" class="edge">
<title>AdminRoutingModule&#45;&gt;AdminModule</title>
<path fill="none" stroke="#000000" d="M328,-122.2228C328,-142.3652 328,-172 328,-172 328,-172 1060.7561,-172 1060.7561,-172"/>
<polygon fill="#000000" stroke="#000000" points="1060.7561,-175.5001 1070.7561,-172 1060.7561,-168.5001 1060.7561,-175.5001"/>
</g>
<!-- EventsModule -->
<g id="node14" class="node">
<title>EventsModule</title>
<polygon fill="#8dd3c7" stroke="#000000" points="237.6528,-122 234.6528,-126 213.6528,-126 210.6528,-122 140.3472,-122 140.3472,-86 237.6528,-86 237.6528,-122"/>
<text text-anchor="middle" x="189" y="-99.8" font-family="Times,serif" font-size="14.00" fill="#000000">EventsModule</text>
</g>
<!-- EventsModule&#45;&gt;AdminModule -->
<g id="edge13" class="edge">
<title>EventsModule&#45;&gt;AdminModule</title>
<path fill="none" stroke="#000000" d="M189,-122.0449C189,-143.6623 189,-177 189,-177 189,-177 1060.6027,-177 1060.6027,-177"/>
<polygon fill="#000000" stroke="#000000" points="1060.6028,-180.5001 1070.6027,-177 1060.6027,-173.5001 1060.6028,-180.5001"/>
</g>
<!-- SharedModule -->
<g id="node15" class="node">
<title>SharedModule</title>
<polygon fill="#8dd3c7" stroke="#000000" points="122.4231,-122 119.4231,-126 98.4231,-126 95.4231,-122 23.5769,-122 23.5769,-86 122.4231,-86 122.4231,-122"/>
<text text-anchor="middle" x="73" y="-99.8" font-family="Times,serif" font-size="14.00" fill="#000000">SharedModule</text>
</g>
<!-- SharedModule&#45;&gt;AdminModule -->
<g id="edge14" class="edge">
<title>SharedModule&#45;&gt;AdminModule</title>
<path fill="none" stroke="#000000" d="M73,-122.0908C73,-145.1328 73,-182 73,-182 73,-182 1060.5559,-182 1060.5559,-182"/>
<polygon fill="#000000" stroke="#000000" points="1060.5559,-185.5001 1070.5559,-182 1060.5559,-178.5001 1060.5559,-185.5001"/>
</g>
</g>
</svg>
