<?xml version="1.0" encoding="UTF-8" standalone="no"?>
<!DOCTYPE svg PUBLIC "-//W3C//DTD SVG 1.1//EN"
 "http://www.w3.org/Graphics/SVG/1.1/DTD/svg11.dtd">
<!-- Generated by graphviz version 2.40.1 (20161225.0304)
 -->
<!-- Title: dependencies Pages: 1 -->
<svg width="2792pt" height="211pt"
 viewBox="0.00 0.00 2792.00 211.00" xmlns="http://www.w3.org/2000/svg" xmlns:xlink="http://www.w3.org/1999/xlink">
<g id="graph0" class="graph" transform="scale(1 1) rotate(0) translate(4 207)">
<title>dependencies</title>
<polygon fill="#ffffff" stroke="transparent" points="-4,4 -4,-207 2788,-207 2788,4 -4,4"/>
<text text-anchor="start" x="1371.0091" y="-42.4" font-family="sans-serif" font-weight="bold" font-size="14.00" fill="#000000">Legend</text>
<polygon fill="#ffffb3" stroke="transparent" points="1158,-10 1158,-30 1178,-30 1178,-10 1158,-10"/>
<text text-anchor="start" x="1181.629" y="-15.4" font-family="sans-serif" font-size="14.00" fill="#000000"> &#160;Declarations</text>
<polygon fill="#8dd3c7" stroke="transparent" points="1271,-10 1271,-30 1291,-30 1291,-10 1271,-10"/>
<text text-anchor="start" x="1294.7251" y="-15.4" font-family="sans-serif" font-size="14.00" fill="#000000"> &#160;Module</text>
<polygon fill="#80b1d3" stroke="transparent" points="1357,-10 1357,-30 1377,-30 1377,-10 1357,-10"/>
<text text-anchor="start" x="1380.7812" y="-15.4" font-family="sans-serif" font-size="14.00" fill="#000000"> &#160;Bootstrap</text>
<polygon fill="#fdb462" stroke="transparent" points="1454,-10 1454,-30 1474,-30 1474,-10 1454,-10"/>
<text text-anchor="start" x="1477.6732" y="-15.4" font-family="sans-serif" font-size="14.00" fill="#000000"> &#160;Providers</text>
<polygon fill="#fb8072" stroke="transparent" points="1550,-10 1550,-30 1570,-30 1570,-10 1550,-10"/>
<text text-anchor="start" x="1573.7258" y="-15.4" font-family="sans-serif" font-size="14.00" fill="#000000"> &#160;Exports</text>
<g id="clust1" class="cluster">
<title>cluster_AdminModule</title>
<polygon fill="none" stroke="#000000" stroke-dasharray="1,5" points="8,-70 8,-195 2776,-195 2776,-70 8,-70"/>
</g>
<g id="clust2" class="cluster">
<title>cluster_AdminModule_declarations</title>
<polygon fill="none" stroke="#000000" points="416,-78 416,-130 2768,-130 2768,-78 416,-78"/>
</g>
<g id="clust16" class="cluster">
<title>cluster_AdminModule_imports</title>
<polygon fill="none" stroke="#000000" points="16,-78 16,-130 408,-130 408,-78 16,-78"/>
</g>
<!-- AddUserComponent -->
<g id="node1" class="node">
<title>AddUserComponent</title>
<polygon fill="#ffffb3" stroke="#000000" points="2759.8655,-122 2628.1345,-122 2628.1345,-86 2759.8655,-86 2759.8655,-122"/>
<text text-anchor="middle" x="2694" y="-99.8" font-family="Times,serif" font-size="14.00" fill="#000000">AddUserComponent</text>
</g>
<!-- AdminModule -->
<g id="node14" class="node">
<title>AdminModule</title>
<polygon fill="#8dd3c7" stroke="#000000" points="1361.4386,-187 1358.4386,-191 1337.4386,-191 1334.4386,-187 1262.5614,-187 1262.5614,-151 1361.4386,-151 1361.4386,-187"/>
<text text-anchor="middle" x="1312" y="-164.8" font-family="Times,serif" font-size="14.00" fill="#000000">AdminModule</text>
</g>
<!-- AddUserComponent&#45;&gt;AdminModule -->
<g id="edge1" class="edge">
<title>AddUserComponent&#45;&gt;AdminModule</title>
<path fill="none" stroke="#000000" d="M2694,-122.3228C2694,-145.6602 2694,-183 2694,-183 2694,-183 1371.5936,-183 1371.5936,-183"/>
<polygon fill="#000000" stroke="#000000" points="1371.5936,-179.5001 1361.5936,-183 1371.5935,-186.5001 1371.5936,-179.5001"/>
</g>
<!-- AddtournamentroundComponent -->
<g id="node2" class="node">
<title>AddtournamentroundComponent</title>
<polygon fill="#ffffb3" stroke="#000000" points="2609.8612,-122 2408.1388,-122 2408.1388,-86 2609.8612,-86 2609.8612,-122"/>
<text text-anchor="middle" x="2509" y="-99.8" font-family="Times,serif" font-size="14.00" fill="#000000">AddtournamentroundComponent</text>
</g>
<!-- AddtournamentroundComponent&#45;&gt;AdminModule -->
<g id="edge2" class="edge">
<title>AddtournamentroundComponent&#45;&gt;AdminModule</title>
<path fill="none" stroke="#000000" d="M2509,-122.2921C2509,-144.2057 2509,-178 2509,-178 2509,-178 1371.5319,-178 1371.5319,-178"/>
<polygon fill="#000000" stroke="#000000" points="1371.5319,-174.5001 1361.5319,-178 1371.5318,-181.5001 1371.5319,-174.5001"/>
</g>
<!-- AdminComponent -->
<g id="node3" class="node">
<title>AdminComponent</title>
<polygon fill="#ffffb3" stroke="#000000" points="2390.2204,-122 2269.7796,-122 2269.7796,-86 2390.2204,-86 2390.2204,-122"/>
<text text-anchor="middle" x="2330" y="-99.8" font-family="Times,serif" font-size="14.00" fill="#000000">AdminComponent</text>
</g>
<!-- AdminComponent&#45;&gt;AdminModule -->
<g id="edge3" class="edge">
<title>AdminComponent&#45;&gt;AdminModule</title>
<path fill="none" stroke="#000000" d="M2330,-122.0267C2330,-142.7672 2330,-174 2330,-174 2330,-174 1371.4443,-174 1371.4443,-174"/>
<polygon fill="#000000" stroke="#000000" points="1371.4443,-170.5001 1361.4443,-174 1371.4443,-177.5001 1371.4443,-170.5001"/>
</g>
<!-- EditRankingPenaltyComponent -->
<g id="node4" class="node">
<title>EditRankingPenaltyComponent</title>
<polygon fill="#ffffb3" stroke="#000000" points="2252.101,-122 2057.899,-122 2057.899,-86 2252.101,-86 2252.101,-122"/>
<text text-anchor="middle" x="2155" y="-99.8" font-family="Times,serif" font-size="14.00" fill="#000000">EditRankingPenaltyComponent</text>
</g>
<!-- EditRankingPenaltyComponent&#45;&gt;AdminModule -->
<g id="edge4" class="edge">
<title>EditRankingPenaltyComponent&#45;&gt;AdminModule</title>
<path fill="none" stroke="#000000" d="M2155,-122.1061C2155,-141.3391 2155,-169 2155,-169 2155,-169 1371.2762,-169 1371.2762,-169"/>
<polygon fill="#000000" stroke="#000000" points="1371.2762,-165.5001 1361.2762,-169 1371.2762,-172.5001 1371.2762,-165.5001"/>
</g>
<!-- ManagePenaltyComponent -->
<g id="node5" class="node">
<title>ManagePenaltyComponent</title>
<polygon fill="#ffffb3" stroke="#000000" points="2040.4143,-122 1871.5857,-122 1871.5857,-86 2040.4143,-86 2040.4143,-122"/>
<text text-anchor="middle" x="1956" y="-99.8" font-family="Times,serif" font-size="14.00" fill="#000000">ManagePenaltyComponent</text>
</g>
<!-- ManagePenaltyComponent&#45;&gt;AdminModule -->
<g id="edge5" class="edge">
<title>ManagePenaltyComponent&#45;&gt;AdminModule</title>
<path fill="none" stroke="#000000" d="M1956,-122.302C1956,-140.2699 1956,-165 1956,-165 1956,-165 1371.4643,-165 1371.4643,-165"/>
<polygon fill="#000000" stroke="#000000" points="1371.4643,-161.5001 1361.4643,-165 1371.4642,-168.5001 1371.4643,-161.5001"/>
</g>
<!-- ManagepitchesComponent -->
<g id="node6" class="node">
<title>ManagepitchesComponent</title>
<polygon fill="#ffffb3" stroke="#000000" points="1854.0758,-122 1687.9242,-122 1687.9242,-86 1854.0758,-86 1854.0758,-122"/>
<text text-anchor="middle" x="1771" y="-99.8" font-family="Times,serif" font-size="14.00" fill="#000000">ManagepitchesComponent</text>
</g>
<!-- ManagepitchesComponent&#45;&gt;AdminModule -->
<g id="edge6" class="edge">
<title>ManagepitchesComponent&#45;&gt;AdminModule</title>
<path fill="none" stroke="#000000" d="M1771,-122.027C1771,-138.3976 1771,-160 1771,-160 1771,-160 1371.5571,-160 1371.5571,-160"/>
<polygon fill="#000000" stroke="#000000" points="1371.5572,-156.5001 1361.5571,-160 1371.5571,-163.5001 1371.5572,-156.5001"/>
</g>
<!-- ManageseasonComponent -->
<g id="node7" class="node">
<title>ManageseasonComponent</title>
<polygon fill="#ffffb3" stroke="#000000" points="1669.7394,-122 1506.2606,-122 1506.2606,-86 1669.7394,-86 1669.7394,-122"/>
<text text-anchor="middle" x="1588" y="-99.8" font-family="Times,serif" font-size="14.00" fill="#000000">ManageseasonComponent</text>
</g>
<!-- ManageseasonComponent&#45;&gt;AdminModule -->
<g id="edge7" class="edge">
<title>ManageseasonComponent&#45;&gt;AdminModule</title>
<path fill="none" stroke="#000000" d="M1588,-122.1871C1588,-137.1824 1588,-156 1588,-156 1588,-156 1371.3433,-156 1371.3433,-156"/>
<polygon fill="#000000" stroke="#000000" points="1371.3433,-152.5001 1361.3433,-156 1371.3432,-159.5001 1371.3433,-152.5001"/>
</g>
<!-- ManageteamsComponent -->
<g id="node8" class="node">
<title>ManageteamsComponent</title>
<polygon fill="#ffffb3" stroke="#000000" points="1488.5758,-122 1329.4242,-122 1329.4242,-86 1488.5758,-86 1488.5758,-122"/>
<text text-anchor="middle" x="1409" y="-99.8" font-family="Times,serif" font-size="14.00" fill="#000000">ManageteamsComponent</text>
</g>
<!-- ManageteamsComponent&#45;&gt;AdminModule -->
<g id="edge8" class="edge">
<title>ManageteamsComponent&#45;&gt;AdminModule</title>
<path fill="none" stroke="#000000" d="M1345.3405,-122.1061C1345.3405,-122.1061 1345.3405,-140.991 1345.3405,-140.991"/>
<polygon fill="#000000" stroke="#000000" points="1341.8405,-140.9909 1345.3405,-150.991 1348.8405,-140.991 1341.8405,-140.9909"/>
</g>
<!-- ManagetournamentComponent -->
<g id="node9" class="node">
<title>ManagetournamentComponent</title>
<polygon fill="#ffffb3" stroke="#000000" points="1311.1825,-122 1120.8175,-122 1120.8175,-86 1311.1825,-86 1311.1825,-122"/>
<text text-anchor="middle" x="1216" y="-99.8" font-family="Times,serif" font-size="14.00" fill="#000000">ManagetournamentComponent</text>
</g>
<!-- ManagetournamentComponent&#45;&gt;AdminModule -->
<g id="edge9" class="edge">
<title>ManagetournamentComponent&#45;&gt;AdminModule</title>
<path fill="none" stroke="#000000" d="M1286.9362,-122.1061C1286.9362,-122.1061 1286.9362,-140.991 1286.9362,-140.991"/>
<polygon fill="#000000" stroke="#000000" points="1283.4363,-140.9909 1286.9362,-150.991 1290.4363,-140.991 1283.4363,-140.9909"/>
</g>
<!-- ManageusersComponent -->
<g id="node10" class="node">
<title>ManageusersComponent</title>
<polygon fill="#ffffb3" stroke="#000000" points="1102.6853,-122 947.3147,-122 947.3147,-86 1102.6853,-86 1102.6853,-122"/>
<text text-anchor="middle" x="1025" y="-99.8" font-family="Times,serif" font-size="14.00" fill="#000000">ManageusersComponent</text>
</g>
<!-- ManageusersComponent&#45;&gt;AdminModule -->
<g id="edge10" class="edge">
<title>ManageusersComponent&#45;&gt;AdminModule</title>
<path fill="none" stroke="#000000" d="M1025,-122.1871C1025,-137.1824 1025,-156 1025,-156 1025,-156 1252.6629,-156 1252.6629,-156"/>
<polygon fill="#000000" stroke="#000000" points="1252.663,-159.5001 1262.6629,-156 1252.6629,-152.5001 1252.663,-159.5001"/>
</g>
<!-- MatchSchedulingComponent -->
<g id="node11" class="node">
<title>MatchSchedulingComponent</title>
<polygon fill="#ffffb3" stroke="#000000" points="929.0898,-122 748.9102,-122 748.9102,-86 929.0898,-86 929.0898,-122"/>
<text text-anchor="middle" x="839" y="-99.8" font-family="Times,serif" font-size="14.00" fill="#000000">MatchSchedulingComponent</text>
</g>
<!-- MatchSchedulingComponent&#45;&gt;AdminModule -->
<g id="edge11" class="edge">
<title>MatchSchedulingComponent&#45;&gt;AdminModule</title>
<path fill="none" stroke="#000000" d="M839,-122.027C839,-138.3976 839,-160 839,-160 839,-160 1252.7193,-160 1252.7193,-160"/>
<polygon fill="#000000" stroke="#000000" points="1252.7193,-163.5001 1262.7193,-160 1252.7192,-156.5001 1252.7193,-163.5001"/>
</g>
<!-- RenameTeamComponent -->
<g id="node12" class="node">
<title>RenameTeamComponent</title>
<polygon fill="#ffffb3" stroke="#000000" points="730.5758,-122 571.4242,-122 571.4242,-86 730.5758,-86 730.5758,-122"/>
<text text-anchor="middle" x="651" y="-99.8" font-family="Times,serif" font-size="14.00" fill="#000000">RenameTeamComponent</text>
</g>
<!-- RenameTeamComponent&#45;&gt;AdminModule -->
<g id="edge12" class="edge">
<title>RenameTeamComponent&#45;&gt;AdminModule</title>
<path fill="none" stroke="#000000" d="M651,-122.302C651,-140.2699 651,-165 651,-165 651,-165 1252.5879,-165 1252.5879,-165"/>
<polygon fill="#000000" stroke="#000000" points="1252.5879,-168.5001 1262.5879,-165 1252.5879,-161.5001 1252.5879,-168.5001"/>
</g>
<!-- UserListComponent -->
<g id="node13" class="node">
<title>UserListComponent</title>
<polygon fill="#ffffb3" stroke="#000000" points="553.538,-122 424.462,-122 424.462,-86 553.538,-86 553.538,-122"/>
<text text-anchor="middle" x="489" y="-99.8" font-family="Times,serif" font-size="14.00" fill="#000000">UserListComponent</text>
</g>
<!-- UserListComponent&#45;&gt;AdminModule -->
<g id="edge13" class="edge">
<title>UserListComponent&#45;&gt;AdminModule</title>
<path fill="none" stroke="#000000" d="M489,-122.1061C489,-141.3391 489,-169 489,-169 489,-169 1252.6771,-169 1252.6771,-169"/>
<polygon fill="#000000" stroke="#000000" points="1252.6771,-172.5001 1262.6771,-169 1252.677,-165.5001 1252.6771,-172.5001"/>
</g>
<!-- AdminRoutingModule -->
<g id="node15" class="node">
<title>AdminRoutingModule</title>
<polygon fill="#8dd3c7" stroke="#000000" points="399.5561,-122 396.5561,-126 375.5561,-126 372.5561,-122 256.4439,-122 256.4439,-86 399.5561,-86 399.5561,-122"/>
<text text-anchor="middle" x="328" y="-99.8" font-family="Times,serif" font-size="14.00" fill="#000000">AdminRoutingModule</text>
</g>
<!-- AdminRoutingModule&#45;&gt;AdminModule -->
<g id="edge14" class="edge">
<title>AdminRoutingModule&#45;&gt;AdminModule</title>
<path fill="none" stroke="#000000" d="M328,-122.0267C328,-142.7672 328,-174 328,-174 328,-174 1252.5289,-174 1252.5289,-174"/>
<polygon fill="#000000" stroke="#000000" points="1252.529,-177.5001 1262.5289,-174 1252.5289,-170.5001 1252.529,-177.5001"/>
</g>
<!-- EventsModule -->
<g id="node16" class="node">
<title>EventsModule</title>
<polygon fill="#8dd3c7" stroke="#000000" points="237.6528,-122 234.6528,-126 213.6528,-126 210.6528,-122 140.3472,-122 140.3472,-86 237.6528,-86 237.6528,-122"/>
<text text-anchor="middle" x="189" y="-99.8" font-family="Times,serif" font-size="14.00" fill="#000000">EventsModule</text>
</g>
<!-- EventsModule&#45;&gt;AdminModule -->
<g id="edge15" class="edge">
<title>EventsModule&#45;&gt;AdminModule</title>
<path fill="none" stroke="#000000" d="M189,-122.2921C189,-144.2057 189,-178 189,-178 189,-178 1252.6611,-178 1252.6611,-178"/>
<polygon fill="#000000" stroke="#000000" points="1252.6612,-181.5001 1262.6611,-178 1252.6611,-174.5001 1252.6612,-181.5001"/>
</g>
<!-- SharedModule -->
<g id="node17" class="node">
<title>SharedModule</title>
<polygon fill="#8dd3c7" stroke="#000000" points="122.4231,-122 119.4231,-126 98.4231,-126 95.4231,-122 23.5769,-122 23.5769,-86 122.4231,-86 122.4231,-122"/>
<text text-anchor="middle" x="73" y="-99.8" font-family="Times,serif" font-size="14.00" fill="#000000">SharedModule</text>
</g>
<!-- SharedModule&#45;&gt;AdminModule -->
<g id="edge16" class="edge">
<title>SharedModule&#45;&gt;AdminModule</title>
<path fill="none" stroke="#000000" d="M73,-122.3228C73,-145.6602 73,-183 73,-183 73,-183 1252.6651,-183 1252.6651,-183"/>
<polygon fill="#000000" stroke="#000000" points="1252.6652,-186.5001 1262.6651,-183 1252.6651,-179.5001 1252.6652,-186.5001"/>
</g>
</g>
</svg>
