<?xml version="1.0" encoding="UTF-8" standalone="no"?>
<!DOCTYPE svg PUBLIC "-//W3C//DTD SVG 1.1//EN"
 "http://www.w3.org/Graphics/SVG/1.1/DTD/svg11.dtd">
<!-- Generated by graphviz version 2.40.1 (20161225.0304)
 -->
<!-- Title: dependencies Pages: 1 -->
<svg width="2183pt" height="211pt"
 viewBox="0.00 0.00 2183.00 211.00" xmlns="http://www.w3.org/2000/svg" xmlns:xlink="http://www.w3.org/1999/xlink">
<g id="graph0" class="graph" transform="scale(1 1) rotate(0) translate(4 207)">
<title>dependencies</title>
<polygon fill="#ffffff" stroke="transparent" points="-4,4 -4,-207 2179,-207 2179,4 -4,4"/>
<text text-anchor="start" x="1066.5091" y="-42.4" font-family="sans-serif" font-weight="bold" font-size="14.00" fill="#000000">Legend</text>
<polygon fill="#ffffb3" stroke="transparent" points="853.5,-10 853.5,-30 873.5,-30 873.5,-10 853.5,-10"/>
<text text-anchor="start" x="877.129" y="-15.4" font-family="sans-serif" font-size="14.00" fill="#000000"> &#160;Declarations</text>
<polygon fill="#8dd3c7" stroke="transparent" points="966.5,-10 966.5,-30 986.5,-30 986.5,-10 966.5,-10"/>
<text text-anchor="start" x="990.2251" y="-15.4" font-family="sans-serif" font-size="14.00" fill="#000000"> &#160;Module</text>
<polygon fill="#80b1d3" stroke="transparent" points="1052.5,-10 1052.5,-30 1072.5,-30 1072.5,-10 1052.5,-10"/>
<text text-anchor="start" x="1076.2812" y="-15.4" font-family="sans-serif" font-size="14.00" fill="#000000"> &#160;Bootstrap</text>
<polygon fill="#fdb462" stroke="transparent" points="1149.5,-10 1149.5,-30 1169.5,-30 1169.5,-10 1149.5,-10"/>
<text text-anchor="start" x="1173.1732" y="-15.4" font-family="sans-serif" font-size="14.00" fill="#000000"> &#160;Providers</text>
<polygon fill="#fb8072" stroke="transparent" points="1245.5,-10 1245.5,-30 1265.5,-30 1265.5,-10 1245.5,-10"/>
<text text-anchor="start" x="1269.2258" y="-15.4" font-family="sans-serif" font-size="14.00" fill="#000000"> &#160;Exports</text>
<g id="clust1" class="cluster">
<title>cluster_AdminModule</title>
<polygon fill="none" stroke="#000000" stroke-dasharray="1,5" points="8,-70 8,-195 2167,-195 2167,-70 8,-70"/>
</g>
<g id="clust2" class="cluster">
<title>cluster_AdminModule_declarations</title>
<polygon fill="none" stroke="#000000" points="416,-78 416,-130 2159,-130 2159,-78 416,-78"/>
</g>
<g id="clust13" class="cluster">
<title>cluster_AdminModule_imports</title>
<polygon fill="none" stroke="#000000" points="16,-78 16,-130 408,-130 408,-78 16,-78"/>
</g>
<!-- AddUserComponent -->
<g id="node1" class="node">
<title>AddUserComponent</title>
<polygon fill="#ffffb3" stroke="#000000" points="2150.8655,-122 2019.1345,-122 2019.1345,-86 2150.8655,-86 2150.8655,-122"/>
<text text-anchor="middle" x="2085" y="-99.8" font-family="Times,serif" font-size="14.00" fill="#000000">AddUserComponent</text>
</g>
<!-- AdminModule -->
<g id="node11" class="node">
<title>AdminModule</title>
<polygon fill="#8dd3c7" stroke="#000000" points="1074.4386,-187 1071.4386,-191 1050.4386,-191 1047.4386,-187 975.5614,-187 975.5614,-151 1074.4386,-151 1074.4386,-187"/>
<text text-anchor="middle" x="1025" y="-164.8" font-family="Times,serif" font-size="14.00" fill="#000000">AdminModule</text>
</g>
<!-- AddUserComponent&#45;&gt;AdminModule -->
<g id="edge1" class="edge">
<title>AddUserComponent&#45;&gt;AdminModule</title>
<path fill="none" stroke="#000000" d="M2085,-122.0908C2085,-145.1328 2085,-182 2085,-182 2085,-182 1084.3516,-182 1084.3516,-182"/>
<polygon fill="#000000" stroke="#000000" points="1084.3517,-178.5001 1074.3516,-182 1084.3516,-185.5001 1084.3517,-178.5001"/>
</g>
<!-- AddteamComponent -->
<g id="node2" class="node">
<title>AddteamComponent</title>
<polygon fill="#ffffb3" stroke="#000000" points="2001.1499,-122 1868.8501,-122 1868.8501,-86 2001.1499,-86 2001.1499,-122"/>
<text text-anchor="middle" x="1935" y="-99.8" font-family="Times,serif" font-size="14.00" fill="#000000">AddteamComponent</text>
</g>
<!-- AddteamComponent&#45;&gt;AdminModule -->
<g id="edge2" class="edge">
<title>AddteamComponent&#45;&gt;AdminModule</title>
<path fill="none" stroke="#000000" d="M1935,-122.0449C1935,-143.6623 1935,-177 1935,-177 1935,-177 1084.2482,-177 1084.2482,-177"/>
<polygon fill="#000000" stroke="#000000" points="1084.2482,-173.5001 1074.2482,-177 1084.2482,-180.5001 1084.2482,-173.5001"/>
</g>
<!-- AddtournamentroundComponent -->
<g id="node3" class="node">
<title>AddtournamentroundComponent</title>
<polygon fill="#ffffb3" stroke="#000000" points="1850.8612,-122 1649.1388,-122 1649.1388,-86 1850.8612,-86 1850.8612,-122"/>
<text text-anchor="middle" x="1750" y="-99.8" font-family="Times,serif" font-size="14.00" fill="#000000">AddtournamentroundComponent</text>
</g>
<!-- AddtournamentroundComponent&#45;&gt;AdminModule -->
<g id="edge3" class="edge">
<title>AddtournamentroundComponent&#45;&gt;AdminModule</title>
<path fill="none" stroke="#000000" d="M1750,-122.2228C1750,-142.3652 1750,-172 1750,-172 1750,-172 1084.2622,-172 1084.2622,-172"/>
<polygon fill="#000000" stroke="#000000" points="1084.2622,-168.5001 1074.2622,-172 1084.2622,-175.5001 1084.2622,-168.5001"/>
</g>
<!-- AdminComponent -->
<g id="node4" class="node">
<title>AdminComponent</title>
<polygon fill="#ffffb3" stroke="#000000" points="1631.2204,-122 1510.7796,-122 1510.7796,-86 1631.2204,-86 1631.2204,-122"/>
<text text-anchor="middle" x="1571" y="-99.8" font-family="Times,serif" font-size="14.00" fill="#000000">AdminComponent</text>
</g>
<!-- AdminComponent&#45;&gt;AdminModule -->
<g id="edge4" class="edge">
<title>AdminComponent&#45;&gt;AdminModule</title>
<path fill="none" stroke="#000000" d="M1571,-122.2222C1571,-140.8285 1571,-167 1571,-167 1571,-167 1084.4168,-167 1084.4168,-167"/>
<polygon fill="#000000" stroke="#000000" points="1084.4169,-163.5001 1074.4168,-167 1084.4168,-170.5001 1084.4169,-163.5001"/>
</g>
<!-- ManageseasonComponent -->
<g id="node5" class="node">
<title>ManageseasonComponent</title>
<polygon fill="#ffffb3" stroke="#000000" points="1492.7394,-122 1329.2606,-122 1329.2606,-86 1492.7394,-86 1492.7394,-122"/>
<text text-anchor="middle" x="1411" y="-99.8" font-family="Times,serif" font-size="14.00" fill="#000000">ManageseasonComponent</text>
</g>
<!-- ManageseasonComponent&#45;&gt;AdminModule -->
<g id="edge5" class="edge">
<title>ManageseasonComponent&#45;&gt;AdminModule</title>
<path fill="none" stroke="#000000" d="M1411,-122.0336C1411,-139.0597 1411,-162 1411,-162 1411,-162 1084.2792,-162 1084.2792,-162"/>
<polygon fill="#000000" stroke="#000000" points="1084.2793,-158.5001 1074.2792,-162 1084.2792,-165.5001 1084.2793,-158.5001"/>
</g>
<!-- ManagetournamentComponent -->
<g id="node6" class="node">
<title>ManagetournamentComponent</title>
<polygon fill="#ffffb3" stroke="#000000" points="1311.1825,-122 1120.8175,-122 1120.8175,-86 1311.1825,-86 1311.1825,-122"/>
<text text-anchor="middle" x="1216" y="-99.8" font-family="Times,serif" font-size="14.00" fill="#000000">ManagetournamentComponent</text>
</g>
<!-- ManagetournamentComponent&#45;&gt;AdminModule -->
<g id="edge6" class="edge">
<title>ManagetournamentComponent&#45;&gt;AdminModule</title>
<path fill="none" stroke="#000000" d="M1216,-122.2396C1216,-137.5706 1216,-157 1216,-157 1216,-157 1084.6844,-157 1084.6844,-157"/>
<polygon fill="#000000" stroke="#000000" points="1084.6844,-153.5001 1074.6844,-157 1084.6844,-160.5001 1084.6844,-153.5001"/>
</g>
<!-- ManageusersComponent -->
<g id="node7" class="node">
<title>ManageusersComponent</title>
<polygon fill="#ffffb3" stroke="#000000" points="1102.6853,-122 947.3147,-122 947.3147,-86 1102.6853,-86 1102.6853,-122"/>
<text text-anchor="middle" x="1025" y="-99.8" font-family="Times,serif" font-size="14.00" fill="#000000">ManageusersComponent</text>
</g>
<!-- ManageusersComponent&#45;&gt;AdminModule -->
<g id="edge7" class="edge">
<title>ManageusersComponent&#45;&gt;AdminModule</title>
<path fill="none" stroke="#000000" d="M1025,-122.1061C1025,-122.1061 1025,-140.991 1025,-140.991"/>
<polygon fill="#000000" stroke="#000000" points="1021.5001,-140.9909 1025,-150.991 1028.5001,-140.991 1021.5001,-140.9909"/>
</g>
<!-- MatchSchedulingComponent -->
<g id="node8" class="node">
<title>MatchSchedulingComponent</title>
<polygon fill="#ffffb3" stroke="#000000" points="929.0898,-122 748.9102,-122 748.9102,-86 929.0898,-86 929.0898,-122"/>
<text text-anchor="middle" x="839" y="-99.8" font-family="Times,serif" font-size="14.00" fill="#000000">MatchSchedulingComponent</text>
</g>
<!-- MatchSchedulingComponent&#45;&gt;AdminModule -->
<g id="edge8" class="edge">
<title>MatchSchedulingComponent&#45;&gt;AdminModule</title>
<path fill="none" stroke="#000000" d="M839,-122.2396C839,-137.5706 839,-157 839,-157 839,-157 965.6437,-157 965.6437,-157"/>
<polygon fill="#000000" stroke="#000000" points="965.6438,-160.5001 975.6437,-157 965.6437,-153.5001 965.6438,-160.5001"/>
</g>
<!-- RenameTeamComponent -->
<g id="node9" class="node">
<title>RenameTeamComponent</title>
<polygon fill="#ffffb3" stroke="#000000" points="730.5758,-122 571.4242,-122 571.4242,-86 730.5758,-86 730.5758,-122"/>
<text text-anchor="middle" x="651" y="-99.8" font-family="Times,serif" font-size="14.00" fill="#000000">RenameTeamComponent</text>
</g>
<!-- RenameTeamComponent&#45;&gt;AdminModule -->
<g id="edge9" class="edge">
<title>RenameTeamComponent&#45;&gt;AdminModule</title>
<path fill="none" stroke="#000000" d="M651,-122.0336C651,-139.0597 651,-162 651,-162 651,-162 965.7214,-162 965.7214,-162"/>
<polygon fill="#000000" stroke="#000000" points="965.7215,-165.5001 975.7214,-162 965.7214,-158.5001 965.7215,-165.5001"/>
</g>
<!-- UserListComponent -->
<g id="node10" class="node">
<title>UserListComponent</title>
<polygon fill="#ffffb3" stroke="#000000" points="553.538,-122 424.462,-122 424.462,-86 553.538,-86 553.538,-122"/>
<text text-anchor="middle" x="489" y="-99.8" font-family="Times,serif" font-size="14.00" fill="#000000">UserListComponent</text>
</g>
<!-- UserListComponent&#45;&gt;AdminModule -->
<g id="edge10" class="edge">
<title>UserListComponent&#45;&gt;AdminModule</title>
<path fill="none" stroke="#000000" d="M489,-122.2222C489,-140.8285 489,-167 489,-167 489,-167 965.5352,-167 965.5352,-167"/>
<polygon fill="#000000" stroke="#000000" points="965.5352,-170.5001 975.5352,-167 965.5351,-163.5001 965.5352,-170.5001"/>
</g>
<!-- AdminRoutingModule -->
<g id="node12" class="node">
<title>AdminRoutingModule</title>
<polygon fill="#8dd3c7" stroke="#000000" points="399.5561,-122 396.5561,-126 375.5561,-126 372.5561,-122 256.4439,-122 256.4439,-86 399.5561,-86 399.5561,-122"/>
<text text-anchor="middle" x="328" y="-99.8" font-family="Times,serif" font-size="14.00" fill="#000000">AdminRoutingModule</text>
</g>
<!-- AdminRoutingModule&#45;&gt;AdminModule -->
<g id="edge11" class="edge">
<title>AdminRoutingModule&#45;&gt;AdminModule</title>
<path fill="none" stroke="#000000" d="M328,-122.2228C328,-142.3652 328,-172 328,-172 328,-172 965.7106,-172 965.7106,-172"/>
<polygon fill="#000000" stroke="#000000" points="965.7106,-175.5001 975.7106,-172 965.7106,-168.5001 965.7106,-175.5001"/>
</g>
<!-- EventsModule -->
<g id="node13" class="node">
<title>EventsModule</title>
<polygon fill="#8dd3c7" stroke="#000000" points="237.6528,-122 234.6528,-126 213.6528,-126 210.6528,-122 140.3472,-122 140.3472,-86 237.6528,-86 237.6528,-122"/>
<text text-anchor="middle" x="189" y="-99.8" font-family="Times,serif" font-size="14.00" fill="#000000">EventsModule</text>
</g>
<!-- EventsModule&#45;&gt;AdminModule -->
<g id="edge12" class="edge">
<title>EventsModule&#45;&gt;AdminModule</title>
<path fill="none" stroke="#000000" d="M189,-122.0449C189,-143.6623 189,-177 189,-177 189,-177 965.5172,-177 965.5172,-177"/>
<polygon fill="#000000" stroke="#000000" points="965.5172,-180.5001 975.5172,-177 965.5171,-173.5001 965.5172,-180.5001"/>
</g>
<!-- SharedModule -->
<g id="node14" class="node">
<title>SharedModule</title>
<polygon fill="#8dd3c7" stroke="#000000" points="122.4231,-122 119.4231,-126 98.4231,-126 95.4231,-122 23.5769,-122 23.5769,-86 122.4231,-86 122.4231,-122"/>
<text text-anchor="middle" x="73" y="-99.8" font-family="Times,serif" font-size="14.00" fill="#000000">SharedModule</text>
</g>
<!-- SharedModule&#45;&gt;AdminModule -->
<g id="edge13" class="edge">
<title>SharedModule&#45;&gt;AdminModule</title>
<path fill="none" stroke="#000000" d="M73,-122.0908C73,-145.1328 73,-182 73,-182 73,-182 965.4894,-182 965.4894,-182"/>
<polygon fill="#000000" stroke="#000000" points="965.4894,-185.5001 975.4894,-182 965.4893,-178.5001 965.4894,-185.5001"/>
</g>
</g>
</svg>
