<?xml version="1.0" encoding="UTF-8" standalone="no"?>
<!DOCTYPE svg PUBLIC "-//W3C//DTD SVG 1.1//EN"
 "http://www.w3.org/Graphics/SVG/1.1/DTD/svg11.dtd">
<!-- Generated by graphviz version 2.40.1 (20161225.0304)
 -->
<!-- Title: dependencies Pages: 1 -->
<svg width="1279pt" height="284pt"
 viewBox="0.00 0.00 1279.00 284.00" xmlns="http://www.w3.org/2000/svg" xmlns:xlink="http://www.w3.org/1999/xlink">
<g id="graph0" class="graph" transform="scale(1 1) rotate(0) translate(4 280)">
<title>dependencies</title>
<polygon fill="#ffffff" stroke="transparent" points="-4,4 -4,-280 1275,-280 1275,4 -4,4"/>
<text text-anchor="start" x="614.5091" y="-42.4" font-family="sans-serif" font-weight="bold" font-size="14.00" fill="#000000">Legend</text>
<polygon fill="#ffffb3" stroke="transparent" points="401.5,-10 401.5,-30 421.5,-30 421.5,-10 401.5,-10"/>
<text text-anchor="start" x="425.129" y="-15.4" font-family="sans-serif" font-size="14.00" fill="#000000"> &#160;Declarations</text>
<polygon fill="#8dd3c7" stroke="transparent" points="514.5,-10 514.5,-30 534.5,-30 534.5,-10 514.5,-10"/>
<text text-anchor="start" x="538.2251" y="-15.4" font-family="sans-serif" font-size="14.00" fill="#000000"> &#160;Module</text>
<polygon fill="#80b1d3" stroke="transparent" points="600.5,-10 600.5,-30 620.5,-30 620.5,-10 600.5,-10"/>
<text text-anchor="start" x="624.2812" y="-15.4" font-family="sans-serif" font-size="14.00" fill="#000000"> &#160;Bootstrap</text>
<polygon fill="#fdb462" stroke="transparent" points="697.5,-10 697.5,-30 717.5,-30 717.5,-10 697.5,-10"/>
<text text-anchor="start" x="721.1732" y="-15.4" font-family="sans-serif" font-size="14.00" fill="#000000"> &#160;Providers</text>
<polygon fill="#fb8072" stroke="transparent" points="793.5,-10 793.5,-30 813.5,-30 813.5,-10 793.5,-10"/>
<text text-anchor="start" x="817.2258" y="-15.4" font-family="sans-serif" font-size="14.00" fill="#000000"> &#160;Exports</text>
<g id="clust1" class="cluster">
<title>cluster_AppModule</title>
<polygon fill="none" stroke="#000000" stroke-dasharray="1,5" points="8,-70 8,-268 1263,-268 1263,-70 8,-70"/>
</g>
<g id="clust2" class="cluster">
<title>cluster_AppModule_declarations</title>
<polygon fill="none" stroke="#000000" points="806,-78 806,-130 1255,-130 1255,-78 806,-78"/>
</g>
<g id="clust6" class="cluster">
<title>cluster_AppModule_imports</title>
<polygon fill="none" stroke="#000000" points="398,-78 398,-130 798,-130 798,-78 398,-78"/>
</g>
<g id="clust8" class="cluster">
<title>cluster_AppModule_bootstrap</title>
<polygon fill="none" stroke="#000000" points="594,-208 594,-260 718,-260 718,-208 594,-208"/>
</g>
<g id="clust9" class="cluster">
<title>cluster_AppModule_providers</title>
<polygon fill="none" stroke="#000000" points="16,-78 16,-130 390,-130 390,-78 16,-78"/>
</g>
<!-- AppComponent -->
<g id="node1" class="node">
<title>AppComponent</title>
<polygon fill="#ffffb3" stroke="#000000" points="1246.9399,-122 1141.0601,-122 1141.0601,-86 1246.9399,-86 1246.9399,-122"/>
<text text-anchor="middle" x="1194" y="-99.8" font-family="Times,serif" font-size="14.00" fill="#000000">AppComponent</text>
</g>
<!-- AppModule -->
<g id="node4" class="node">
<title>AppModule</title>
<polygon fill="#8dd3c7" stroke="#000000" points="697.6571,-187 694.6571,-191 673.6571,-191 670.6571,-187 614.3429,-187 614.3429,-151 697.6571,-151 697.6571,-187"/>
<text text-anchor="middle" x="656" y="-164.8" font-family="Times,serif" font-size="14.00" fill="#000000">AppModule</text>
</g>
<!-- AppComponent&#45;&gt;AppModule -->
<g id="edge1" class="edge">
<title>AppComponent&#45;&gt;AppModule</title>
<path fill="none" stroke="#000000" d="M1194,-122.2921C1194,-144.2057 1194,-178 1194,-178 1194,-178 707.7683,-178 707.7683,-178"/>
<polygon fill="#000000" stroke="#000000" points="707.7683,-174.5001 697.7683,-178 707.7682,-181.5001 707.7683,-174.5001"/>
</g>
<!-- ChangepasswordComponent -->
<g id="node2" class="node">
<title>ChangepasswordComponent</title>
<polygon fill="#ffffb3" stroke="#000000" points="1123.4692,-122 946.5308,-122 946.5308,-86 1123.4692,-86 1123.4692,-122"/>
<text text-anchor="middle" x="1035" y="-99.8" font-family="Times,serif" font-size="14.00" fill="#000000">ChangepasswordComponent</text>
</g>
<!-- ChangepasswordComponent&#45;&gt;AppModule -->
<g id="edge2" class="edge">
<title>ChangepasswordComponent&#45;&gt;AppModule</title>
<path fill="none" stroke="#000000" d="M1035,-122.1061C1035,-141.3391 1035,-169 1035,-169 1035,-169 708.0077,-169 708.0077,-169"/>
<polygon fill="#000000" stroke="#000000" points="708.0077,-165.5001 698.0077,-169 708.0077,-172.5001 708.0077,-165.5001"/>
</g>
<!-- LoginComponent -->
<g id="node3" class="node">
<title>LoginComponent</title>
<polygon fill="#ffffb3" stroke="#000000" points="928.2758,-122 813.7242,-122 813.7242,-86 928.2758,-86 928.2758,-122"/>
<text text-anchor="middle" x="871" y="-99.8" font-family="Times,serif" font-size="14.00" fill="#000000">LoginComponent</text>
</g>
<!-- LoginComponent&#45;&gt;AppModule -->
<g id="edge3" class="edge">
<title>LoginComponent&#45;&gt;AppModule</title>
<path fill="none" stroke="#000000" d="M871,-122.027C871,-138.3976 871,-160 871,-160 871,-160 707.7091,-160 707.7091,-160"/>
<polygon fill="#000000" stroke="#000000" points="707.7091,-156.5001 697.7091,-160 707.7091,-163.5001 707.7091,-156.5001"/>
</g>
<!-- AppComponent  -->
<g id="node8" class="node">
<title>AppComponent </title>
<polygon fill="#80b1d3" stroke="#000000" points="710.439,-252 601.561,-252 601.561,-216 710.439,-216 710.439,-252"/>
<text text-anchor="middle" x="656" y="-229.8" font-family="Times,serif" font-size="14.00" fill="#000000">AppComponent </text>
</g>
<!-- AppModule&#45;&gt;AppComponent  -->
<g id="edge7" class="edge">
<title>AppModule&#45;&gt;AppComponent </title>
<path fill="none" stroke="#000000" stroke-dasharray="1,5" d="M656,-187.1061C656,-187.1061 656,-205.991 656,-205.991"/>
<polygon fill="#000000" stroke="#000000" points="652.5001,-205.9909 656,-215.991 659.5001,-205.991 652.5001,-205.9909"/>
</g>
<!-- AppRoutingModule -->
<g id="node5" class="node">
<title>AppRoutingModule</title>
<polygon fill="#8dd3c7" stroke="#000000" points="790.2744,-122 787.2744,-126 766.2744,-126 763.2744,-122 661.7256,-122 661.7256,-86 790.2744,-86 790.2744,-122"/>
<text text-anchor="middle" x="726" y="-99.8" font-family="Times,serif" font-size="14.00" fill="#000000">AppRoutingModule</text>
</g>
<!-- AppRoutingModule&#45;&gt;AppModule -->
<g id="edge4" class="edge">
<title>AppRoutingModule&#45;&gt;AppModule</title>
<path fill="none" stroke="#000000" d="M679.7206,-122.1061C679.7206,-122.1061 679.7206,-140.991 679.7206,-140.991"/>
<polygon fill="#000000" stroke="#000000" points="676.2206,-140.9909 679.7206,-150.991 683.2206,-140.991 676.2206,-140.9909"/>
</g>
<!-- GraphQLModule -->
<g id="node6" class="node">
<title>GraphQLModule</title>
<polygon fill="#8dd3c7" stroke="#000000" points="643.691,-122 640.691,-126 619.691,-126 616.691,-122 530.309,-122 530.309,-86 643.691,-86 643.691,-122"/>
<text text-anchor="middle" x="587" y="-99.8" font-family="Times,serif" font-size="14.00" fill="#000000">GraphQLModule</text>
</g>
<!-- GraphQLModule&#45;&gt;AppModule -->
<g id="edge5" class="edge">
<title>GraphQLModule&#45;&gt;AppModule</title>
<path fill="none" stroke="#000000" d="M628.8836,-122.1061C628.8836,-122.1061 628.8836,-140.991 628.8836,-140.991"/>
<polygon fill="#000000" stroke="#000000" points="625.3837,-140.9909 628.8836,-150.991 632.3837,-140.991 625.3837,-140.9909"/>
</g>
<!-- MaterialModule -->
<g id="node7" class="node">
<title>MaterialModule</title>
<polygon fill="#8dd3c7" stroke="#000000" points="512.4706,-122 509.4706,-126 488.4706,-126 485.4706,-122 405.5294,-122 405.5294,-86 512.4706,-86 512.4706,-122"/>
<text text-anchor="middle" x="459" y="-99.8" font-family="Times,serif" font-size="14.00" fill="#000000">MaterialModule</text>
</g>
<!-- MaterialModule&#45;&gt;AppModule -->
<g id="edge6" class="edge">
<title>MaterialModule&#45;&gt;AppModule</title>
<path fill="none" stroke="#000000" d="M459,-122.027C459,-138.3976 459,-160 459,-160 459,-160 604.2214,-160 604.2214,-160"/>
<polygon fill="#000000" stroke="#000000" points="604.2214,-163.5001 614.2214,-160 604.2213,-156.5001 604.2214,-163.5001"/>
</g>
<!-- AuthInterceptor -->
<g id="node9" class="node">
<title>AuthInterceptor</title>
<ellipse fill="#fdb462" stroke="#000000" cx="309" cy="-104" rx="72.9121" ry="18"/>
<text text-anchor="middle" x="309" y="-99.8" font-family="Times,serif" font-size="14.00" fill="#000000">AuthInterceptor</text>
</g>
<!-- AuthInterceptor&#45;&gt;AppModule -->
<g id="edge8" class="edge">
<title>AuthInterceptor&#45;&gt;AppModule</title>
<path fill="none" stroke="#000000" d="M309,-122.1061C309,-141.3391 309,-169 309,-169 309,-169 604.1437,-169 604.1437,-169"/>
<polygon fill="#000000" stroke="#000000" points="604.1437,-172.5001 614.1437,-169 604.1437,-165.5001 604.1437,-172.5001"/>
</g>
<!-- AuthenticationService -->
<g id="node10" class="node">
<title>AuthenticationService</title>
<ellipse fill="#fdb462" stroke="#000000" cx="121" cy="-104" rx="97.2683" ry="18"/>
<text text-anchor="middle" x="121" y="-99.8" font-family="Times,serif" font-size="14.00" fill="#000000">AuthenticationService</text>
</g>
<!-- AuthenticationService&#45;&gt;AppModule -->
<g id="edge9" class="edge">
<title>AuthenticationService&#45;&gt;AppModule</title>
<path fill="none" stroke="#000000" d="M121,-122.2921C121,-144.2057 121,-178 121,-178 121,-178 604.0194,-178 604.0194,-178"/>
<polygon fill="#000000" stroke="#000000" points="604.0195,-181.5001 614.0194,-178 604.0194,-174.5001 604.0195,-181.5001"/>
</g>
</g>
</svg>
