<?xml version="1.0" encoding="UTF-8" standalone="no"?>
<!DOCTYPE svg PUBLIC "-//W3C//DTD SVG 1.1//EN"
 "http://www.w3.org/Graphics/SVG/1.1/DTD/svg11.dtd">
<!-- Generated by graphviz version 2.40.1 (20161225.0304)
 -->
<!-- Title: dependencies Pages: 1 -->
<svg width="1394pt" height="211pt"
 viewBox="0.00 0.00 1394.00 211.00" xmlns="http://www.w3.org/2000/svg" xmlns:xlink="http://www.w3.org/1999/xlink">
<g id="graph0" class="graph" transform="scale(1 1) rotate(0) translate(4 207)">
<title>dependencies</title>
<polygon fill="#ffffff" stroke="transparent" points="-4,4 -4,-207 1390,-207 1390,4 -4,4"/>
<text text-anchor="start" x="672.0091" y="-42.4" font-family="sans-serif" font-weight="bold" font-size="14.00" fill="#000000">Legend</text>
<polygon fill="#ffffb3" stroke="transparent" points="459,-10 459,-30 479,-30 479,-10 459,-10"/>
<text text-anchor="start" x="482.629" y="-15.4" font-family="sans-serif" font-size="14.00" fill="#000000"> &#160;Declarations</text>
<polygon fill="#8dd3c7" stroke="transparent" points="572,-10 572,-30 592,-30 592,-10 572,-10"/>
<text text-anchor="start" x="595.7251" y="-15.4" font-family="sans-serif" font-size="14.00" fill="#000000"> &#160;Module</text>
<polygon fill="#80b1d3" stroke="transparent" points="658,-10 658,-30 678,-30 678,-10 658,-10"/>
<text text-anchor="start" x="681.7812" y="-15.4" font-family="sans-serif" font-size="14.00" fill="#000000"> &#160;Bootstrap</text>
<polygon fill="#fdb462" stroke="transparent" points="755,-10 755,-30 775,-30 775,-10 755,-10"/>
<text text-anchor="start" x="778.6732" y="-15.4" font-family="sans-serif" font-size="14.00" fill="#000000"> &#160;Providers</text>
<polygon fill="#fb8072" stroke="transparent" points="851,-10 851,-30 871,-30 871,-10 851,-10"/>
<text text-anchor="start" x="874.7258" y="-15.4" font-family="sans-serif" font-size="14.00" fill="#000000"> &#160;Exports</text>
<g id="clust1" class="cluster">
<title>cluster_AdminModule</title>
<polygon fill="none" stroke="#000000" stroke-dasharray="1,5" points="8,-70 8,-195 1378,-195 1378,-70 8,-70"/>
</g>
<g id="clust2" class="cluster">
<title>cluster_AdminModule_declarations</title>
<polygon fill="none" stroke="#000000" points="300,-78 300,-130 1370,-130 1370,-78 300,-78"/>
</g>
<g id="clust9" class="cluster">
<title>cluster_AdminModule_imports</title>
<polygon fill="none" stroke="#000000" points="16,-78 16,-130 292,-130 292,-78 16,-78"/>
</g>
<!-- AddteamComponent -->
<g id="node1" class="node">
<title>AddteamComponent</title>
<polygon fill="#ffffb3" stroke="#000000" points="1362.1499,-122 1229.8501,-122 1229.8501,-86 1362.1499,-86 1362.1499,-122"/>
<text text-anchor="middle" x="1296" y="-99.8" font-family="Times,serif" font-size="14.00" fill="#000000">AddteamComponent</text>
</g>
<!-- AdminModule -->
<g id="node7" class="node">
<title>AdminModule</title>
<polygon fill="#8dd3c7" stroke="#000000" points="723.4386,-187 720.4386,-191 699.4386,-191 696.4386,-187 624.5614,-187 624.5614,-151 723.4386,-151 723.4386,-187"/>
<text text-anchor="middle" x="674" y="-164.8" font-family="Times,serif" font-size="14.00" fill="#000000">AdminModule</text>
</g>
<!-- AddteamComponent&#45;&gt;AdminModule -->
<g id="edge1" class="edge">
<title>AddteamComponent&#45;&gt;AdminModule</title>
<path fill="none" stroke="#000000" d="M1296,-122.2921C1296,-144.2057 1296,-178 1296,-178 1296,-178 733.3272,-178 733.3272,-178"/>
<polygon fill="#000000" stroke="#000000" points="733.3272,-174.5001 723.3272,-178 733.3272,-181.5001 733.3272,-174.5001"/>
</g>
<!-- AddtournamentroundComponent -->
<g id="node2" class="node">
<title>AddtournamentroundComponent</title>
<polygon fill="#ffffb3" stroke="#000000" points="1211.8612,-122 1010.1388,-122 1010.1388,-86 1211.8612,-86 1211.8612,-122"/>
<text text-anchor="middle" x="1111" y="-99.8" font-family="Times,serif" font-size="14.00" fill="#000000">AddtournamentroundComponent</text>
</g>
<!-- AddtournamentroundComponent&#45;&gt;AdminModule -->
<g id="edge2" class="edge">
<title>AddtournamentroundComponent&#45;&gt;AdminModule</title>
<path fill="none" stroke="#000000" d="M1111,-122.1061C1111,-141.3391 1111,-169 1111,-169 1111,-169 733.28,-169 733.28,-169"/>
<polygon fill="#000000" stroke="#000000" points="733.28,-165.5001 723.28,-169 733.2799,-172.5001 733.28,-165.5001"/>
</g>
<!-- AdminComponent -->
<g id="node3" class="node">
<title>AdminComponent</title>
<polygon fill="#ffffb3" stroke="#000000" points="992.2204,-122 871.7796,-122 871.7796,-86 992.2204,-86 992.2204,-122"/>
<text text-anchor="middle" x="932" y="-99.8" font-family="Times,serif" font-size="14.00" fill="#000000">AdminComponent</text>
</g>
<!-- AdminComponent&#45;&gt;AdminModule -->
<g id="edge3" class="edge">
<title>AdminComponent&#45;&gt;AdminModule</title>
<path fill="none" stroke="#000000" d="M932,-122.027C932,-138.3976 932,-160 932,-160 932,-160 733.4397,-160 733.4397,-160"/>
<polygon fill="#000000" stroke="#000000" points="733.4398,-156.5001 723.4397,-160 733.4397,-163.5001 733.4398,-156.5001"/>
</g>
<!-- ManageseasonComponent -->
<g id="node4" class="node">
<title>ManageseasonComponent</title>
<polygon fill="#ffffb3" stroke="#000000" points="853.7394,-122 690.2606,-122 690.2606,-86 853.7394,-86 853.7394,-122"/>
<text text-anchor="middle" x="772" y="-99.8" font-family="Times,serif" font-size="14.00" fill="#000000">ManageseasonComponent</text>
</g>
<!-- ManageseasonComponent&#45;&gt;AdminModule -->
<g id="edge4" class="edge">
<title>ManageseasonComponent&#45;&gt;AdminModule</title>
<path fill="none" stroke="#000000" d="M706.6746,-122.1061C706.6746,-122.1061 706.6746,-140.991 706.6746,-140.991"/>
<polygon fill="#000000" stroke="#000000" points="703.1747,-140.9909 706.6746,-150.991 710.1747,-140.991 703.1747,-140.9909"/>
</g>
<!-- ManagetournamentComponent -->
<g id="node5" class="node">
<title>ManagetournamentComponent</title>
<polygon fill="#ffffb3" stroke="#000000" points="672.1825,-122 481.8175,-122 481.8175,-86 672.1825,-86 672.1825,-122"/>
<text text-anchor="middle" x="577" y="-99.8" font-family="Times,serif" font-size="14.00" fill="#000000">ManagetournamentComponent</text>
</g>
<!-- ManagetournamentComponent&#45;&gt;AdminModule -->
<g id="edge5" class="edge">
<title>ManagetournamentComponent&#45;&gt;AdminModule</title>
<path fill="none" stroke="#000000" d="M648.4362,-122.1061C648.4362,-122.1061 648.4362,-140.991 648.4362,-140.991"/>
<polygon fill="#000000" stroke="#000000" points="644.9363,-140.9909 648.4362,-150.991 651.9363,-140.991 644.9363,-140.9909"/>
</g>
<!-- ManageusersComponent -->
<g id="node6" class="node">
<title>ManageusersComponent</title>
<polygon fill="#ffffb3" stroke="#000000" points="463.6853,-122 308.3147,-122 308.3147,-86 463.6853,-86 463.6853,-122"/>
<text text-anchor="middle" x="386" y="-99.8" font-family="Times,serif" font-size="14.00" fill="#000000">ManageusersComponent</text>
</g>
<!-- ManageusersComponent&#45;&gt;AdminModule -->
<g id="edge6" class="edge">
<title>ManageusersComponent&#45;&gt;AdminModule</title>
<path fill="none" stroke="#000000" d="M386,-122.027C386,-138.3976 386,-160 386,-160 386,-160 614.491,-160 614.491,-160"/>
<polygon fill="#000000" stroke="#000000" points="614.4911,-163.5001 624.491,-160 614.491,-156.5001 614.4911,-163.5001"/>
</g>
<!-- AdminRoutingModule -->
<g id="node8" class="node">
<title>AdminRoutingModule</title>
<polygon fill="#8dd3c7" stroke="#000000" points="283.5561,-122 280.5561,-126 259.5561,-126 256.5561,-122 140.4439,-122 140.4439,-86 283.5561,-86 283.5561,-122"/>
<text text-anchor="middle" x="212" y="-99.8" font-family="Times,serif" font-size="14.00" fill="#000000">AdminRoutingModule</text>
</g>
<!-- AdminRoutingModule&#45;&gt;AdminModule -->
<g id="edge7" class="edge">
<title>AdminRoutingModule&#45;&gt;AdminModule</title>
<path fill="none" stroke="#000000" d="M212,-122.1061C212,-141.3391 212,-169 212,-169 212,-169 614.5579,-169 614.5579,-169"/>
<polygon fill="#000000" stroke="#000000" points="614.5579,-172.5001 624.5579,-169 614.5579,-165.5001 614.5579,-172.5001"/>
</g>
<!-- SharedModule -->
<g id="node9" class="node">
<title>SharedModule</title>
<polygon fill="#8dd3c7" stroke="#000000" points="122.4231,-122 119.4231,-126 98.4231,-126 95.4231,-122 23.5769,-122 23.5769,-86 122.4231,-86 122.4231,-122"/>
<text text-anchor="middle" x="73" y="-99.8" font-family="Times,serif" font-size="14.00" fill="#000000">SharedModule</text>
</g>
<!-- SharedModule&#45;&gt;AdminModule -->
<g id="edge8" class="edge">
<title>SharedModule&#45;&gt;AdminModule</title>
<path fill="none" stroke="#000000" d="M73,-122.2921C73,-144.2057 73,-178 73,-178 73,-178 614.5623,-178 614.5623,-178"/>
<polygon fill="#000000" stroke="#000000" points="614.5623,-181.5001 624.5623,-178 614.5622,-174.5001 614.5623,-181.5001"/>
</g>
</g>
</svg>
