<?xml version="1.0" encoding="UTF-8" standalone="no"?>
<!DOCTYPE svg PUBLIC "-//W3C//DTD SVG 1.1//EN"
 "http://www.w3.org/Graphics/SVG/1.1/DTD/svg11.dtd">
<!-- Generated by graphviz version 2.40.1 (20161225.0304)
 -->
<!-- Title: dependencies Pages: 1 -->
<svg width="520pt" height="211pt"
 viewBox="0.00 0.00 520.00 211.00" xmlns="http://www.w3.org/2000/svg" xmlns:xlink="http://www.w3.org/1999/xlink">
<g id="graph0" class="graph" transform="scale(1 1) rotate(0) translate(4 207)">
<title>dependencies</title>
<polygon fill="#ffffff" stroke="transparent" points="-4,4 -4,-207 516,-207 516,4 -4,4"/>
<text text-anchor="start" x="235.0091" y="-42.4" font-family="sans-serif" font-weight="bold" font-size="14.00" fill="#000000">Legend</text>
<polygon fill="#ffffb3" stroke="transparent" points="22,-10 22,-30 42,-30 42,-10 22,-10"/>
<text text-anchor="start" x="45.629" y="-15.4" font-family="sans-serif" font-size="14.00" fill="#000000"> &#160;Declarations</text>
<polygon fill="#8dd3c7" stroke="transparent" points="135,-10 135,-30 155,-30 155,-10 135,-10"/>
<text text-anchor="start" x="158.7251" y="-15.4" font-family="sans-serif" font-size="14.00" fill="#000000"> &#160;Module</text>
<polygon fill="#80b1d3" stroke="transparent" points="221,-10 221,-30 241,-30 241,-10 221,-10"/>
<text text-anchor="start" x="244.7812" y="-15.4" font-family="sans-serif" font-size="14.00" fill="#000000"> &#160;Bootstrap</text>
<polygon fill="#fdb462" stroke="transparent" points="318,-10 318,-30 338,-30 338,-10 318,-10"/>
<text text-anchor="start" x="341.6732" y="-15.4" font-family="sans-serif" font-size="14.00" fill="#000000"> &#160;Providers</text>
<polygon fill="#fb8072" stroke="transparent" points="414,-10 414,-30 434,-30 434,-10 414,-10"/>
<text text-anchor="start" x="437.7258" y="-15.4" font-family="sans-serif" font-size="14.00" fill="#000000"> &#160;Exports</text>
<g id="clust1" class="cluster">
<title>cluster_TournamentModule</title>
<polygon fill="none" stroke="#000000" stroke-dasharray="1,5" points="8,-70 8,-195 504,-195 504,-70 8,-70"/>
</g>
<g id="clust2" class="cluster">
<title>cluster_TournamentModule_declarations</title>
<polygon fill="none" stroke="#000000" points="330,-78 330,-130 496,-130 496,-78 330,-78"/>
</g>
<g id="clust4" class="cluster">
<title>cluster_TournamentModule_imports</title>
<polygon fill="none" stroke="#000000" points="16,-78 16,-130 322,-130 322,-78 16,-78"/>
</g>
<!-- TournamentComponent -->
<g id="node1" class="node">
<title>TournamentComponent</title>
<polygon fill="#ffffb3" stroke="#000000" points="487.7562,-122 338.2438,-122 338.2438,-86 487.7562,-86 487.7562,-122"/>
<text text-anchor="middle" x="413" y="-99.8" font-family="Times,serif" font-size="14.00" fill="#000000">TournamentComponent</text>
</g>
<!-- TournamentModule -->
<g id="node2" class="node">
<title>TournamentModule</title>
<polygon fill="#8dd3c7" stroke="#000000" points="328.9734,-187 325.9734,-191 304.9734,-191 301.9734,-187 201.0266,-187 201.0266,-151 328.9734,-151 328.9734,-187"/>
<text text-anchor="middle" x="265" y="-164.8" font-family="Times,serif" font-size="14.00" fill="#000000">TournamentModule</text>
</g>
<!-- TournamentComponent&#45;&gt;TournamentModule -->
<g id="edge1" class="edge">
<title>TournamentComponent&#45;&gt;TournamentModule</title>
<path fill="none" stroke="#000000" d="M337.9396,-104C328.2389,-104 321.5989,-104 321.5989,-104 321.5989,-104 321.5989,-140.8939 321.5989,-140.8939"/>
<polygon fill="#000000" stroke="#000000" points="318.099,-140.8938 321.5989,-150.8939 325.099,-140.8939 318.099,-140.8938"/>
</g>
<!-- SharedModule -->
<g id="node3" class="node">
<title>SharedModule</title>
<polygon fill="#8dd3c7" stroke="#000000" points="314.4231,-122 311.4231,-126 290.4231,-126 287.4231,-122 215.5769,-122 215.5769,-86 314.4231,-86 314.4231,-122"/>
<text text-anchor="middle" x="265" y="-99.8" font-family="Times,serif" font-size="14.00" fill="#000000">SharedModule</text>
</g>
<!-- SharedModule&#45;&gt;TournamentModule -->
<g id="edge2" class="edge">
<title>SharedModule&#45;&gt;TournamentModule</title>
<path fill="none" stroke="#000000" d="M265,-122.1061C265,-122.1061 265,-140.991 265,-140.991"/>
<polygon fill="#000000" stroke="#000000" points="261.5001,-140.9909 265,-150.991 268.5001,-140.991 261.5001,-140.9909"/>
</g>
<!-- TournamentRoutingModule -->
<g id="node4" class="node">
<title>TournamentRoutingModule</title>
<polygon fill="#8dd3c7" stroke="#000000" points="197.5912,-122 194.5912,-126 173.5912,-126 170.5912,-122 24.4088,-122 24.4088,-86 197.5912,-86 197.5912,-122"/>
<text text-anchor="middle" x="111" y="-99.8" font-family="Times,serif" font-size="14.00" fill="#000000">TournamentRoutingModule</text>
</g>
<!-- TournamentRoutingModule&#45;&gt;TournamentModule -->
<g id="edge3" class="edge">
<title>TournamentRoutingModule&#45;&gt;TournamentModule</title>
<path fill="none" stroke="#000000" d="M197.6053,-104C204.2263,-104 208.4011,-104 208.4011,-104 208.4011,-104 208.4011,-140.8939 208.4011,-140.8939"/>
<polygon fill="#000000" stroke="#000000" points="204.9012,-140.8938 208.4011,-150.8939 211.9012,-140.8939 204.9012,-140.8938"/>
</g>
</g>
</svg>
