<?xml version="1.0" encoding="UTF-8" standalone="no"?>
<!DOCTYPE svg PUBLIC "-//W3C//DTD SVG 1.1//EN"
 "http://www.w3.org/Graphics/SVG/1.1/DTD/svg11.dtd">
<!-- Generated by graphviz version 2.40.1 (20161225.0304)
 -->
<!-- Title: dependencies Pages: 1 -->
<svg width="516pt" height="211pt"
 viewBox="0.00 0.00 516.00 211.00" xmlns="http://www.w3.org/2000/svg" xmlns:xlink="http://www.w3.org/1999/xlink">
<g id="graph0" class="graph" transform="scale(1 1) rotate(0) translate(4 207)">
<title>dependencies</title>
<polygon fill="#ffffff" stroke="transparent" points="-4,4 -4,-207 512,-207 512,4 -4,4"/>
<text text-anchor="start" x="233.0091" y="-42.4" font-family="sans-serif" font-weight="bold" font-size="14.00" fill="#000000">Legend</text>
<polygon fill="#ffffb3" stroke="transparent" points="20,-10 20,-30 40,-30 40,-10 20,-10"/>
<text text-anchor="start" x="43.629" y="-15.4" font-family="sans-serif" font-size="14.00" fill="#000000"> &#160;Declarations</text>
<polygon fill="#8dd3c7" stroke="transparent" points="133,-10 133,-30 153,-30 153,-10 133,-10"/>
<text text-anchor="start" x="156.7251" y="-15.4" font-family="sans-serif" font-size="14.00" fill="#000000"> &#160;Module</text>
<polygon fill="#80b1d3" stroke="transparent" points="219,-10 219,-30 239,-30 239,-10 219,-10"/>
<text text-anchor="start" x="242.7812" y="-15.4" font-family="sans-serif" font-size="14.00" fill="#000000"> &#160;Bootstrap</text>
<polygon fill="#fdb462" stroke="transparent" points="316,-10 316,-30 336,-30 336,-10 316,-10"/>
<text text-anchor="start" x="339.6732" y="-15.4" font-family="sans-serif" font-size="14.00" fill="#000000"> &#160;Providers</text>
<polygon fill="#fb8072" stroke="transparent" points="412,-10 412,-30 432,-30 432,-10 412,-10"/>
<text text-anchor="start" x="435.7258" y="-15.4" font-family="sans-serif" font-size="14.00" fill="#000000"> &#160;Exports</text>
<g id="clust1" class="cluster">
<title>cluster_TeamadminModule</title>
<polygon fill="none" stroke="#000000" stroke-dasharray="1,5" points="8,-70 8,-195 500,-195 500,-70 8,-70"/>
</g>
<g id="clust2" class="cluster">
<title>cluster_TeamadminModule_declarations</title>
<polygon fill="none" stroke="#000000" points="328,-78 328,-130 492,-130 492,-78 328,-78"/>
</g>
<g id="clust4" class="cluster">
<title>cluster_TeamadminModule_imports</title>
<polygon fill="none" stroke="#000000" points="16,-78 16,-130 320,-130 320,-78 16,-78"/>
</g>
<!-- TeamadminComponent -->
<g id="node1" class="node">
<title>TeamadminComponent</title>
<polygon fill="#ffffb3" stroke="#000000" points="484.2007,-122 335.7993,-122 335.7993,-86 484.2007,-86 484.2007,-122"/>
<text text-anchor="middle" x="410" y="-99.8" font-family="Times,serif" font-size="14.00" fill="#000000">TeamadminComponent</text>
</g>
<!-- TeamadminModule -->
<g id="node2" class="node">
<title>TeamadminModule</title>
<polygon fill="#8dd3c7" stroke="#000000" points="326.4187,-187 323.4187,-191 302.4187,-191 299.4187,-187 199.5813,-187 199.5813,-151 326.4187,-151 326.4187,-187"/>
<text text-anchor="middle" x="263" y="-164.8" font-family="Times,serif" font-size="14.00" fill="#000000">TeamadminModule</text>
</g>
<!-- TeamadminComponent&#45;&gt;TeamadminModule -->
<g id="edge1" class="edge">
<title>TeamadminComponent&#45;&gt;TeamadminModule</title>
<path fill="none" stroke="#000000" d="M335.8623,-104C325.9982,-104 319.2101,-104 319.2101,-104 319.2101,-104 319.2101,-140.8939 319.2101,-140.8939"/>
<polygon fill="#000000" stroke="#000000" points="315.7101,-140.8938 319.2101,-150.8939 322.7101,-140.8939 315.7101,-140.8938"/>
</g>
<!-- SharedModule -->
<g id="node3" class="node">
<title>SharedModule</title>
<polygon fill="#8dd3c7" stroke="#000000" points="312.4231,-122 309.4231,-126 288.4231,-126 285.4231,-122 213.5769,-122 213.5769,-86 312.4231,-86 312.4231,-122"/>
<text text-anchor="middle" x="263" y="-99.8" font-family="Times,serif" font-size="14.00" fill="#000000">SharedModule</text>
</g>
<!-- SharedModule&#45;&gt;TeamadminModule -->
<g id="edge2" class="edge">
<title>SharedModule&#45;&gt;TeamadminModule</title>
<path fill="none" stroke="#000000" d="M263,-122.1061C263,-122.1061 263,-140.991 263,-140.991"/>
<polygon fill="#000000" stroke="#000000" points="259.5001,-140.9909 263,-150.991 266.5001,-140.991 259.5001,-140.9909"/>
</g>
<!-- TeamadminRoutingModule -->
<g id="node4" class="node">
<title>TeamadminRoutingModule</title>
<polygon fill="#8dd3c7" stroke="#000000" points="195.5364,-122 192.5364,-126 171.5364,-126 168.5364,-122 24.4636,-122 24.4636,-86 195.5364,-86 195.5364,-122"/>
<text text-anchor="middle" x="110" y="-99.8" font-family="Times,serif" font-size="14.00" fill="#000000">TeamadminRoutingModule</text>
</g>
<!-- TeamadminRoutingModule&#45;&gt;TeamadminModule -->
<g id="edge3" class="edge">
<title>TeamadminRoutingModule&#45;&gt;TeamadminModule</title>
<path fill="none" stroke="#000000" d="M195.6869,-104C202.4833,-104 206.79,-104 206.79,-104 206.79,-104 206.79,-140.8939 206.79,-140.8939"/>
<polygon fill="#000000" stroke="#000000" points="203.29,-140.8938 206.79,-150.8939 210.29,-140.8939 203.29,-140.8938"/>
</g>
</g>
</svg>
